# Blender 3.6.5
# www.blender.org
mtllib house.mtl
o tower-base-door
v 1.385819 2.000000 -0.574025
v 1.385819 2.000000 0.574025
v 0.574025 2.000000 -1.385819
v 0.574025 2.000000 1.385819
v -0.574025 2.000000 -1.385819
v -0.574025 2.000000 1.385819
v -1.385819 2.000000 -0.574025
v -1.385819 2.000000 0.574025
v 0.654389 1.200000 1.579834
v -0.654389 1.200000 1.579834
v -0.654389 1.200000 -1.579834
v 0.654389 1.200000 -1.579834
v -1.579834 1.200000 -0.654389
v -1.579834 1.200000 0.654389
v -1.480055 -0.000000 -0.613059
v -1.480055 0.000000 0.613059
v -0.613059 -0.000000 -1.480055
v 0.613059 -0.000000 -1.480055
v 1.579834 1.200000 -0.654389
v 1.579834 1.200000 0.654389
v 1.480055 -0.000000 -0.613059
v 1.480055 0.000000 0.613059
v 0.613059 0.000000 1.480055
v -0.613059 0.000000 1.480055
v 0.613059 0.990918 0.780055
v 0.613059 0.000000 0.780055
v 0.613059 0.990918 1.980055
v 0.613059 0.000000 1.980055
v 0.366482 0.000000 1.980055
v 0.366482 0.941575 1.980055
v 0.245211 1.232449 1.980055
v 0.433498 1.421604 1.980055
v -0.000000 1.333359 1.980055
v -0.433498 1.421604 1.980055
v -0.000000 1.600000 1.980055
v -0.245211 1.232449 1.980055
v -0.613059 0.990918 1.980055
v -0.366482 0.941575 1.980055
v -0.366482 0.000000 1.980055
v -0.613059 0.000000 1.980055
v -0.366482 0.941575 1.680055
v -0.366482 0.000000 1.680055
v 0.433498 1.421604 0.780055
v -0.000000 1.600000 0.780055
v 0.245211 1.232449 1.680055
v -0.000000 1.333359 1.680055
v -0.245211 1.232449 1.680055
v -0.613059 0.990918 0.780055
v -0.433498 1.421604 0.780055
v -0.613059 0.000000 0.780055
v 0.366482 0.941575 1.680055
v 0.366482 0.000000 1.680055
v 0.366482 0.400000 1.780055
v 0.366482 0.400000 1.680055
v -0.366482 0.400000 1.780055
v -0.366482 0.400000 1.680055
v 0.366482 0.643000 1.680055
v 0.366482 0.643000 1.780055
v -0.366482 0.643000 1.680055
v -0.366482 0.643000 1.780055
v -0.000000 1.161670 1.680055
v 0.123973 1.110652 1.680055
v -0.123973 1.110652 1.680055
v 0.207711 0.909803 1.680055
v -0.207711 0.909803 1.680055
v -0.207711 0.158771 1.680055
v 0.207711 0.158771 1.680055
v -0.123973 1.110652 1.580055
v -0.207711 0.909803 1.580055
v 0.207711 0.158771 1.580055
v 0.207711 0.909803 1.580055
v 0.123973 1.110652 1.580055
v -0.000000 1.161670 1.580055
v -0.207711 0.158771 1.580055
vn -0.0000 1.0000 -0.0000
vn 0.3701 0.2539 0.8936
vn -0.3814 0.0801 0.9209
vn 0.3814 0.0801 0.9209
vn -0.3815 0.0801 0.9209
vn -0.3701 0.2539 0.8936
vn -0.3701 0.2539 -0.8936
vn 0.3814 0.0801 -0.9209
vn -0.3814 0.0801 -0.9209
vn 0.3815 0.0801 -0.9209
vn 0.3701 0.2539 -0.8936
vn -0.9202 -0.0896 -0.3811
vn -0.9209 0.0801 0.3815
vn -0.9209 0.0801 -0.3815
vn -0.9202 -0.0896 0.3811
vn -0.3815 0.0801 -0.9209
vn 0.3811 -0.0896 -0.9202
vn -0.3811 -0.0896 -0.9202
vn -0.9209 0.0801 -0.3814
vn 0.8936 0.2539 -0.3701
vn 0.9209 0.0801 0.3814
vn 0.9209 0.0801 -0.3814
vn 0.8936 0.2539 0.3701
vn 0.9209 0.0801 0.3815
vn 0.9202 -0.0896 -0.3811
vn 0.9209 0.0801 -0.3815
vn 0.9202 -0.0896 0.3811
vn -0.0000 -1.0000 -0.0000
vn 0.3815 0.0801 0.9209
vn -0.3811 -0.0896 0.9202
vn 0.3811 -0.0896 0.9202
vn -0.9209 0.0801 0.3814
vn -0.8936 0.2539 0.3701
vn -0.8936 0.2539 -0.3701
vn 0.9806 0.1962 -0.0000
vn 1.0000 -0.0000 -0.0000
vn -0.0000 -0.0000 1.0000
vn 0.9806 -0.1962 -0.0000
vn 0.7055 0.7087 -0.0000
vn -0.7055 -0.7087 -0.0000
vn 0.7055 -0.7087 -0.0000
vn -0.9806 0.1962 -0.0000
vn -0.7055 0.7087 -0.0000
vn -1.0000 -0.0000 -0.0000
vn -0.9806 -0.1962 -0.0000
vn -0.0000 -0.0000 -1.0000
vn 0.0001 -0.7071 0.7071
vn -0.0000 -0.7071 0.7071
vn 0.0002 -0.7071 0.7071
vn -0.0002 0.7071 0.7071
vn -0.0001 0.7071 0.7071
vn -0.0000 0.7071 0.7071
vn -0.0001 -0.7071 0.7071
vn -0.0002 -0.7071 0.7071
vn 0.0001 0.7071 0.7071
vn 0.0002 0.7071 0.7071
vn -0.7071 0.7071 -0.0000
vn 0.7071 0.7071 -0.0000
vt 0.218750 0.175000
vt 0.218750 0.135000
vt 0.218750 0.075000
vt 0.218750 0.136932
vt 0.218750 0.133848
vt 0.218750 0.152028
vt 0.218750 0.163850
vt 0.218750 0.158335
vt 0.718750 0.075000
vt 0.718750 0.175000
vt 0.718750 0.152028
vt 0.718750 0.158335
vt 0.718750 0.147604
vt 0.718750 0.144416
vt 0.718750 0.133848
vt 0.718750 0.131863
vt 0.718750 0.084923
vt 0.843750 0.144416
vt 0.843750 0.131863
vt 0.843750 0.084923
vt 0.843750 0.147604
s 0
usemtl colormap.082
f 3/1/1 2/1/1 1/1/1
f 2/1/1 3/1/1 4/1/1
f 4/1/1 3/1/1 5/1/1
f 4/1/1 5/1/1 6/1/1
f 6/1/1 5/1/1 7/1/1
f 6/1/1 7/1/1 8/1/1
f 4/1/2 10/2/3 9/2/4
f 10/2/5 4/1/2 6/1/6
f 5/1/7 12/2/8 11/2/9
f 12/2/10 5/1/7 3/1/11
f 15/3/12 14/2/13 13/2/14
f 14/2/13 15/3/12 16/3/15
f 11/2/16 18/3/17 17/3/18
f 18/3/17 11/2/16 12/2/10
f 17/3/18 13/2/19 11/2/16
f 13/2/14 17/3/18 15/3/12
f 1/1/20 20/2/21 19/2/22
f 20/2/21 1/1/20 2/1/23
f 3/1/11 19/2/22 12/2/10
f 19/2/22 3/1/11 1/1/20
f 20/2/24 21/3/25 19/2/26
f 21/3/25 20/2/24 22/3/27
f 19/2/22 18/3/17 12/2/10
f 18/3/17 19/2/26 21/3/25
f 23/3/28 21/3/28 22/3/28
f 21/3/28 23/3/28 18/3/28
f 18/3/28 23/3/28 24/3/28
f 18/3/28 24/3/28 17/3/28
f 17/3/28 24/3/28 16/3/28
f 17/3/28 16/3/28 15/3/28
f 9/2/29 24/3/30 23/3/31
f 24/3/30 9/2/29 10/2/5
f 24/3/30 14/2/13 16/3/15
f 14/2/32 24/3/30 10/2/5
f 4/1/2 20/2/24 2/1/23
f 20/2/21 4/1/2 9/2/29
f 6/1/6 14/2/32 10/2/5
f 14/2/32 6/1/6 8/1/33
f 20/2/24 23/3/31 22/3/27
f 23/3/31 20/2/21 9/2/29
f 7/1/34 11/2/16 13/2/19
f 11/2/9 7/1/34 5/1/7
f 14/2/32 7/1/34 13/2/19
f 7/1/34 14/2/13 8/1/33
f 27/4/35 26/3/36 25/4/35
f 26/3/36 27/4/35 28/3/36
f 27/4/37 29/3/37 28/3/37
f 29/3/37 27/4/37 30/5/37
f 30/5/37 27/4/37 31/6/37
f 31/6/37 27/4/37 32/7/37
f 31/6/37 32/7/37 33/8/37
f 34/7/37 33/8/37 32/7/37
f 34/7/37 32/7/37 35/1/37
f 34/7/37 36/6/37 33/8/37
f 37/4/37 36/6/37 34/7/37
f 37/4/37 38/5/37 36/6/37
f 37/4/37 39/3/37 38/5/37
f 39/3/37 37/4/37 40/3/37
f 38/5/38 42/3/36 41/5/38
f 42/3/36 38/5/38 39/3/36
f 32/7/39 25/4/35 43/7/39
f 25/4/35 32/7/39 27/4/35
f 44/1/1 32/7/39 43/7/39
f 32/7/39 44/1/1 35/1/1
f 33/8/28 45/6/40 31/6/40
f 45/6/40 33/8/28 46/8/28
f 36/6/41 41/5/38 47/6/41
f 41/5/38 36/6/41 38/5/38
f 37/4/42 49/7/43 48/4/42
f 49/7/43 37/4/42 34/7/43
f 49/7/43 35/1/1 44/1/1
f 35/1/1 49/7/43 34/7/43
f 40/3/44 48/4/42 50/3/44
f 48/4/42 40/3/44 37/4/42
f 30/5/45 45/6/40 51/5/45
f 45/6/40 30/5/45 31/6/40
f 36/6/41 46/8/28 33/8/28
f 46/8/28 36/6/41 47/6/41
f 48/4/46 26/3/46 50/3/46
f 26/3/46 48/4/46 25/4/46
f 25/4/46 48/4/46 43/7/46
f 43/7/46 48/4/46 49/7/46
f 43/7/46 49/7/46 44/1/46
f 40/3/28 42/3/28 39/3/28
f 50/3/28 42/3/28 40/3/28
f 50/3/28 52/3/28 42/3/28
f 26/3/28 52/3/28 50/3/28
f 26/3/28 29/3/28 52/3/28
f 29/3/28 26/3/28 28/3/28
f 29/3/44 51/5/45 52/3/44
f 51/5/45 29/3/44 30/5/45
f 55/9/47 54/9/28 53/9/48
f 54/9/28 55/9/49 56/9/28
f 59/10/1 58/10/50 57/10/1
f 58/10/51 59/10/1 60/10/52
f 58/10/52 55/9/53 53/9/54
f 55/9/48 58/10/55 60/10/56
f 47/11/37 45/11/37 46/12/37
f 47/11/37 61/13/37 45/11/37
f 62/14/37 45/11/37 61/13/37
f 47/11/37 63/14/37 61/13/37
f 62/14/37 51/15/37 45/11/37
f 64/16/37 51/15/37 62/14/37
f 41/15/37 63/14/37 47/11/37
f 41/15/37 65/16/37 63/14/37
f 41/15/37 66/17/37 65/16/37
f 42/9/37 66/17/37 41/15/37
f 67/17/37 51/15/37 64/16/37
f 66/17/37 42/9/37 67/17/37
f 67/17/37 52/9/37 51/15/37
f 52/9/37 67/17/37 42/9/37
f 63/18/41 69/19/38 68/18/41
f 69/19/38 63/18/41 65/19/38
f 67/20/57 71/19/45 70/20/57
f 71/19/45 67/20/57 64/19/45
f 61/21/28 72/18/40 62/18/40
f 72/18/40 61/21/28 73/21/28
f 74/20/58 67/20/57 70/20/57
f 67/20/57 74/20/58 66/20/58
f 65/19/38 74/20/58 69/19/38
f 74/20/58 65/19/38 66/20/58
f 71/19/37 74/20/37 70/20/37
f 74/20/37 71/19/37 69/19/37
f 69/19/37 71/19/37 72/18/37
f 69/19/37 72/18/37 68/18/37
f 68/18/37 72/18/37 73/21/37
f 63/18/41 73/21/28 61/21/28
f 73/21/28 63/18/41 68/18/41
f 64/19/45 72/18/40 71/19/45
f 72/18/40 64/19/45 62/18/40
f 3/1/1 2/1/1 1/1/1
f 2/1/1 3/1/1 4/1/1
f 4/1/1 3/1/1 5/1/1
f 4/1/1 5/1/1 6/1/1
f 6/1/1 5/1/1 7/1/1
f 6/1/1 7/1/1 8/1/1
f 4/1/2 10/2/3 9/2/4
f 10/2/5 4/1/2 6/1/6
f 5/1/7 12/2/8 11/2/9
f 12/2/10 5/1/7 3/1/11
f 15/3/12 14/2/13 13/2/14
f 14/2/13 15/3/12 16/3/15
f 11/2/16 18/3/17 17/3/18
f 18/3/17 11/2/16 12/2/10
f 17/3/18 13/2/19 11/2/16
f 13/2/14 17/3/18 15/3/12
f 1/1/20 20/2/21 19/2/22
f 20/2/21 1/1/20 2/1/23
f 3/1/11 19/2/22 12/2/10
f 19/2/22 3/1/11 1/1/20
f 20/2/24 21/3/25 19/2/26
f 21/3/25 20/2/24 22/3/27
f 19/2/22 18/3/17 12/2/10
f 18/3/17 19/2/26 21/3/25
f 23/3/28 21/3/28 22/3/28
f 21/3/28 23/3/28 18/3/28
f 18/3/28 23/3/28 24/3/28
f 18/3/28 24/3/28 17/3/28
f 17/3/28 24/3/28 16/3/28
f 17/3/28 16/3/28 15/3/28
f 9/2/29 24/3/30 23/3/31
f 24/3/30 9/2/29 10/2/5
f 24/3/30 14/2/13 16/3/15
f 14/2/32 24/3/30 10/2/5
f 4/1/2 20/2/24 2/1/23
f 20/2/21 4/1/2 9/2/29
f 6/1/6 14/2/32 10/2/5
f 14/2/32 6/1/6 8/1/33
f 20/2/24 23/3/31 22/3/27
f 23/3/31 20/2/21 9/2/29
f 7/1/34 11/2/16 13/2/19
f 11/2/9 7/1/34 5/1/7
f 14/2/32 7/1/34 13/2/19
f 7/1/34 14/2/13 8/1/33
f 27/4/35 26/3/36 25/4/35
f 26/3/36 27/4/35 28/3/36
f 27/4/37 29/3/37 28/3/37
f 29/3/37 27/4/37 30/5/37
f 30/5/37 27/4/37 31/6/37
f 31/6/37 27/4/37 32/7/37
f 31/6/37 32/7/37 33/8/37
f 34/7/37 33/8/37 32/7/37
f 34/7/37 32/7/37 35/1/37
f 34/7/37 36/6/37 33/8/37
f 37/4/37 36/6/37 34/7/37
f 37/4/37 38/5/37 36/6/37
f 37/4/37 39/3/37 38/5/37
f 39/3/37 37/4/37 40/3/37
f 38/5/38 42/3/36 41/5/38
f 42/3/36 38/5/38 39/3/36
f 32/7/39 25/4/35 43/7/39
f 25/4/35 32/7/39 27/4/35
f 44/1/1 32/7/39 43/7/39
f 32/7/39 44/1/1 35/1/1
f 33/8/28 45/6/40 31/6/40
f 45/6/40 33/8/28 46/8/28
f 36/6/41 41/5/38 47/6/41
f 41/5/38 36/6/41 38/5/38
f 37/4/42 49/7/43 48/4/42
f 49/7/43 37/4/42 34/7/43
f 49/7/43 35/1/1 44/1/1
f 35/1/1 49/7/43 34/7/43
f 40/3/44 48/4/42 50/3/44
f 48/4/42 40/3/44 37/4/42
f 30/5/45 45/6/40 51/5/45
f 45/6/40 30/5/45 31/6/40
f 36/6/41 46/8/28 33/8/28
f 46/8/28 36/6/41 47/6/41
f 48/4/46 26/3/46 50/3/46
f 26/3/46 48/4/46 25/4/46
f 25/4/46 48/4/46 43/7/46
f 43/7/46 48/4/46 49/7/46
f 43/7/46 49/7/46 44/1/46
f 40/3/28 42/3/28 39/3/28
f 50/3/28 42/3/28 40/3/28
f 50/3/28 52/3/28 42/3/28
f 26/3/28 52/3/28 50/3/28
f 26/3/28 29/3/28 52/3/28
f 29/3/28 26/3/28 28/3/28
f 29/3/44 51/5/45 52/3/44
f 51/5/45 29/3/44 30/5/45
f 55/9/47 54/9/28 53/9/48
f 54/9/28 55/9/49 56/9/28
f 59/10/1 58/10/50 57/10/1
f 58/10/51 59/10/1 60/10/52
f 58/10/52 55/9/53 53/9/54
f 55/9/48 58/10/55 60/10/56
f 47/11/37 45/11/37 46/12/37
f 47/11/37 61/13/37 45/11/37
f 62/14/37 45/11/37 61/13/37
f 47/11/37 63/14/37 61/13/37
f 62/14/37 51/15/37 45/11/37
f 64/16/37 51/15/37 62/14/37
f 41/15/37 63/14/37 47/11/37
f 41/15/37 65/16/37 63/14/37
f 41/15/37 66/17/37 65/16/37
f 42/9/37 66/17/37 41/15/37
f 67/17/37 51/15/37 64/16/37
f 66/17/37 42/9/37 67/17/37
f 67/17/37 52/9/37 51/15/37
f 52/9/37 67/17/37 42/9/37
f 63/18/41 69/19/38 68/18/41
f 69/19/38 63/18/41 65/19/38
f 67/20/57 71/19/45 70/20/57
f 71/19/45 67/20/57 64/19/45
f 61/21/28 72/18/40 62/18/40
f 72/18/40 61/21/28 73/21/28
f 74/20/58 67/20/57 70/20/57
f 67/20/57 74/20/58 66/20/58
f 65/19/38 74/20/58 69/19/38
f 74/20/58 65/19/38 66/20/58
f 71/19/37 74/20/37 70/20/37
f 74/20/37 71/19/37 69/19/37
f 69/19/37 71/19/37 72/18/37
f 69/19/37 72/18/37 68/18/37
f 68/18/37 72/18/37 73/21/37
f 63/18/41 73/21/28 61/21/28
f 73/21/28 63/18/41 68/18/41
f 64/19/45 72/18/40 71/19/45
f 72/18/40 64/19/45 62/18/40
o tower-roof
v 1.524401 1.413696 0.631428
v 1.524401 1.413696 -0.631428
v 0.631428 1.413696 1.524401
v 0.631428 1.413695 -1.524401
v -0.631428 1.413696 1.524401
v -0.631428 1.413695 -1.524401
v -1.524401 1.413696 -0.631428
v -1.524401 1.413696 0.631428
v -0.751399 1.753695 -1.814038
v -1.814038 1.753695 -0.751399
v 0.751399 1.753695 -1.814038
v -0.751399 1.753696 1.814038
v -1.814038 1.753696 0.751399
v 0.751399 1.753696 1.814038
v 1.814038 1.753696 0.751399
v 1.814038 1.753695 -0.751399
v -0.693977 2.003695 -1.675409
v 0.693977 2.003695 -1.675409
v -1.675409 2.003695 -0.693977
v 1.675409 2.003695 -0.693977
v -1.675409 2.003695 0.693977
v -0.693977 2.003696 1.675409
v 1.675409 2.003695 0.693977
v 0.693977 2.003696 1.675409
v 0.467876 4.193815 0.193801
v 0.467876 4.193815 -0.193801
v 0.193801 4.193815 0.467876
v 0.193801 4.193815 -0.467877
v -0.193801 4.193815 0.467876
v -0.193801 4.193815 -0.467877
v -0.467877 4.193815 -0.193801
v -0.467877 4.193815 0.193801
v 0.145123 4.853696 -0.060112
v 0.145123 4.853696 0.060112
v 0.060112 4.853696 -0.145123
v 0.060112 4.853696 0.145123
v -0.060112 4.853696 -0.145123
v -0.060112 4.853696 0.145123
v -0.145123 4.853696 -0.060112
v -0.145123 4.853696 0.060112
v 0.290246 4.453695 -0.120224
v 0.290246 4.453695 0.120224
v 0.120224 4.453695 -0.290246
v 0.120224 4.453695 0.290246
v -0.120224 4.453695 -0.290246
v -0.120224 4.453695 0.290246
v -0.290246 4.453695 -0.120224
v -0.290246 4.453695 0.120224
v 0.389525 2.753696 0.940397
v -0.389525 2.753696 0.940397
v 0.940397 2.753695 0.389525
v -0.940397 2.753695 -0.389525
v -0.940397 2.753695 0.389525
v 0.940397 2.753695 -0.389525
v 0.389525 2.753695 -0.940397
v -0.389525 2.753695 -0.940397
vn -0.0000 -1.0000 -0.0000
vn -0.6792 -0.6779 -0.2814
vn -0.2814 -0.6779 -0.6792
vn -0.2813 -0.6779 -0.6792
vn -0.6792 -0.6779 -0.2813
vn 0.2813 -0.6779 -0.6792
vn -0.2814 -0.6779 0.6792
vn -0.6792 -0.6779 0.2814
vn -0.6792 -0.6779 0.2813
vn -0.2813 -0.6779 0.6792
vn 0.2813 -0.6779 0.6792
vn 0.6792 -0.6779 0.2813
vn 0.6792 -0.6779 0.2814
vn 0.2814 -0.6779 0.6792
vn 0.6792 -0.6779 -0.2813
vn 0.2814 -0.6779 -0.6792
vn 0.6792 -0.6779 -0.2814
vn -0.3281 0.5146 -0.7921
vn 0.3281 0.5146 -0.7921
vn 0.3281 0.5146 -0.7922
vn -0.7922 0.5146 -0.3281
vn -0.3281 0.5146 -0.7922
vn 0.7922 0.5146 -0.3281
vn -0.7922 0.5146 0.3281
vn -0.3281 0.5146 0.7922
vn -0.3281 0.5146 0.7921
vn 0.7921 0.5146 -0.3281
vn 0.7921 0.5146 0.3281
vn 0.7922 0.5146 0.3281
vn -0.7921 0.5146 0.3281
vn -0.7921 0.5146 -0.3281
vn 0.3281 0.5146 0.7922
vn 0.3281 0.5146 0.7921
vn -0.0000 1.0000 -0.0000
vn -0.8165 0.4679 0.3382
vn -0.8165 0.4679 -0.3382
vn -0.3382 0.4679 0.8165
vn 0.3382 0.4679 0.8165
vn 0.8165 0.4679 0.3382
vn -0.3382 0.4679 -0.8165
vn 0.3382 0.4679 -0.8165
vn 0.8165 0.4679 -0.3382
vn 0.2625 0.7276 0.6337
vn -0.2625 0.7276 0.6337
vn 0.6338 0.7276 0.2625
vn 0.6337 0.7276 0.2625
vn -0.6337 0.7276 0.2625
vn -0.6337 0.7276 -0.2625
vn 0.2625 0.7276 -0.6337
vn 0.6338 0.7276 -0.2625
vn 0.6337 0.7276 -0.2625
vn -0.6338 0.7276 0.2625
vn -0.2625 0.7276 -0.6337
vn -0.6338 0.7276 -0.2625
vn -0.8536 0.3825 0.3536
vn -0.8536 0.3825 -0.3536
vn 0.3536 0.3825 0.8536
vn -0.3536 0.3825 0.8536
vn -0.3536 0.3825 -0.8536
vn 0.3536 0.3825 -0.8536
vn 0.8536 0.3825 0.3536
vn 0.8536 0.3825 -0.3536
vt 0.468750 0.025000
vt 0.468750 0.047368
vt 0.468750 0.063816
vt 0.468750 0.075000
vt 0.468750 0.175000
vt 0.593750 0.475000
vt 0.593750 0.063816
vt 0.718750 0.413776
vt 0.718750 0.475000
vt 0.718750 0.275000
s 0
usemtl colormap.087
f 77/22/59 76/22/59 75/22/59
f 76/22/59 77/22/59 78/22/59
f 78/22/59 77/22/59 79/22/59
f 78/22/59 79/22/59 80/22/59
f 80/22/59 79/22/59 81/22/59
f 81/22/59 79/22/59 82/22/59
f 81/22/60 83/23/61 80/22/61
f 83/23/62 81/22/63 84/23/63
f 83/23/62 78/22/64 80/22/62
f 78/22/64 83/23/62 85/23/64
f 86/23/65 82/22/66 79/22/65
f 82/22/67 86/23/68 87/23/67
f 88/23/69 79/22/68 77/22/69
f 79/22/68 88/23/69 86/23/68
f 88/23/69 75/22/70 89/23/70
f 75/22/71 88/23/72 77/22/72
f 76/22/73 85/23/64 90/23/73
f 85/23/74 76/22/75 78/22/74
f 89/23/70 76/22/73 90/23/73
f 76/22/73 89/23/70 75/22/70
f 81/22/63 87/23/67 84/23/63
f 87/23/67 81/22/63 82/22/67
f 91/24/76 85/23/77 83/23/76
f 85/23/78 91/24/76 92/24/77
f 84/23/79 91/24/80 83/23/76
f 91/24/80 84/23/79 93/24/79
f 92/24/78 90/23/81 85/23/77
f 90/23/81 92/24/78 94/24/81
f 87/23/82 96/24/83 95/24/82
f 96/24/83 87/23/82 86/23/84
f 94/24/85 89/23/86 90/23/85
f 89/23/87 94/24/85 97/24/86
f 87/23/88 93/24/89 84/23/89
f 93/24/89 87/23/82 95/24/88
f 97/24/87 88/23/90 89/23/86
f 88/23/90 97/24/87 98/24/90
f 98/24/91 86/23/84 88/23/91
f 86/23/83 98/24/91 96/24/84
f 101/25/59 100/25/59 99/25/59
f 100/25/59 101/25/59 102/25/59
f 102/25/59 101/25/59 103/25/59
f 102/25/59 103/25/59 104/25/59
f 104/25/59 103/25/59 105/25/59
f 105/25/59 103/25/59 106/25/59
f 109/26/92 108/26/92 107/26/92
f 108/26/92 109/26/92 110/26/92
f 110/26/92 109/26/92 111/26/92
f 110/26/92 111/26/92 112/26/92
f 112/26/92 111/26/92 113/26/92
f 112/26/92 113/26/92 114/26/92
f 106/25/93 113/26/94 105/25/94
f 113/26/94 106/25/93 114/26/93
f 112/26/95 106/25/93 103/25/95
f 106/25/93 112/26/95 114/26/93
f 110/26/96 99/25/97 108/26/97
f 99/25/97 110/26/96 101/25/96
f 110/26/96 103/25/95 101/25/96
f 103/25/95 110/26/96 112/26/95
f 111/26/98 102/25/99 104/25/98
f 102/25/99 111/26/98 109/26/99
f 109/26/99 100/25/100 102/25/99
f 100/25/100 109/26/99 107/26/100
f 113/26/94 104/25/98 105/25/94
f 104/25/98 113/26/94 111/26/98
f 107/26/100 99/25/97 100/25/100
f 99/25/97 107/26/100 108/26/97
f 117/27/92 116/27/92 115/27/92
f 116/27/92 117/27/92 118/27/92
f 118/27/92 117/27/92 119/27/92
f 118/27/92 119/27/92 120/27/92
f 120/27/92 119/27/92 121/27/92
f 120/27/92 121/27/92 122/27/92
f 92/28/92 97/28/92 94/28/92
f 97/28/92 92/28/92 98/28/92
f 98/28/92 92/28/92 91/28/92
f 98/28/92 91/28/92 96/28/92
f 96/28/92 91/28/92 93/28/92
f 96/28/92 93/28/92 95/28/92
f 123/29/101 96/30/102 98/30/101
f 96/30/102 123/29/101 124/29/102
f 125/29/103 98/30/101 97/30/104
f 98/30/101 125/29/103 123/29/101
f 95/30/105 126/29/106 93/30/106
f 126/29/106 95/30/105 127/29/105
f 92/30/107 128/29/108 94/30/109
f 128/29/108 92/30/107 129/29/107
f 128/29/109 97/30/104 94/30/109
f 97/30/104 128/29/109 125/29/104
f 127/29/110 96/30/102 124/29/102
f 96/30/102 127/29/110 95/30/105
f 130/29/111 92/30/107 91/30/111
f 92/30/107 130/29/111 129/29/107
f 91/30/111 126/29/112 130/29/111
f 126/29/112 91/30/111 93/30/106
f 127/29/113 121/31/114 126/29/114
f 121/31/114 127/29/113 122/31/113
f 118/31/115 124/29/116 123/29/115
f 124/29/116 118/31/115 120/31/116
f 119/31/117 129/29/118 130/29/117
f 129/29/118 119/31/117 117/31/118
f 126/29/114 119/31/117 130/29/117
f 119/31/117 126/29/114 121/31/114
f 116/31/119 123/29/115 125/29/119
f 123/29/115 116/31/119 118/31/115
f 127/29/113 120/31/116 122/31/113
f 120/31/116 127/29/113 124/29/116
f 117/31/118 128/29/120 129/29/118
f 128/29/120 117/31/118 115/31/120
f 115/31/120 125/29/119 128/29/120
f 125/29/119 115/31/120 116/31/119
f 77/22/59 76/22/59 75/22/59
f 76/22/59 77/22/59 78/22/59
f 78/22/59 77/22/59 79/22/59
f 78/22/59 79/22/59 80/22/59
f 80/22/59 79/22/59 81/22/59
f 81/22/59 79/22/59 82/22/59
f 81/22/60 83/23/61 80/22/61
f 83/23/62 81/22/63 84/23/63
f 83/23/62 78/22/64 80/22/62
f 78/22/64 83/23/62 85/23/64
f 86/23/65 82/22/66 79/22/65
f 82/22/67 86/23/68 87/23/67
f 88/23/69 79/22/68 77/22/69
f 79/22/68 88/23/69 86/23/68
f 88/23/69 75/22/70 89/23/70
f 75/22/71 88/23/72 77/22/72
f 76/22/73 85/23/64 90/23/73
f 85/23/74 76/22/75 78/22/74
f 89/23/70 76/22/73 90/23/73
f 76/22/73 89/23/70 75/22/70
f 81/22/63 87/23/67 84/23/63
f 87/23/67 81/22/63 82/22/67
f 91/24/76 85/23/77 83/23/76
f 85/23/78 91/24/76 92/24/77
f 84/23/79 91/24/80 83/23/76
f 91/24/80 84/23/79 93/24/79
f 92/24/78 90/23/81 85/23/77
f 90/23/81 92/24/78 94/24/81
f 87/23/82 96/24/83 95/24/82
f 96/24/83 87/23/82 86/23/84
f 94/24/85 89/23/86 90/23/85
f 89/23/87 94/24/85 97/24/86
f 87/23/88 93/24/89 84/23/89
f 93/24/89 87/23/82 95/24/88
f 97/24/87 88/23/90 89/23/86
f 88/23/90 97/24/87 98/24/90
f 98/24/91 86/23/84 88/23/91
f 86/23/83 98/24/91 96/24/84
f 101/25/59 100/25/59 99/25/59
f 100/25/59 101/25/59 102/25/59
f 102/25/59 101/25/59 103/25/59
f 102/25/59 103/25/59 104/25/59
f 104/25/59 103/25/59 105/25/59
f 105/25/59 103/25/59 106/25/59
f 109/26/92 108/26/92 107/26/92
f 108/26/92 109/26/92 110/26/92
f 110/26/92 109/26/92 111/26/92
f 110/26/92 111/26/92 112/26/92
f 112/26/92 111/26/92 113/26/92
f 112/26/92 113/26/92 114/26/92
f 106/25/93 113/26/94 105/25/94
f 113/26/94 106/25/93 114/26/93
f 112/26/95 106/25/93 103/25/95
f 106/25/93 112/26/95 114/26/93
f 110/26/96 99/25/97 108/26/97
f 99/25/97 110/26/96 101/25/96
f 110/26/96 103/25/95 101/25/96
f 103/25/95 110/26/96 112/26/95
f 111/26/98 102/25/99 104/25/98
f 102/25/99 111/26/98 109/26/99
f 109/26/99 100/25/100 102/25/99
f 100/25/100 109/26/99 107/26/100
f 113/26/94 104/25/98 105/25/94
f 104/25/98 113/26/94 111/26/98
f 107/26/100 99/25/97 100/25/100
f 99/25/97 107/26/100 108/26/97
f 117/27/92 116/27/92 115/27/92
f 116/27/92 117/27/92 118/27/92
f 118/27/92 117/27/92 119/27/92
f 118/27/92 119/27/92 120/27/92
f 120/27/92 119/27/92 121/27/92
f 120/27/92 121/27/92 122/27/92
f 92/28/92 97/28/92 94/28/92
f 97/28/92 92/28/92 98/28/92
f 98/28/92 92/28/92 91/28/92
f 98/28/92 91/28/92 96/28/92
f 96/28/92 91/28/92 93/28/92
f 96/28/92 93/28/92 95/28/92
f 123/29/101 96/30/102 98/30/101
f 96/30/102 123/29/101 124/29/102
f 125/29/103 98/30/101 97/30/104
f 98/30/101 125/29/103 123/29/101
f 95/30/105 126/29/106 93/30/106
f 126/29/106 95/30/105 127/29/105
f 92/30/107 128/29/108 94/30/109
f 128/29/108 92/30/107 129/29/107
f 128/29/109 97/30/104 94/30/109
f 97/30/104 128/29/109 125/29/104
f 127/29/110 96/30/102 124/29/102
f 96/30/102 127/29/110 95/30/105
f 130/29/111 92/30/107 91/30/111
f 92/30/107 130/29/111 129/29/107
f 91/30/111 126/29/112 130/29/111
f 126/29/112 91/30/111 93/30/106
f 127/29/113 121/31/114 126/29/114
f 121/31/114 127/29/113 122/31/113
f 118/31/115 124/29/116 123/29/115
f 124/29/116 118/31/115 120/31/116
f 119/31/117 129/29/118 130/29/117
f 129/29/118 119/31/117 117/31/118
f 126/29/114 119/31/117 130/29/117
f 119/31/117 126/29/114 121/31/114
f 116/31/119 123/29/115 125/29/119
f 123/29/115 116/31/119 118/31/115
f 127/29/113 120/31/116 122/31/113
f 120/31/116 127/29/113 124/29/116
f 117/31/118 128/29/120 129/29/118
f 128/29/120 117/31/118 115/31/120
f 115/31/120 125/29/119 128/29/120
f 125/29/119 115/31/120 116/31/119
