# Blender 4.5.9 LTS
# www.blender.org
mtllib palm-detailed-bend.mtl
o BézierCurve
v -0.188989 0.006171 0.000044
v -0.233429 0.253687 0.000044
v -0.118993 0.001776 0.169362
v -0.118993 0.001776 -0.169274
v 0.049992 -0.008834 -0.239408
v -0.145934 0.248194 -0.211603
v 0.065298 0.234931 -0.299270
v -0.097432 1.020673 -0.211603
v -0.039880 1.261786 -0.169274
v -0.184927 1.026166 0.000044
v 0.113799 1.007410 -0.299270
v 0.325031 0.994148 -0.211603
v 0.129105 1.251176 -0.239407
v 0.276529 0.221669 -0.211603
v 0.218977 -0.019444 -0.169274
v 0.364024 0.216175 0.000044
v 0.412525 0.988654 0.000044
v 0.368085 1.236171 0.000044
v 0.298090 1.240565 0.169362
v 0.325031 0.994148 0.211691
v 0.298090 1.240566 -0.169274
v 0.113799 1.007410 0.299358
v 0.276529 0.221669 0.211691
v 0.065298 0.234931 0.299358
v 0.049992 -0.008834 0.239495
v -0.145934 0.248194 0.211691
v -0.097432 1.020673 0.211691
v 0.129105 1.251176 0.239496
v -0.039880 1.261786 0.169362
v -0.109876 1.266180 0.000044
v 0.218977 -0.019444 0.169362
v 0.288973 -0.023839 0.000044
v -0.135154 1.140291 0.000044
v -0.170933 1.389207 0.000044
v -0.065354 1.133457 0.169362
v -0.065354 1.133457 -0.169274
v 0.103158 1.116959 -0.239407
v -0.083683 1.380665 -0.211603
v 0.126957 1.360042 -0.299270
v -0.008265 2.150982 -0.211603
v 0.057663 2.389941 -0.169274
v -0.095514 2.159524 0.000044
v 0.202376 2.130359 -0.299270
v 0.413016 2.109736 -0.211603
v 0.226175 2.373442 -0.239407
v 0.337598 1.339419 -0.211603
v 0.271670 1.100461 -0.169274
v 0.424848 1.330877 0.000044
v 0.500266 2.101194 0.000044
v 0.464487 2.350110 0.000044
v 0.394687 2.356944 0.169362
v 0.413016 2.109736 0.211691
v 0.394687 2.356944 -0.169274
v 0.202376 2.130359 0.299359
v 0.337598 1.339419 0.211691
v 0.126957 1.360042 0.299359
v 0.103158 1.116959 0.239496
v -0.083683 1.380665 0.211691
v -0.008265 2.150982 0.211691
v 0.226175 2.373442 0.239496
v 0.057663 2.389940 0.169362
v -0.012137 2.396774 0.000044
v 0.271670 1.100461 0.169362
v 0.341470 1.093627 0.000044
v -0.015378 2.276097 0.000044
v -0.035574 2.526759 0.000044
v 0.053860 2.264926 0.169362
v 0.053860 2.264926 -0.169274
v 0.221017 2.237957 -0.239407
v 0.050974 2.512795 -0.211603
v 0.259919 2.479085 -0.299270
v 0.174255 3.276915 -0.211603
v 0.254947 3.511300 -0.169273
v 0.087707 3.290878 0.000044
v 0.383200 3.243204 -0.299270
v 0.592146 3.209493 -0.211603
v 0.422103 3.484331 -0.239407
v 0.468865 2.445374 -0.211603
v 0.388173 2.210989 -0.169274
v 0.555413 2.431411 0.000044
v 0.678694 3.195530 0.000044
v 0.658498 3.446192 0.000044
v 0.589259 3.457362 0.169362
v 0.592146 3.209493 0.211692
v 0.589259 3.457363 -0.169273
v 0.383200 3.243204 0.299359
v 0.468865 2.445374 0.211692
v 0.259919 2.479085 0.299359
v 0.221017 2.237957 0.239496
v 0.050974 2.512795 0.211692
v 0.174255 3.276914 0.211692
v 0.422103 3.484331 0.239496
v 0.254947 3.511300 0.169362
v 0.185708 3.522470 0.000044
v 0.388173 2.210989 0.169362
v 0.457411 2.199818 0.000044
v 0.167435 3.403356 0.000044
v 0.162513 3.654782 0.000044
v 0.235866 3.387997 0.169362
v 0.235866 3.387997 -0.169273
v 0.401074 3.350917 -0.239407
v 0.248052 3.635583 -0.211603
v 0.454562 3.589234 -0.299270
v 0.417554 4.390795 -0.211603
v 0.512345 4.619842 -0.169273
v 0.332015 4.409994 0.000045
v 0.624064 4.344446 -0.299270
v 0.830574 4.298096 -0.211603
v 0.677553 4.582762 -0.239407
v 0.661072 3.542884 -0.211603
v 0.566281 3.313837 -0.169273
v 0.746611 3.523685 0.000044
v 0.916113 4.278897 0.000045
v 0.911192 4.530324 0.000045
v 0.842760 4.545682 0.169362
v 0.830574 4.298096 0.211692
v 0.842760 4.545682 -0.169273
v 0.624064 4.344446 0.299359
v 0.661072 3.542884 0.211692
v 0.454562 3.589233 0.299359
v 0.401074 3.350917 0.239496
v 0.248052 3.635583 0.211692
v 0.417554 4.390795 0.211692
v 0.677553 4.582762 0.239496
v 0.512345 4.619842 0.169362
v 0.443913 4.635201 0.000045
v 0.566281 3.313837 0.169362
v 0.634713 3.298478 0.000044
v 0.416461 4.523187 0.000045
v 0.431928 4.774185 0.000045
v 0.483423 4.502334 0.169362
v 0.483423 4.502334 -0.169273
v 0.645084 4.451990 -0.239407
v 0.515630 4.748119 -0.211603
v 0.717706 4.685189 -0.299270
v 0.745766 5.487114 -0.211603
v 0.858803 5.707727 -0.169273
v 0.662063 5.513181 0.000045
v 0.947841 5.424185 -0.299270
v 1.149916 5.361255 -0.211603
v 1.020463 5.657384 -0.239407
v 0.919781 4.622260 -0.211603
v 0.806744 4.401647 -0.169273
v 1.003483 4.596193 0.000045
v 1.233618 5.335189 0.000045
v 1.249085 5.586187 0.000045
v 1.182123 5.607040 0.169362
v 1.149916 5.361255 0.211692
v 1.182123 5.607040 -0.169273
v 0.947841 5.424184 0.299359
v 0.919781 4.622260 0.211692
v 0.717706 4.685189 0.299359
v 0.645084 4.451990 0.239496
v 0.515630 4.748119 0.211692
v 0.745766 5.487114 0.211692
v 1.020463 5.657384 0.239496
v 0.858803 5.707727 0.169362
v 0.791841 5.728580 0.000045
v 0.806744 4.401647 0.169362
v 0.873706 4.380794 0.000045
v 0.745340 5.642262 0.000045
v 0.798288 5.888099 0.000045
v 0.808416 5.611599 0.169363
v 0.808416 5.611599 -0.169273
v 0.960693 5.537572 -0.239407
v 0.877133 5.849771 -0.211602
v 1.067480 5.757236 -0.299270
v 1.215533 6.545875 -0.211602
v 1.360388 6.747033 -0.169273
v 1.136688 6.584204 0.000045
v 1.405880 6.453341 -0.299270
v 1.596227 6.360807 -0.211602
v 1.512666 6.673006 -0.239407
v 1.257827 5.664702 -0.211602
v 1.112971 5.463544 -0.169273
v 1.336671 5.626373 0.000045
v 1.675071 6.322478 0.000045
v 1.728019 6.568315 0.000045
v 1.664944 6.598978 0.169363
v 1.596227 6.360807 0.211692
v 1.664944 6.598978 -0.169273
v 1.405880 6.453341 0.299359
v 1.257827 5.664702 0.211692
v 1.067480 5.757236 0.299359
v 0.960693 5.537572 0.239496
v 0.877133 5.849771 0.211692
v 1.215533 6.545875 0.211692
v 1.512666 6.673006 0.239496
v 1.360388 6.747033 0.169363
v 1.297313 6.777696 0.000045
v 1.112971 5.463544 0.169363
v 1.176046 5.432881 0.000045
v 1.303345 6.641601 0.000045
v 1.381249 6.880704 0.000045
v 1.362940 6.604625 0.169363
v 1.362940 6.604625 -0.169273
v 1.506814 6.515357 -0.239407
v 1.455743 6.834484 -0.211602
v 1.635585 6.722899 -0.299270
v 1.863811 7.492174 -0.211602
v 2.028551 7.677399 -0.169273
v 1.789318 7.538394 0.000045
v 2.043654 7.380589 -0.299270
v 2.223497 7.269004 -0.211602
v 2.172425 7.588131 -0.239407
v 1.815428 6.611314 -0.211602
v 1.650688 6.426089 -0.169273
v 1.889921 6.565094 0.000045
v 2.297990 7.222785 0.000045
v 2.375894 7.461888 0.000045
v 2.316299 7.498864 0.169363
v 2.223497 7.269004 0.211692
v 2.316299 7.498864 -0.169273
v 2.043654 7.380589 0.299359
v 1.815428 6.611314 0.211692
v 1.635585 6.722899 0.299359
v 1.506814 6.515357 0.239496
v 1.455743 6.834484 0.211692
v 1.863811 7.492174 0.211692
v 2.172425 7.588131 0.239496
v 2.028551 7.677399 0.169363
v 1.968956 7.714375 0.000045
v 1.650688 6.426089 0.169363
v 1.710283 6.389113 0.000045
v 2.000319 8.062163 0.000000
v 2.098916 8.000988 -0.280129
v 2.098916 8.000988 0.280129
v 2.336950 7.853298 0.396163
v 2.336950 7.853298 -0.396162
v 2.574984 7.705608 0.280129
v 2.574984 7.705608 -0.280129
v 2.673580 7.644433 0.000000
v 1.890536 8.049896 -0.482981
v 2.300939 7.795259 -0.683038
v 1.890536 8.049896 0.482982
v 2.300939 7.795259 0.683039
v 2.711342 7.540621 0.482982
v 2.881336 7.435147 0.000000
v 1.720542 8.155371 0.000000
v 2.711342 7.540621 -0.482981
v 1.906875 7.160140 0.647521
v 1.517813 7.401536 0.457866
v 2.295936 6.918744 0.457866
v 1.356658 7.501526 0.000000
v 1.517813 7.401536 -0.457866
v 1.906875 7.160140 -0.647520
v 2.295936 6.918744 -0.457866
v 2.457091 6.818754 0.000000
v 1.923584 8.101208 -0.420586
v 1.801654 7.447623 -0.062829
v 1.705788 7.750183 -0.420586
v 1.895963 7.599621 0.040446
v 2.742640 7.593018 -0.420586
v 2.067628 8.333366 -1.357479
v 1.820653 7.935313 -2.168853
v 2.886685 7.825176 -1.357479
v 1.849833 7.982342 -1.246789
v 1.632037 7.631317 -1.962302
v 1.459568 6.896278 -2.375403
v 2.451093 7.123127 -1.962302
v 2.668889 7.474153 -1.246789
v 2.524844 7.241993 -0.420586
v 2.211183 7.193529 -0.062829
v 2.305491 7.345527 0.040446
v 2.639710 7.427124 -2.168853
v 1.869096 6.642184 -2.375403
v 1.923545 6.729939 -2.554282
v 1.514017 6.984035 -2.554282
v 1.975728 8.068854 0.481953
v 1.953030 7.353701 0.240977
v 1.757932 7.717830 0.481953
v 2.135094 7.451250 0.240977
v 1.975728 8.068854 -0.481951
v 1.323667 8.794962 0.481952
v 0.387245 8.824682 0.481952
v 1.323667 8.794962 -0.481951
v 1.199928 8.385580 0.481952
v 0.374140 8.411789 0.481952
v -0.354117 8.021593 0.240976
v 0.374141 8.411789 -0.481951
v 1.199928 8.385580 -0.481951
v 1.757932 7.717829 -0.481951
v 1.953030 7.353701 -0.240975
v 2.135094 7.451250 -0.240975
v 0.387245 8.824682 -0.481951
v -0.354117 8.021593 -0.240976
v -0.451666 8.203657 -0.240976
v -0.451666 8.203657 0.240976
v 2.742640 7.593018 0.420587
v 2.211183 7.193529 0.062830
v 2.524844 7.241993 0.420587
v 2.305491 7.345527 -0.040445
v 1.923584 8.101208 0.420587
v 2.886685 7.825176 1.357480
v 2.639710 7.427124 2.168854
v 2.067628 8.333366 1.357480
v 2.668889 7.474153 1.246790
v 2.451093 7.123127 1.962303
v 1.869097 6.642184 2.375404
v 1.632037 7.631317 1.962303
v 1.849833 7.982342 1.246790
v 1.705788 7.750183 0.420587
v 1.801654 7.447623 0.062830
v 1.895962 7.599621 -0.040445
v 1.820653 7.935313 2.168854
v 1.459568 6.896278 2.375404
v 1.514017 6.984035 2.554283
v 1.923545 6.729939 2.554283
v 2.690496 7.625371 -0.481951
v 2.059807 7.287451 -0.240975
v 2.472700 7.274346 -0.481951
v 2.066359 7.493898 -0.240975
v 2.690496 7.625371 0.481952
v 3.630646 7.363580 -0.481952
v 4.073118 6.537755 -0.481952
v 3.630646 7.363580 0.481952
v 3.318794 7.070914 -0.481952
v 3.708990 6.342657 -0.481952
v 3.682781 5.516870 -0.240976
v 3.708990 6.342657 0.481952
v 3.318794 7.070914 0.481952
v 2.472700 7.274346 0.481952
v 2.059807 7.287451 0.240977
v 2.066359 7.493898 0.240977
v 4.073118 6.537755 0.481952
v 3.682781 5.516870 0.240976
v 3.889228 5.510317 0.240976
v 3.889228 5.510317 -0.240976
v 2.178061 7.528080 0.536081
v 1.962578 7.049218 0.180452
v 1.995112 7.233219 0.536081
v 2.093922 7.144556 0.119109
v 1.691566 7.829929 -0.036449
v 1.826196 8.016483 1.092567
v 1.209226 7.936203 1.574499
v 1.339701 8.318333 0.520038
v 1.699114 7.686960 1.026820
v 1.155037 7.616165 1.451814
v 0.508040 7.310278 1.554051
v 0.668542 7.918014 0.879284
v 1.212619 7.988810 0.454291
v 1.508617 7.535068 -0.036449
v 1.719331 7.200143 -0.105813
v 1.850674 7.295480 -0.167155
v 0.722731 8.238052 1.001969
v 0.264792 7.461203 1.267786
v 0.220247 7.590934 1.374035
v 0.463495 7.440009 1.660299
v 1.691566 7.829929 0.036450
v 1.719331 7.200143 0.105814
v 1.508617 7.535068 0.036450
v 1.850674 7.295480 0.167156
v 2.178061 7.528080 -0.536080
v 1.339701 8.318333 -0.520037
v 0.722731 8.238052 -1.001968
v 1.826196 8.016483 -1.092566
v 1.212619 7.988810 -0.454290
v 0.668542 7.918014 -0.879283
v 0.264792 7.461203 -1.267785
v 1.155037 7.616165 -1.451813
v 1.699114 7.686960 -1.026819
v 1.995112 7.233219 -0.536080
v 1.962579 7.049218 -0.180451
v 2.093922 7.144556 -0.119108
v 1.209226 7.936203 -1.574497
v 0.508040 7.310278 -1.554050
v 0.463495 7.440009 -1.660298
v 0.220247 7.590934 -1.374034
v 2.116117 7.566513 -0.536080
v 1.782753 7.160792 -0.180451
v 1.933168 7.271652 -0.536080
v 1.809848 7.320811 -0.119108
v 2.602612 7.264664 0.036450
v 2.709976 7.468135 -1.092566
v 2.912028 6.879687 -1.574498
v 3.196471 7.166286 -0.520037
v 2.471161 7.207938 -1.026819
v 2.649342 6.689013 -1.451813
v 2.662587 5.973473 -1.554050
v 3.135836 6.387163 -0.879283
v 2.957656 6.906088 -0.454290
v 2.419663 6.969803 0.036450
v 2.026000 7.009868 0.105814
v 2.053095 7.169887 0.167156
v 3.398523 6.577838 -1.001968
v 2.905835 5.822548 -1.267785
v 3.041854 5.840247 -1.374034
v 2.798606 5.991172 -1.660299
v 2.602612 7.264664 -0.036449
v 2.026000 7.009868 -0.105813
v 2.419663 6.969803 -0.036449
v 2.053095 7.169887 -0.167155
v 2.116117 7.566513 0.536081
v 3.196471 7.166286 0.520038
v 3.398523 6.577838 1.001969
v 2.709976 7.468135 1.092567
v 2.957656 6.906088 0.454291
v 3.135836 6.387163 0.879284
v 2.905835 5.822548 1.267786
v 2.649342 6.689013 1.451814
v 2.471161 7.207938 1.026820
v 1.933168 7.271652 0.536081
v 1.782753 7.160792 0.180452
v 1.809848 7.320811 0.119109
v 2.912028 6.879687 1.574498
v 2.662587 5.973473 1.554051
v 2.798606 5.991172 1.660299
v 3.041854 5.840247 1.374035
vn -0.9131 -0.1639 -0.3732
vn -0.9131 -0.1639 0.3732
vn -0.3863 -0.1970 -0.9011
vn -0.3819 0.0240 -0.9239
vn -0.9221 0.0579 -0.3827
vn -0.3587 0.2438 -0.9011
vn -0.8855 0.2769 -0.3732
vn 0.3819 -0.0240 -0.9239
vn 0.3863 0.1970 -0.9011
vn 0.3587 -0.2438 -0.9011
vn 0.8855 -0.2769 -0.3732
vn 0.9221 -0.0579 -0.3827
vn 0.9131 0.1639 -0.3732
vn 0.9131 0.1639 0.3732
vn 0.9221 -0.0579 0.3827
vn 0.3863 0.1970 0.9011
vn 0.3819 -0.0240 0.9239
vn 0.3587 -0.2438 0.9011
vn -0.3863 -0.1970 0.9011
vn -0.3819 0.0240 0.9239
vn -0.9221 0.0579 0.3827
vn -0.3587 0.2438 0.9011
vn -0.8855 0.2769 0.3732
vn 0.8855 -0.2769 0.3732
vn -0.9183 -0.1320 -0.3732
vn -0.9183 -0.1320 0.3732
vn -0.3930 -0.1834 -0.9011
vn -0.3809 0.0373 -0.9239
vn -0.9195 0.0900 -0.3827
vn -0.3499 0.2562 -0.9011
vn -0.8753 0.3076 -0.3732
vn 0.3809 -0.0373 -0.9239
vn 0.3930 0.1834 -0.9011
vn 0.3499 -0.2562 -0.9011
vn 0.8753 -0.3076 -0.3732
vn 0.9195 -0.0900 -0.3827
vn 0.9183 0.1320 -0.3732
vn 0.9183 0.1320 0.3732
vn 0.9195 -0.0900 0.3827
vn 0.3930 0.1834 0.9011
vn 0.3809 -0.0373 0.9239
vn 0.3499 -0.2562 0.9011
vn -0.3930 -0.1834 0.9011
vn -0.3809 0.0373 0.9239
vn -0.9195 0.0900 0.3827
vn -0.3499 0.2562 0.9011
vn -0.8753 0.3076 0.3732
vn 0.8753 -0.3076 0.3732
vn -0.9247 -0.0745 -0.3732
vn -0.9247 -0.0745 0.3732
vn -0.4036 -0.1586 -0.9011
vn -0.3778 0.0610 -0.9239
vn -0.9121 0.1472 -0.3827
vn -0.3333 0.2775 -0.9011
vn -0.8544 0.3615 -0.3732
vn 0.3778 -0.0610 -0.9239
vn 0.4036 0.1586 -0.9011
vn 0.3333 -0.2775 -0.9011
vn 0.8544 -0.3615 -0.3732
vn 0.9121 -0.1472 -0.3827
vn 0.9247 0.0745 -0.3732
vn 0.9247 0.0745 0.3732
vn 0.9121 -0.1472 0.3827
vn 0.4036 0.1586 0.9011
vn 0.3778 -0.0610 0.9239
vn 0.3333 -0.2775 0.9011
vn -0.4036 -0.1586 0.9011
vn -0.3778 0.0610 0.9239
vn -0.9121 0.1472 0.3827
vn -0.3333 0.2775 0.9011
vn -0.8544 0.3615 0.3732
vn 0.8544 -0.3615 0.3732
vn -0.9276 -0.0182 -0.3732
vn -0.9276 -0.0182 0.3732
vn -0.4125 -0.1337 -0.9011
vn -0.3734 0.0838 -0.9239
vn -0.9015 0.2023 -0.3827
vn -0.3158 0.2972 -0.9011
vn -0.8308 0.4128 -0.3732
vn 0.3734 -0.0838 -0.9239
vn 0.4125 0.1337 -0.9011
vn 0.3158 -0.2972 -0.9011
vn 0.8308 -0.4128 -0.3732
vn 0.9015 -0.2023 -0.3827
vn 0.9276 0.0182 -0.3732
vn 0.9276 0.0182 0.3732
vn 0.9015 -0.2023 0.3827
vn 0.4125 0.1337 0.9011
vn 0.3734 -0.0838 0.9239
vn 0.3158 -0.2972 0.9011
vn -0.4125 -0.1337 0.9011
vn -0.3734 0.0838 0.9239
vn -0.9015 0.2023 0.3827
vn -0.3158 0.2972 0.9011
vn -0.8308 0.4128 0.3732
vn 0.8308 -0.4128 0.3732
vn -0.9260 0.0571 -0.3732
vn -0.9260 0.0571 0.3732
vn -0.4220 -0.0999 -0.9011
vn -0.3654 0.1138 -0.9239
vn -0.8821 0.2747 -0.3827
vn -0.2907 0.3218 -0.9011
vn -0.7947 0.4788 -0.3732
vn 0.3654 -0.1138 -0.9239
vn 0.4220 0.0999 -0.9011
vn 0.2907 -0.3218 -0.9011
vn 0.7947 -0.4788 -0.3732
vn 0.8821 -0.2747 -0.3827
vn 0.9260 -0.0571 -0.3732
vn 0.9260 -0.0571 0.3732
vn 0.8821 -0.2747 0.3827
vn 0.4220 0.0999 0.9011
vn 0.3654 -0.1138 0.9239
vn 0.2907 -0.3218 0.9011
vn -0.4220 -0.0999 0.9011
vn -0.3654 0.1138 0.9239
vn -0.8821 0.2747 0.3827
vn -0.2907 0.3218 0.9011
vn -0.7947 0.4788 0.3732
vn 0.7947 -0.4788 0.3732
vn 0.7946 -0.4788 0.3732
vn -0.9069 0.1953 -0.3732
vn -0.9069 0.1953 0.3732
vn -0.4322 -0.0354 -0.9011
vn -0.3442 0.1673 -0.9239
vn -0.8309 0.4039 -0.3827
vn -0.2391 0.3618 -0.9011
vn -0.7138 0.5926 -0.3732
vn 0.3442 -0.1673 -0.9239
vn 0.4322 0.0354 -0.9011
vn 0.2391 -0.3618 -0.9011
vn 0.7138 -0.5926 -0.3732
vn 0.8309 -0.4039 -0.3827
vn 0.9069 -0.1953 -0.3732
vn 0.9069 -0.1953 0.3732
vn 0.8309 -0.4039 0.3827
vn 0.4322 0.0354 0.9011
vn 0.3442 -0.1673 0.9239
vn 0.2391 -0.3618 0.9011
vn -0.4322 -0.0354 0.9011
vn -0.3442 0.1673 0.9239
vn -0.8309 0.4039 0.3827
vn -0.2391 0.3618 0.9011
vn -0.7138 0.5926 0.3732
vn 0.7138 -0.5926 0.3732
vn -0.8821 0.2874 -0.3732
vn -0.8821 0.2874 0.3732
vn -0.4336 0.0091 -0.9011
vn -0.3252 0.2018 -0.9239
vn -0.7850 0.4871 -0.3827
vn -0.2007 0.3844 -0.9011
vn -0.6492 0.6627 -0.3732
vn 0.3252 -0.2018 -0.9239
vn 0.4336 -0.0091 -0.9011
vn 0.2007 -0.3844 -0.9011
vn 0.6492 -0.6627 -0.3732
vn 0.7850 -0.4871 -0.3827
vn 0.8821 -0.2874 -0.3732
vn 0.8821 -0.2874 0.3732
vn 0.7850 -0.4871 0.3827
vn 0.4336 -0.0091 0.9011
vn 0.3252 -0.2018 0.9239
vn 0.2007 -0.3844 0.9011
vn -0.4336 0.0091 0.9011
vn -0.3252 0.2018 0.9239
vn -0.7850 0.4871 0.3827
vn -0.2007 0.3844 0.9011
vn -0.6492 0.6627 0.3732
vn 0.6492 -0.6627 0.3732
vn 0.5272 0.8497 -0.0000
vn 0.4294 0.8732 -0.2306
vn 0.4294 0.8732 0.2306
vn 0.5917 0.7725 0.2306
vn 0.7065 0.7013 0.0955
vn 0.3146 0.9444 -0.0955
vn 0.7065 0.7013 -0.0955
vn 0.5917 0.7725 -0.2306
vn 0.3146 0.9444 0.0955
vn -0.3480 0.1643 0.9230
vn 0.3017 -0.2388 0.9230
vn -0.8074 0.4493 -0.3823
vn -0.8074 0.4494 -0.3823
vn 0.3017 -0.2388 -0.9230
vn 0.7612 -0.5239 -0.3823
vn 0.7612 -0.5239 0.3823
vn -0.3480 0.1643 -0.9230
vn -0.8074 0.4493 0.3823
vn -0.8074 0.4494 0.3823
vn -0.5272 -0.8497 -0.0000
vn -0.8875 0.3374 0.3139
vn -0.7048 0.4373 0.5587
vn -0.8497 0.5272 -0.0000
vn 0.3811 0.6142 0.6910
vn 0.5061 0.8157 0.2800
vn 0.4566 0.7359 -0.5000
vn -0.8894 0.3640 -0.2764
vn -0.2636 -0.4249 0.8660
vn -0.4566 -0.7359 0.5000
vn -0.5006 -0.8068 -0.3140
vn 0.8497 -0.5272 -0.0000
vn -0.4566 -0.7359 -0.5000
vn 0.7048 -0.4373 0.5587
vn 0.6964 -0.6454 0.3139
vn 0.7211 -0.6352 -0.2764
vn 0.7237 -0.6806 -0.1136
vn 0.1947 0.3138 -0.9293
vn -0.9313 0.3462 -0.1136
vn 0.1712 -0.3195 0.9320
vn 0.4747 -0.2945 0.8294
vn -0.0000 -0.0000 1.0000
vn 0.9683 0.2499 -0.0000
vn 0.7440 0.6682 -0.0000
vn 0.0317 0.9995 -0.0000
vn -0.3190 0.0101 0.9477
vn 0.4723 -0.8815 -0.0000
vn -0.0317 -0.9995 -0.0000
vn -0.7673 -0.6412 -0.0000
vn -0.0000 -0.0000 -1.0000
vn -0.8815 -0.4723 -0.0000
vn 0.4747 -0.2945 -0.8294
vn 0.1712 -0.3195 -0.9320
vn 0.4723 -0.8814 -0.0000
vn -0.3190 0.0101 -0.9477
vn -0.2003 -0.1073 -0.9738
vn -0.8814 -0.4723 -0.0000
vn -0.5950 0.8037 -0.0000
vn -0.2003 -0.1073 0.9738
vn 0.6964 -0.6454 -0.3139
vn 0.7048 -0.4373 -0.5587
vn 0.3811 0.6142 -0.6910
vn 0.5061 0.8158 -0.2800
vn 0.4566 0.7359 0.5000
vn 0.5061 0.8157 -0.2800
vn 0.7211 -0.6353 0.2764
vn -0.2636 -0.4249 -0.8660
vn -0.5006 -0.8068 0.3140
vn -0.7048 0.4373 -0.5587
vn -0.8875 0.3374 -0.3139
vn -0.8894 0.3640 0.2764
vn -0.9313 0.3462 0.1136
vn 0.1947 0.3138 0.9293
vn 0.7237 -0.6806 0.1136
vn -0.3623 0.0115 -0.9320
vn -0.4747 0.2945 -0.8294
vn -0.2061 0.9785 -0.0000
vn 0.2683 0.9633 -0.0000
vn 0.8815 0.4723 -0.0000
vn 0.1507 -0.2813 -0.9477
vn -0.9995 0.0317 -0.0000
vn -0.2338 -0.9723 -0.0000
vn -0.4747 0.2945 0.8294
vn -0.3623 0.0115 0.9320
vn 0.1507 -0.2813 0.9477
vn -0.0072 -0.2271 0.9738
vn 0.9844 -0.1762 -0.0000
vn -0.0072 -0.2271 -0.9738
vn 0.6530 -0.6185 0.4371
vn 0.8340 -0.5175 0.1914
vn 0.6008 -0.3728 0.7071
vn 0.7963 0.3566 -0.4886
vn 0.6744 0.7114 -0.1980
vn 0.1562 0.9223 0.3536
vn 0.3192 -0.3859 0.8656
vn 0.2567 -0.7477 -0.6124
vn -0.1562 -0.9223 -0.3536
vn -0.6892 -0.6897 0.2220
vn -0.6008 0.3728 -0.7071
vn -0.7570 -0.5495 0.3536
vn -0.1627 0.1009 -0.9815
vn -0.4669 0.0764 -0.8810
vn -0.8196 0.3207 -0.4747
vn -0.7571 0.2382 -0.6083
vn -0.3637 0.6602 0.6571
vn 0.4131 -0.4879 0.7689
vn -0.4669 0.0764 0.8810
vn -0.1627 0.1009 0.9815
vn -0.6008 0.3728 0.7071
vn 0.7963 0.3566 0.4886
vn 0.6744 0.7114 0.1980
vn 0.1562 0.9223 -0.3536
vn -0.8196 0.3207 0.4747
vn 0.2567 -0.7477 0.6124
vn -0.1562 -0.9223 0.3536
vn -0.6892 -0.6897 -0.2220
vn 0.6008 -0.3728 -0.7071
vn -0.7570 -0.5495 -0.3536
vn 0.8340 -0.5175 -0.1914
vn 0.6531 -0.6185 -0.4371
vn 0.3192 -0.3859 -0.8656
vn 0.4131 -0.4879 -0.7689
vn -0.3637 0.6602 -0.6571
vn -0.7571 0.2382 0.6083
vn -0.8441 0.3105 -0.4371
vn -0.8340 0.5175 -0.1914
vn -0.0341 0.8718 0.4886
vn 0.3379 0.9201 0.1980
vn 0.7570 0.5495 -0.3536
vn -0.6009 0.3728 -0.7071
vn -0.4875 0.1147 -0.8656
vn -0.7840 -0.1020 0.6124
vn -0.3119 -0.9238 -0.2220
vn 0.6009 -0.3728 0.7071
vn 0.1627 -0.1009 0.9815
vn 0.2759 -0.3844 0.8810
vn 0.6514 -0.5920 0.4747
vn 0.5496 -0.5726 0.6083
vn 0.7531 -0.0327 -0.6571
vn -0.6206 0.1535 -0.7689
vn 0.2758 -0.3844 -0.8810
vn 0.1627 -0.1009 -0.9815
vn -0.0341 0.8718 -0.4886
vn 0.3379 0.9201 -0.1980
vn 0.7570 0.5495 0.3536
vn 0.6514 -0.5920 -0.4747
vn -0.7840 -0.1020 -0.6124
vn -0.3119 -0.9238 0.2220
vn -0.6009 0.3728 0.7071
vn -0.8340 0.5175 0.1914
vn -0.8441 0.3105 0.4371
vn -0.4875 0.1147 0.8656
vn -0.6206 0.1535 0.7689
vn 0.7531 -0.0327 0.6571
vn 0.5496 -0.5726 -0.6083
vt 0.718750 0.075000
vt 0.718750 0.094346
vt 0.718750 0.155654
vt 0.718750 0.175000
vt 0.218750 0.475000
vt 0.218750 0.458254
vt 0.218750 0.275000
vt 0.218750 0.382377
vt 0.218750 0.439557
vt 0.218750 0.359172
vt 0.218750 0.385967
vt 0.218750 0.414230
vt 0.218750 0.367820
vt 0.218750 0.421410
vt 0.218750 0.288397
vt 0.218750 0.312049
vt 0.218750 0.289177
vt 0.218750 0.321331
vt 0.218750 0.310613
vt 0.218750 0.299308
vt 0.218750 0.317872
vt 0.218750 0.296436
vt 0.218750 0.355000
vt 0.218750 0.349641
s 0
usemtl colormap
f 1/1/1 2/2/1 4/1/1
f 1/1/2 3/1/2 2/2/2
f 4/1/3 6/2/3 5/1/3
f 6/2/1 4/1/1 2/2/1
f 7/2/3 5/1/3 6/2/3
f 6/2/4 8/3/4 7/2/4
f 6/2/5 2/2/5 8/3/5
f 8/3/6 9/4/6 11/3/6
f 8/3/7 10/3/7 9/4/7
f 10/3/5 8/3/5 2/2/5
f 11/3/4 7/2/4 8/3/4
f 12/3/8 14/2/8 11/3/8
f 11/3/9 13/4/9 12/3/9
f 13/4/6 11/3/6 9/4/6
f 7/2/8 11/3/8 14/2/8
f 14/2/10 15/1/10 7/2/10
f 14/2/11 16/2/11 15/1/11
f 16/2/12 14/2/12 17/3/12
f 12/3/12 17/3/12 14/2/12
f 18/4/13 17/3/13 21/4/13
f 18/4/14 19/4/14 17/3/14
f 20/3/14 17/3/14 19/4/14
f 17/3/15 20/3/15 16/2/15
f 12/3/13 21/4/13 17/3/13
f 21/4/9 12/3/9 13/4/9
f 20/3/16 19/4/16 22/3/16
f 22/3/17 24/2/17 20/3/17
f 23/2/15 16/2/15 20/3/15
f 23/2/17 20/3/17 24/2/17
f 24/2/18 25/1/18 23/2/18
f 25/1/19 24/2/19 3/1/19
f 26/2/19 3/1/19 24/2/19
f 24/2/20 22/3/20 26/2/20
f 26/2/2 2/2/2 3/1/2
f 2/2/21 26/2/21 10/3/21
f 27/3/20 26/2/20 22/3/20
f 27/3/21 10/3/21 26/2/21
f 22/3/22 28/4/22 27/3/22
f 29/4/22 27/3/22 28/4/22
f 29/4/23 30/4/23 27/3/23
f 10/3/23 27/3/23 30/4/23
f 30/4/7 9/4/7 10/3/7
f 28/4/16 22/3/16 19/4/16
f 31/1/18 23/2/18 25/1/18
f 31/1/24 32/1/24 23/2/24
f 32/1/11 15/1/11 16/2/11
f 16/2/24 23/2/24 32/1/24
f 5/1/10 7/2/10 15/1/10
f 33/1/25 34/2/25 36/1/25
f 33/1/26 35/1/26 34/2/26
f 36/1/27 38/2/27 37/1/27
f 38/2/25 36/1/25 34/2/25
f 39/2/27 37/1/27 38/2/27
f 38/2/28 40/3/28 39/2/28
f 38/2/29 34/2/29 40/3/29
f 40/3/30 41/4/30 43/3/30
f 40/3/31 42/3/31 41/4/31
f 42/3/29 40/3/29 34/2/29
f 43/3/28 39/2/28 40/3/28
f 44/3/32 46/2/32 43/3/32
f 43/3/33 45/4/33 44/3/33
f 45/4/30 43/3/30 41/4/30
f 39/2/32 43/3/32 46/2/32
f 46/2/34 47/1/34 39/2/34
f 46/2/35 48/2/35 47/1/35
f 48/2/36 46/2/36 49/3/36
f 44/3/36 49/3/36 46/2/36
f 50/4/37 49/3/37 53/4/37
f 50/4/38 51/4/38 49/3/38
f 52/3/38 49/3/38 51/4/38
f 49/3/39 52/3/39 48/2/39
f 44/3/37 53/4/37 49/3/37
f 53/4/33 44/3/33 45/4/33
f 52/3/40 51/4/40 54/3/40
f 54/3/41 56/2/41 52/3/41
f 55/2/39 48/2/39 52/3/39
f 55/2/41 52/3/41 56/2/41
f 56/2/42 57/1/42 55/2/42
f 57/1/43 56/2/43 35/1/43
f 58/2/43 35/1/43 56/2/43
f 56/2/44 54/3/44 58/2/44
f 58/2/26 34/2/26 35/1/26
f 34/2/45 58/2/45 42/3/45
f 59/3/44 58/2/44 54/3/44
f 59/3/45 42/3/45 58/2/45
f 54/3/46 60/4/46 59/3/46
f 61/4/46 59/3/46 60/4/46
f 61/4/47 62/4/47 59/3/47
f 42/3/47 59/3/47 62/4/47
f 62/4/31 41/4/31 42/3/31
f 60/4/40 54/3/40 51/4/40
f 63/1/42 55/2/42 57/1/42
f 63/1/48 64/1/48 55/2/48
f 64/1/35 47/1/35 48/2/35
f 48/2/48 55/2/48 64/1/48
f 37/1/34 39/2/34 47/1/34
f 65/1/49 66/2/49 68/1/49
f 65/1/50 67/1/50 66/2/50
f 68/1/51 70/2/51 69/1/51
f 70/2/49 68/1/49 66/2/49
f 71/2/51 69/1/51 70/2/51
f 70/2/52 72/3/52 71/2/52
f 70/2/53 66/2/53 72/3/53
f 72/3/54 73/4/54 75/3/54
f 72/3/55 74/3/55 73/4/55
f 74/3/53 72/3/53 66/2/53
f 75/3/52 71/2/52 72/3/52
f 76/3/56 78/2/56 75/3/56
f 75/3/57 77/4/57 76/3/57
f 77/4/54 75/3/54 73/4/54
f 71/2/56 75/3/56 78/2/56
f 78/2/58 79/1/58 71/2/58
f 78/2/59 80/2/59 79/1/59
f 80/2/60 78/2/60 81/3/60
f 76/3/60 81/3/60 78/2/60
f 82/4/61 81/3/61 85/4/61
f 82/4/62 83/4/62 81/3/62
f 84/3/62 81/3/62 83/4/62
f 81/3/63 84/3/63 80/2/63
f 76/3/61 85/4/61 81/3/61
f 85/4/57 76/3/57 77/4/57
f 84/3/64 83/4/64 86/3/64
f 86/3/65 88/2/65 84/3/65
f 87/2/63 80/2/63 84/3/63
f 87/2/65 84/3/65 88/2/65
f 88/2/66 89/1/66 87/2/66
f 89/1/67 88/2/67 67/1/67
f 90/2/67 67/1/67 88/2/67
f 88/2/68 86/3/68 90/2/68
f 90/2/50 66/2/50 67/1/50
f 66/2/69 90/2/69 74/3/69
f 91/3/68 90/2/68 86/3/68
f 91/3/69 74/3/69 90/2/69
f 86/3/70 92/4/70 91/3/70
f 93/4/70 91/3/70 92/4/70
f 93/4/71 94/4/71 91/3/71
f 74/3/71 91/3/71 94/4/71
f 94/4/55 73/4/55 74/3/55
f 92/4/64 86/3/64 83/4/64
f 95/1/66 87/2/66 89/1/66
f 95/1/72 96/1/72 87/2/72
f 96/1/59 79/1/59 80/2/59
f 80/2/72 87/2/72 96/1/72
f 69/1/58 71/2/58 79/1/58
f 97/1/73 98/2/73 100/1/73
f 97/1/74 99/1/74 98/2/74
f 100/1/75 102/2/75 101/1/75
f 102/2/73 100/1/73 98/2/73
f 103/2/75 101/1/75 102/2/75
f 102/2/76 104/3/76 103/2/76
f 102/2/77 98/2/77 104/3/77
f 104/3/78 105/4/78 107/3/78
f 104/3/79 106/3/79 105/4/79
f 106/3/77 104/3/77 98/2/77
f 107/3/76 103/2/76 104/3/76
f 108/3/80 110/2/80 107/3/80
f 107/3/81 109/4/81 108/3/81
f 109/4/78 107/3/78 105/4/78
f 103/2/80 107/3/80 110/2/80
f 110/2/82 111/1/82 103/2/82
f 110/2/83 112/2/83 111/1/83
f 112/2/84 110/2/84 113/3/84
f 108/3/84 113/3/84 110/2/84
f 114/4/85 113/3/85 117/4/85
f 114/4/86 115/4/86 113/3/86
f 116/3/86 113/3/86 115/4/86
f 113/3/87 116/3/87 112/2/87
f 108/3/85 117/4/85 113/3/85
f 117/4/81 108/3/81 109/4/81
f 116/3/88 115/4/88 118/3/88
f 118/3/89 120/2/89 116/3/89
f 119/2/87 112/2/87 116/3/87
f 119/2/89 116/3/89 120/2/89
f 120/2/90 121/1/90 119/2/90
f 121/1/91 120/2/91 99/1/91
f 122/2/91 99/1/91 120/2/91
f 120/2/92 118/3/92 122/2/92
f 122/2/74 98/2/74 99/1/74
f 98/2/93 122/2/93 106/3/93
f 123/3/92 122/2/92 118/3/92
f 123/3/93 106/3/93 122/2/93
f 118/3/94 124/4/94 123/3/94
f 125/4/94 123/3/94 124/4/94
f 125/4/95 126/4/95 123/3/95
f 106/3/95 123/3/95 126/4/95
f 126/4/79 105/4/79 106/3/79
f 124/4/88 118/3/88 115/4/88
f 127/1/90 119/2/90 121/1/90
f 127/1/96 128/1/96 119/2/96
f 128/1/83 111/1/83 112/2/83
f 112/2/96 119/2/96 128/1/96
f 101/1/82 103/2/82 111/1/82
f 129/1/97 130/2/97 132/1/97
f 129/1/98 131/1/98 130/2/98
f 132/1/99 134/2/99 133/1/99
f 134/2/97 132/1/97 130/2/97
f 135/2/99 133/1/99 134/2/99
f 134/2/100 136/3/100 135/2/100
f 134/2/101 130/2/101 136/3/101
f 136/3/102 137/4/102 139/3/102
f 136/3/103 138/3/103 137/4/103
f 138/3/101 136/3/101 130/2/101
f 139/3/100 135/2/100 136/3/100
f 140/3/104 142/2/104 139/3/104
f 139/3/105 141/4/105 140/3/105
f 141/4/102 139/3/102 137/4/102
f 135/2/104 139/3/104 142/2/104
f 142/2/106 143/1/106 135/2/106
f 142/2/107 144/2/107 143/1/107
f 144/2/108 142/2/108 145/3/108
f 140/3/108 145/3/108 142/2/108
f 146/4/109 145/3/109 149/4/109
f 146/4/110 147/4/110 145/3/110
f 148/3/110 145/3/110 147/4/110
f 145/3/111 148/3/111 144/2/111
f 140/3/109 149/4/109 145/3/109
f 149/4/105 140/3/105 141/4/105
f 148/3/112 147/4/112 150/3/112
f 150/3/113 152/2/113 148/3/113
f 151/2/111 144/2/111 148/3/111
f 151/2/113 148/3/113 152/2/113
f 152/2/114 153/1/114 151/2/114
f 153/1/115 152/2/115 131/1/115
f 154/2/115 131/1/115 152/2/115
f 152/2/116 150/3/116 154/2/116
f 154/2/98 130/2/98 131/1/98
f 130/2/117 154/2/117 138/3/117
f 155/3/116 154/2/116 150/3/116
f 155/3/117 138/3/117 154/2/117
f 150/3/118 156/4/118 155/3/118
f 157/4/118 155/3/118 156/4/118
f 157/4/119 158/4/119 155/3/119
f 138/3/119 155/3/119 158/4/119
f 158/4/103 137/4/103 138/3/103
f 156/4/112 150/3/112 147/4/112
f 159/1/114 151/2/114 153/1/114
f 159/1/120 160/1/120 151/2/120
f 160/1/107 143/1/107 144/2/107
f 144/2/121 151/2/121 160/1/121
f 133/1/106 135/2/106 143/1/106
f 161/1/122 162/2/122 164/1/122
f 161/1/123 163/1/123 162/2/123
f 164/1/124 166/2/124 165/1/124
f 166/2/122 164/1/122 162/2/122
f 167/2/124 165/1/124 166/2/124
f 166/2/125 168/3/125 167/2/125
f 166/2/126 162/2/126 168/3/126
f 168/3/127 169/4/127 171/3/127
f 168/3/128 170/3/128 169/4/128
f 170/3/126 168/3/126 162/2/126
f 171/3/125 167/2/125 168/3/125
f 172/3/129 174/2/129 171/3/129
f 171/3/130 173/4/130 172/3/130
f 173/4/127 171/3/127 169/4/127
f 167/2/129 171/3/129 174/2/129
f 174/2/131 175/1/131 167/2/131
f 174/2/132 176/2/132 175/1/132
f 176/2/133 174/2/133 177/3/133
f 172/3/133 177/3/133 174/2/133
f 178/4/134 177/3/134 181/4/134
f 178/4/135 179/4/135 177/3/135
f 180/3/135 177/3/135 179/4/135
f 177/3/136 180/3/136 176/2/136
f 172/3/134 181/4/134 177/3/134
f 181/4/130 172/3/130 173/4/130
f 180/3/137 179/4/137 182/3/137
f 182/3/138 184/2/138 180/3/138
f 183/2/136 176/2/136 180/3/136
f 183/2/138 180/3/138 184/2/138
f 184/2/139 185/1/139 183/2/139
f 185/1/140 184/2/140 163/1/140
f 186/2/140 163/1/140 184/2/140
f 184/2/141 182/3/141 186/2/141
f 186/2/123 162/2/123 163/1/123
f 162/2/142 186/2/142 170/3/142
f 187/3/141 186/2/141 182/3/141
f 187/3/142 170/3/142 186/2/142
f 182/3/143 188/4/143 187/3/143
f 189/4/143 187/3/143 188/4/143
f 189/4/144 190/4/144 187/3/144
f 170/3/144 187/3/144 190/4/144
f 190/4/128 169/4/128 170/3/128
f 188/4/137 182/3/137 179/4/137
f 191/1/139 183/2/139 185/1/139
f 191/1/145 192/1/145 183/2/145
f 192/1/132 175/1/132 176/2/132
f 176/2/145 183/2/145 192/1/145
f 165/1/131 167/2/131 175/1/131
f 193/1/146 194/2/146 196/1/146
f 193/1/147 195/1/147 194/2/147
f 196/1/148 198/2/148 197/1/148
f 198/2/146 196/1/146 194/2/146
f 199/2/148 197/1/148 198/2/148
f 198/2/149 200/3/149 199/2/149
f 198/2/150 194/2/150 200/3/150
f 200/3/151 201/4/151 203/3/151
f 200/3/152 202/3/152 201/4/152
f 202/3/150 200/3/150 194/2/150
f 203/3/149 199/2/149 200/3/149
f 204/3/153 206/2/153 203/3/153
f 203/3/154 205/4/154 204/3/154
f 205/4/151 203/3/151 201/4/151
f 199/2/153 203/3/153 206/2/153
f 206/2/155 207/1/155 199/2/155
f 206/2/156 208/2/156 207/1/156
f 208/2/157 206/2/157 209/3/157
f 204/3/157 209/3/157 206/2/157
f 210/4/158 209/3/158 213/4/158
f 210/4/159 211/4/159 209/3/159
f 212/3/159 209/3/159 211/4/159
f 209/3/160 212/3/160 208/2/160
f 204/3/158 213/4/158 209/3/158
f 213/4/154 204/3/154 205/4/154
f 212/3/161 211/4/161 214/3/161
f 214/3/162 216/2/162 212/3/162
f 215/2/160 208/2/160 212/3/160
f 215/2/162 212/3/162 216/2/162
f 216/2/163 217/1/163 215/2/163
f 217/1/164 216/2/164 195/1/164
f 218/2/164 195/1/164 216/2/164
f 216/2/165 214/3/165 218/2/165
f 218/2/147 194/2/147 195/1/147
f 194/2/166 218/2/166 202/3/166
f 219/3/165 218/2/165 214/3/165
f 219/3/166 202/3/166 218/2/166
f 214/3/167 220/4/167 219/3/167
f 221/4/167 219/3/167 220/4/167
f 221/4/168 222/4/168 219/3/168
f 202/3/168 219/3/168 222/4/168
f 222/4/152 201/4/152 202/3/152
f 220/4/161 214/3/161 211/4/161
f 223/1/163 215/2/163 217/1/163
f 223/1/169 224/1/169 215/2/169
f 224/1/156 207/1/156 208/2/156
f 208/2/169 215/2/169 224/1/169
f 197/1/155 199/2/155 207/1/155
usemtl colormap.006
f 225/5/170 227/5/170 226/5/170
f 228/5/170 226/5/170 227/5/170
f 229/5/170 226/5/170 228/5/170
f 230/5/170 229/5/170 228/5/170
f 231/5/170 229/5/170 230/5/170
f 232/5/170 231/5/170 230/5/170
f 233/6/171 226/5/171 234/6/171
f 229/5/171 234/6/171 226/5/171
f 235/6/172 236/6/172 227/5/172
f 228/5/172 227/5/172 236/6/172
f 236/6/173 237/6/173 228/5/173
f 230/5/173 228/5/173 237/6/173
f 230/5/174 237/6/174 232/5/174
f 238/6/174 232/5/174 237/6/174
f 239/6/175 225/5/175 233/6/175
f 226/5/175 233/6/175 225/5/175
f 231/5/176 232/5/176 240/6/176
f 238/6/176 240/6/176 232/5/176
f 234/6/177 229/5/177 240/6/177
f 231/5/177 240/6/177 229/5/177
f 239/6/178 235/6/178 225/5/178
f 227/5/178 225/5/178 235/6/178
f 241/7/179 236/6/179 242/7/179
f 235/6/179 242/7/179 236/6/179
f 243/7/180 237/6/180 241/7/180
f 236/6/180 241/7/180 237/6/180
f 239/6/181 233/6/181 244/7/181
f 245/7/182 244/7/182 233/6/182
f 246/7/183 234/6/183 247/7/183
f 240/6/183 247/7/183 234/6/183
f 248/7/184 247/7/184 238/6/184
f 240/6/184 238/6/184 247/7/184
f 237/6/185 243/7/185 238/6/185
f 248/7/185 238/6/185 243/7/185
f 245/7/186 233/6/186 246/7/186
f 234/6/186 246/7/186 233/6/186
f 235/6/187 239/6/187 242/7/187
f 244/7/188 242/7/188 239/6/188
f 244/7/189 245/7/189 242/7/189
f 241/7/189 242/7/189 245/7/189
f 246/7/189 241/7/189 245/7/189
f 247/7/189 241/7/189 246/7/189
f 243/7/189 241/7/189 247/7/189
f 248/7/189 243/7/189 247/7/189
f 252/8/190 249/9/190 250/10/190
f 249/9/191 251/11/191 250/10/191
f 249/9/192 254/5/192 251/11/192
f 249/9/193 252/8/193 253/9/193
f 249/9/194 253/9/194 254/5/194
f 255/12/192 258/13/192 254/5/192
f 254/5/195 256/5/195 255/12/195
f 256/5/194 254/5/194 253/9/194
f 257/14/192 251/11/192 254/5/192
f 258/13/192 257/14/192 254/5/192
f 255/12/196 259/7/196 258/13/196
f 258/13/197 259/7/197 260/13/197
f 260/13/198 261/14/198 258/13/198
f 257/14/198 258/13/198 261/14/198
f 262/11/199 251/11/199 261/14/199
f 262/11/200 261/14/200 253/9/200
f 256/5/200 253/9/200 261/14/200
f 260/13/200 256/5/200 261/14/200
f 257/14/199 261/14/199 251/11/199
f 263/10/201 250/10/201 262/11/201
f 262/11/202 253/9/202 263/10/202
f 251/11/201 262/11/201 250/10/201
f 263/10/203 253/9/203 264/8/203
f 263/10/197 264/8/197 250/10/197
f 264/8/193 253/9/193 252/8/193
f 252/8/197 250/10/197 264/8/197
f 265/12/200 256/5/200 260/13/200
f 260/13/204 266/7/204 265/12/204
f 266/7/197 260/13/197 259/7/197
f 266/7/205 267/15/205 265/12/205
f 267/15/201 266/7/201 268/15/201
f 259/7/201 268/15/201 266/7/201
f 268/15/206 255/12/206 267/15/206
f 255/12/207 268/15/207 259/7/207
f 265/12/206 267/15/206 255/12/206
f 265/12/195 255/12/195 256/5/195
f 272/8/208 269/9/208 270/10/208
f 269/9/209 271/11/209 270/10/209
f 269/9/210 274/5/210 271/11/210
f 269/9/211 272/8/211 273/9/211
f 269/9/212 273/9/212 274/5/212
f 275/12/210 278/13/210 274/5/210
f 274/5/213 276/5/213 275/12/213
f 276/5/212 274/5/212 273/9/212
f 277/14/210 271/11/210 274/5/210
f 278/13/210 277/14/210 274/5/210
f 275/12/214 279/7/214 278/13/214
f 278/13/215 279/7/215 280/13/215
f 280/13/216 281/14/216 278/13/216
f 277/14/216 278/13/216 281/14/216
f 282/11/217 271/11/217 281/14/217
f 282/11/218 281/14/218 273/9/218
f 276/5/218 273/9/218 281/14/218
f 280/13/218 276/5/218 281/14/218
f 277/14/217 281/14/217 271/11/217
f 283/10/219 270/10/219 282/11/219
f 282/11/220 273/9/220 283/10/220
f 271/11/219 282/11/219 270/10/219
f 283/10/221 273/9/221 284/8/221
f 283/10/215 284/8/215 270/10/215
f 284/8/211 273/9/211 272/8/211
f 272/8/222 270/10/222 284/8/222
f 285/12/218 276/5/218 280/13/218
f 280/13/223 286/7/223 285/12/223
f 286/7/215 280/13/215 279/7/215
f 286/7/224 287/15/224 285/12/224
f 287/15/219 286/7/219 288/15/219
f 279/7/225 288/15/225 286/7/225
f 288/15/226 275/12/226 287/15/226
f 275/12/227 288/15/227 279/7/227
f 285/12/226 287/15/226 275/12/226
f 285/12/213 275/12/213 276/5/213
f 292/8/228 289/9/228 290/10/228
f 289/9/229 291/11/229 290/10/229
f 289/9/200 294/5/200 291/11/200
f 289/9/230 292/8/230 293/9/230
f 289/9/231 293/9/231 294/5/231
f 295/12/200 298/13/200 294/5/200
f 294/5/232 296/5/232 295/12/232
f 296/5/233 294/5/233 293/9/233
f 297/14/200 291/11/200 294/5/200
f 298/13/200 297/14/200 294/5/200
f 295/12/234 299/7/234 298/13/234
f 298/13/235 299/7/235 300/13/235
f 300/13/201 301/14/201 298/13/201
f 297/14/201 298/13/201 301/14/201
f 302/11/236 291/11/236 301/14/236
f 302/11/192 301/14/192 293/9/192
f 296/5/192 293/9/192 301/14/192
f 300/13/192 296/5/192 301/14/192
f 297/14/236 301/14/236 291/11/236
f 303/10/198 290/10/198 302/11/198
f 302/11/237 293/9/237 303/10/237
f 291/11/198 302/11/198 290/10/198
f 303/10/238 293/9/238 304/8/238
f 303/10/235 304/8/235 290/10/235
f 304/8/230 293/9/230 292/8/230
f 292/8/235 290/10/235 304/8/235
f 305/12/192 296/5/192 300/13/192
f 300/13/239 306/7/239 305/12/239
f 306/7/235 300/13/235 299/7/235
f 306/7/240 307/15/240 305/12/240
f 307/15/198 306/7/198 308/15/198
f 299/7/198 308/15/198 306/7/198
f 308/15/241 295/12/241 307/15/241
f 295/12/242 308/15/242 299/7/242
f 305/12/241 307/15/241 295/12/241
f 305/12/232 295/12/232 296/5/232
f 312/8/243 309/9/243 310/10/243
f 309/9/244 311/11/244 310/10/244
f 309/9/218 314/5/218 311/11/218
f 309/9/245 312/8/245 313/9/245
f 309/9/246 313/9/246 314/5/246
f 315/12/218 318/13/218 314/5/218
f 314/5/247 316/5/247 315/12/247
f 316/5/246 314/5/246 313/9/246
f 317/14/218 311/11/218 314/5/218
f 318/13/218 317/14/218 314/5/218
f 315/12/248 319/7/248 318/13/248
f 318/13/249 319/7/249 320/13/249
f 320/13/219 321/14/219 318/13/219
f 317/14/219 318/13/219 321/14/219
f 322/11/250 311/11/250 321/14/250
f 322/11/210 321/14/210 313/9/210
f 316/5/210 313/9/210 321/14/210
f 320/13/210 316/5/210 321/14/210
f 317/14/250 321/14/250 311/11/250
f 323/10/216 310/10/216 322/11/216
f 322/11/251 313/9/251 323/10/251
f 311/11/216 322/11/216 310/10/216
f 323/10/252 313/9/252 324/8/252
f 323/10/249 324/8/249 310/10/249
f 324/8/245 313/9/245 312/8/245
f 312/8/249 310/10/249 324/8/249
f 325/12/210 316/5/210 320/13/210
f 320/13/253 326/7/253 325/12/253
f 326/7/249 320/13/249 319/7/249
f 326/7/254 327/15/254 325/12/254
f 327/15/216 326/7/216 328/15/216
f 319/7/216 328/15/216 326/7/216
f 328/15/255 315/12/255 327/15/255
f 315/12/256 328/15/256 319/7/256
f 325/12/255 327/15/255 315/12/255
f 325/12/247 315/12/247 316/5/247
f 332/16/257 329/17/257 330/18/257
f 329/17/258 331/19/258 330/18/258
f 329/17/259 334/7/259 331/19/259
f 329/17/260 332/16/260 333/17/260
f 329/17/261 333/17/261 334/7/261
f 335/20/259 338/21/259 334/7/259
f 334/7/262 336/7/262 335/20/262
f 336/7/261 334/7/261 333/17/261
f 337/22/259 331/19/259 334/7/259
f 338/21/259 337/22/259 334/7/259
f 335/20/263 339/23/263 338/21/263
f 338/21/264 339/23/264 340/21/264
f 340/21/265 341/22/265 338/21/265
f 337/22/265 338/21/265 341/22/265
f 342/19/266 331/19/266 341/22/266
f 342/19/267 341/22/267 333/17/267
f 336/7/267 333/17/267 341/22/267
f 340/21/267 336/7/267 341/22/267
f 337/22/266 341/22/266 331/19/266
f 343/18/268 330/18/268 342/19/268
f 342/19/269 333/17/269 343/18/269
f 331/19/268 342/19/268 330/18/268
f 343/18/270 333/17/270 344/16/270
f 343/18/264 344/16/264 330/18/264
f 344/16/260 333/17/260 332/16/260
f 332/16/264 330/18/264 344/16/264
f 345/20/267 336/7/267 340/21/267
f 340/21/271 346/23/271 345/20/271
f 346/23/264 340/21/264 339/23/264
f 346/23/272 347/24/272 345/20/272
f 347/24/268 346/23/268 348/24/268
f 339/23/268 348/24/268 346/23/268
f 348/24/273 335/20/273 347/24/273
f 335/20/274 348/24/274 339/23/274
f 345/20/273 347/24/273 335/20/273
f 345/20/262 335/20/262 336/7/262
f 352/16/275 349/17/275 350/18/275
f 349/17/276 351/19/276 350/18/276
f 349/17/277 354/7/277 351/19/277
f 349/17/278 352/16/278 353/17/278
f 349/17/279 353/17/279 354/7/279
f 355/20/277 358/21/277 354/7/277
f 354/7/280 356/7/280 355/20/280
f 356/7/279 354/7/279 353/17/279
f 357/22/277 351/19/277 354/7/277
f 358/21/277 357/22/277 354/7/277
f 355/20/281 359/23/281 358/21/281
f 358/21/282 359/23/282 360/21/282
f 360/21/283 361/22/283 358/21/283
f 357/22/283 358/21/283 361/22/283
f 362/19/284 351/19/284 361/22/284
f 362/19/285 361/22/285 353/17/285
f 356/7/285 353/17/285 361/22/285
f 360/21/285 356/7/285 361/22/285
f 357/22/284 361/22/284 351/19/284
f 363/18/286 350/18/286 362/19/286
f 362/19/287 353/17/287 363/18/287
f 351/19/286 362/19/286 350/18/286
f 363/18/288 353/17/288 364/16/288
f 363/18/282 364/16/282 350/18/282
f 364/16/278 353/17/278 352/16/278
f 352/16/282 350/18/282 364/16/282
f 365/20/285 356/7/285 360/21/285
f 360/21/289 366/23/289 365/20/289
f 366/23/282 360/21/282 359/23/282
f 366/23/290 367/24/290 365/20/290
f 367/24/286 366/23/286 368/24/286
f 359/23/286 368/24/286 366/23/286
f 368/24/291 355/20/291 367/24/291
f 355/20/292 368/24/292 359/23/292
f 365/20/291 367/24/291 355/20/291
f 365/20/280 355/20/280 356/7/280
f 372/16/293 369/17/293 370/18/293
f 369/17/294 371/19/294 370/18/294
f 369/17/267 374/7/267 371/19/267
f 369/17/295 372/16/295 373/17/295
f 369/17/296 373/17/296 374/7/296
f 375/20/267 378/21/267 374/7/267
f 374/7/297 376/7/297 375/20/297
f 376/7/296 374/7/296 373/17/296
f 377/22/298 371/19/298 374/7/298
f 378/21/298 377/22/298 374/7/298
f 375/20/299 379/23/299 378/21/299
f 378/21/300 379/23/300 380/21/300
f 380/21/268 381/22/268 378/21/268
f 377/22/268 378/21/268 381/22/268
f 382/19/301 371/19/301 381/22/301
f 382/19/259 381/22/259 373/17/259
f 376/7/302 373/17/302 381/22/302
f 380/21/259 376/7/259 381/22/259
f 377/22/301 381/22/301 371/19/301
f 383/18/265 370/18/265 382/19/265
f 382/19/303 373/17/303 383/18/303
f 371/19/265 382/19/265 370/18/265
f 383/18/304 373/17/304 384/16/304
f 383/18/300 384/16/300 370/18/300
f 384/16/295 373/17/295 372/16/295
f 372/16/300 370/18/300 384/16/300
f 385/20/259 376/7/259 380/21/259
f 380/21/305 386/23/305 385/20/305
f 386/23/300 380/21/300 379/23/300
f 386/23/306 387/24/306 385/20/306
f 387/24/265 386/23/265 388/24/265
f 379/23/265 388/24/265 386/23/265
f 388/24/307 375/20/307 387/24/307
f 375/20/308 388/24/308 379/23/308
f 385/20/307 387/24/307 375/20/307
f 385/20/297 375/20/297 376/7/297
f 392/16/309 389/17/309 390/18/309
f 389/17/310 391/19/310 390/18/310
f 389/17/285 394/7/285 391/19/285
f 389/17/311 392/16/311 393/17/311
f 389/17/312 393/17/312 394/7/312
f 395/20/285 398/21/285 394/7/285
f 394/7/313 396/7/313 395/20/313
f 396/7/312 394/7/312 393/17/312
f 397/22/285 391/19/285 394/7/285
f 398/21/285 397/22/285 394/7/285
f 395/20/314 399/23/314 398/21/314
f 398/21/315 399/23/315 400/21/315
f 400/21/286 401/22/286 398/21/286
f 397/22/286 398/21/286 401/22/286
f 402/19/316 391/19/316 401/22/316
f 402/19/277 401/22/277 393/17/277
f 396/7/277 393/17/277 401/22/277
f 400/21/317 396/7/317 401/22/317
f 397/22/316 401/22/316 391/19/316
f 403/18/283 390/18/283 402/19/283
f 402/19/318 393/17/318 403/18/318
f 391/19/283 402/19/283 390/18/283
f 403/18/319 393/17/319 404/16/319
f 403/18/315 404/16/315 390/18/315
f 404/16/311 393/17/311 392/16/311
f 392/16/315 390/18/315 404/16/315
f 405/20/277 396/7/277 400/21/277
f 400/21/320 406/23/320 405/20/320
f 406/23/315 400/21/315 399/23/315
f 406/23/321 407/24/321 405/20/321
f 407/24/283 406/23/283 408/24/283
f 399/23/283 408/24/283 406/23/283
f 408/24/322 395/20/322 407/24/322
f 395/20/323 408/24/323 399/23/323
f 405/20/322 407/24/322 395/20/322
f 405/20/313 395/20/313 396/7/313
