# Blender 4.5.9 LTS
# www.blender.org
mtllib palm-small.mtl
o BézierCurve
v -0.414038 0.199690 -0.380196
v -0.382078 0.448586 -0.363803
v -0.350623 0.163606 -0.212078
v -0.346575 0.185342 -0.549991
v -0.187754 0.128969 -0.621998
v -0.297751 0.430652 -0.576046
v -0.099224 0.360184 -0.666056
v -0.019471 1.151185 -0.526365
v 0.107333 1.360622 -0.468954
v -0.103799 1.169119 -0.314121
v 0.179055 1.080718 -0.616374
v 0.375486 0.998996 -0.531424
v 0.266155 1.304249 -0.540962
v 0.097207 0.278463 -0.581105
v -0.030610 0.063591 -0.554038
v 0.176475 0.233358 -0.370957
v 0.454755 0.953892 -0.321276
v 0.486714 1.202788 -0.304883
v 0.419252 1.217135 -0.135088
v 0.370427 0.971826 -0.109032
v 0.423299 1.238871 -0.473001
v 0.171901 1.042293 -0.019023
v 0.092148 0.251292 -0.158714
v -0.106379 0.321760 -0.068704
v -0.193478 0.098229 -0.144117
v -0.302810 0.403481 -0.153655
v -0.024530 1.124015 -0.103973
v 0.260431 1.273509 -0.063080
v 0.103286 1.338886 -0.131041
v 0.039871 1.374970 -0.299159
v -0.034657 0.041855 -0.216125
v 0.032805 0.027508 -0.385920
v 0.029389 1.234605 -0.311261
v 0.041284 1.485126 -0.292904
v 0.094855 1.202418 -0.143138
v 0.098420 1.226997 -0.480862
v 0.261509 1.184050 -0.552589
v 0.127572 1.475616 -0.504904
v 0.331433 1.421933 -0.594563
v 0.347161 2.215684 -0.448726
v 0.456598 2.434140 -0.389228
v 0.260873 2.225194 -0.236726
v 0.551023 2.162001 -0.538385
v 0.753039 2.095592 -0.453182
v 0.619687 2.391194 -0.460955
v 0.533449 1.355524 -0.509360
v 0.423122 1.130923 -0.484426
v 0.615281 1.315291 -0.299205
v 0.834870 2.055359 -0.243027
v 0.846765 2.305880 -0.224669
v 0.777735 2.313488 -0.055069
v 0.748583 2.064869 -0.031027
v 0.781299 2.338067 -0.392793
v 0.544721 2.118552 0.058632
v 0.528993 1.324801 -0.087205
v 0.325132 1.378484 0.002454
v 0.256468 1.149291 -0.074975
v 0.123116 1.444893 -0.082749
v 0.342705 2.184961 -0.026571
v 0.614646 2.356435 0.016658
v 0.453033 2.409562 -0.051505
v 0.387567 2.441748 -0.219628
v 0.419557 1.106345 -0.146703
v 0.488587 1.098737 -0.316303
v 0.299080 2.320931 -0.223742
v 0.290830 2.571460 -0.203576
v 0.366284 2.292849 -0.055568
v 0.369128 2.320111 -0.393093
v 0.535396 2.290870 -0.464418
v 0.378391 2.570435 -0.415265
v 0.586225 2.533883 -0.504422
v 0.537872 3.325259 -0.352953
v 0.629263 3.551323 -0.291455
v 0.450312 3.326284 -0.141264
v 0.745706 3.288707 -0.442110
v 0.952068 3.238040 -0.356508
v 0.795530 3.522082 -0.362780
v 0.792587 2.483216 -0.418820
v 0.700485 2.250336 -0.395937
v 0.876592 2.448113 -0.208603
v 1.036074 3.202937 -0.146291
v 1.027824 3.453466 -0.126125
v 0.957776 3.454286 0.043226
v 0.948513 3.203962 0.065398
v 0.960619 3.481548 -0.294299
v 0.740679 3.240514 0.154555
v 0.789032 2.449138 0.003086
v 0.581198 2.485690 0.092243
v 0.531374 2.252315 0.012913
v 0.374836 2.536357 0.006641
v 0.534317 3.291181 0.068953
v 0.791508 3.483527 0.114551
v 0.626419 3.524061 0.046070
v 0.559214 3.552143 -0.122103
v 0.697641 2.223073 -0.058412
v 0.767690 2.222254 -0.227764
v 1.057511 3.448711 -0.439141
v 0.747112 3.092885 -0.314078
v 1.002441 3.188066 -0.460657
v 0.705578 3.219515 -0.304200
v 1.052274 3.398506 0.182434
v 1.687050 3.496200 -0.430001
v 2.138258 3.092473 -0.458809
v 1.681813 3.445994 0.191574
v 1.561906 3.250311 -0.450916
v 1.959805 2.894283 -0.476320
v 2.124634 2.375212 -0.360439
v 1.954568 2.844077 0.145255
v 1.556669 3.200106 0.170659
v 0.997204 3.137861 0.160918
v 0.744494 3.067782 -0.003290
v 0.702959 3.194412 0.006588
v 2.133021 3.042267 0.162767
v 2.122015 2.350109 -0.049651
v 2.249025 2.391424 -0.045244
v 2.251643 2.416527 -0.356032
v 0.538805 3.537081 -0.123536
v 0.613784 3.536204 -0.304809
v 0.610740 3.507022 0.056475
v 0.787450 3.463635 0.129777
v 0.791755 3.504904 -0.381155
v 0.965421 3.432335 0.053431
v 0.968466 3.461517 -0.307853
v 1.040401 3.431458 -0.127841
v 0.477361 3.530715 -0.438074
v 0.784208 3.476750 -0.569705
v 0.472113 3.480403 0.184829
v 0.776786 3.405597 0.311212
v 1.083633 3.351632 0.179581
v 1.212907 3.350119 -0.132958
v 0.348087 3.532228 -0.125535
v 1.088882 3.401945 -0.443322
v 0.677339 2.935855 0.249378
v 0.388509 3.006770 0.129567
v 0.968231 2.884696 0.124591
v 0.270933 3.055901 -0.164659
v 0.393485 3.054467 -0.460945
v 0.684376 3.003308 -0.585732
v 0.973206 2.932392 -0.465921
v 1.090783 2.883261 -0.171695
v 0.485809 3.565831 -0.394665
v 0.553815 3.124106 -0.197549
v 0.430739 3.305186 -0.416182
v 0.577099 3.231589 -0.121635
v 1.096026 3.437335 -0.399903
v 0.527321 3.787014 -0.984592
v 0.469282 3.533710 -1.532208
v 1.137538 3.658517 -0.989830
v 0.471650 3.520604 -0.934730
v 0.420468 3.297226 -1.417647
v 0.479883 2.835169 -1.722613
v 1.030685 3.168730 -1.422884
v 1.081867 3.392107 -0.939967
v 1.040956 3.176690 -0.421419
v 0.858923 3.059858 -0.200168
v 0.882208 3.167341 -0.124254
v 1.079499 3.405213 -1.537445
v 0.784991 2.770921 -1.725232
v 0.799731 2.845399 -1.835203
v 0.494622 2.909647 -1.832584
v 0.519754 3.510641 0.187005
v 0.664943 3.084534 -0.002608
v 0.464684 3.249996 0.165488
v 0.754169 3.183629 0.006148
v 0.524991 3.560847 -0.434570
v -0.036943 3.807921 0.206326
v -0.613046 3.620519 0.186335
v -0.031705 3.858126 -0.415249
v -0.021938 3.532520 0.184208
v -0.529977 3.367259 0.166579
v -0.885572 2.983431 -0.023838
v -0.524739 3.417464 -0.454996
v -0.016700 3.582726 -0.437367
v 0.469921 3.300202 -0.456087
v 0.667561 3.109636 -0.313395
v 0.756788 3.208731 -0.304639
v -0.607808 3.670724 -0.435240
v -0.882954 3.008533 -0.334626
v -0.982429 3.097540 -0.328275
v -0.985047 3.072438 -0.017487
v 1.091456 3.393522 0.142529
v 0.858240 3.053313 -0.119136
v 1.036386 3.132877 0.121013
v 0.882647 3.171554 -0.176417
v 0.481238 3.522018 0.147767
v 1.122787 3.517107 0.760918
v 1.055931 3.179282 1.259734
v 0.512570 3.645604 0.766155
v 1.068319 3.262228 0.668022
v 1.009361 2.964315 1.107906
v 0.759179 2.523473 1.338336
v 0.399144 3.092812 1.113143
v 0.458101 3.390724 0.673259
v 0.426169 3.261373 0.126250
v 0.553132 3.117561 -0.116518
v 0.577539 3.235802 -0.173798
v 0.445713 3.307778 1.264971
v 0.454070 2.587721 1.340955
v 0.466865 2.643565 1.461684
v 0.771974 2.579317 1.459065
vn -0.9157 0.1423 -0.3758
vn -0.9246 0.0944 0.3690
vn -0.4169 -0.0136 -0.9089
vn -0.3460 0.1969 -0.9173
vn -0.8575 0.3567 -0.3708
vn -0.2581 0.3976 -0.8805
vn -0.7569 0.5535 -0.3475
vn 0.3681 -0.0783 -0.9265
vn 0.4384 0.1292 -0.8894
vn 0.2796 -0.2819 -0.9178
vn 0.7658 -0.5056 -0.3974
vn 0.8666 -0.3076 -0.3929
vn 0.9246 -0.0944 -0.3690
vn 0.9157 -0.1423 0.3758
vn 0.8575 -0.3567 0.3708
vn 0.4169 0.0136 0.9089
vn 0.3460 -0.1969 0.9173
vn 0.2581 -0.3976 0.8805
vn -0.4384 -0.1292 0.8894
vn -0.3681 0.0783 0.9265
vn -0.8666 0.3076 0.3929
vn -0.2796 0.2819 0.9178
vn -0.7658 0.5056 0.3974
vn 0.7569 -0.5535 0.3475
vn -0.9227 0.0716 -0.3788
vn -0.9306 0.0174 0.3657
vn -0.4110 -0.0399 -0.9107
vn -0.3572 0.1756 -0.9174
vn -0.8818 0.2899 -0.3719
vn -0.2857 0.3825 -0.8787
vn -0.7974 0.4939 -0.3467
vn 0.3767 -0.0415 -0.9254
vn 0.4300 0.1707 -0.8865
vn 0.3047 -0.2517 -0.9186
vn 0.8053 -0.4397 -0.3977
vn 0.8899 -0.2343 -0.3914
vn 0.9306 -0.0174 -0.3657
vn 0.9227 -0.0716 0.3788
vn 0.8818 -0.2899 0.3719
vn 0.4110 0.0399 0.9107
vn 0.3572 -0.1756 0.9174
vn 0.2857 -0.3825 0.8787
vn -0.4300 -0.1707 0.8865
vn -0.3767 0.0415 0.9254
vn -0.8899 0.2343 0.3914
vn -0.3047 0.2517 0.9186
vn -0.8053 0.4397 0.3977
vn 0.7974 -0.4939 0.3467
vn -0.9241 0.0003 -0.3822
vn -0.9303 -0.0598 0.3618
vn -0.4031 -0.0659 -0.9128
vn -0.3667 0.1532 -0.9176
vn -0.9008 0.2212 -0.3737
vn -0.3121 0.3648 -0.8772
vn -0.8331 0.4311 -0.3467
vn 0.3822 -0.0045 -0.9241
vn 0.4183 0.2110 -0.8835
vn 0.3273 -0.2197 -0.9190
vn 0.8393 -0.3710 -0.3974
vn 0.9072 -0.1596 -0.3892
vn 0.9303 0.0598 -0.3618
vn 0.9241 -0.0003 0.3822
vn 0.9008 -0.2212 0.3737
vn 0.4031 0.0659 0.9128
vn 0.3667 -0.1532 0.9176
vn 0.3121 -0.3648 0.8772
vn -0.4183 -0.2110 0.8835
vn -0.3822 0.0045 0.9241
vn -0.9072 0.1596 0.3892
vn -0.3273 0.2197 0.9190
vn -0.8393 0.3710 0.3974
vn 0.4032 0.0659 0.9128
vn 0.8331 -0.4311 0.3467
vn -0.5397 0.1819 -0.8220
vn -0.3367 -0.0370 -0.9409
vn 0.0084 0.0805 -0.9967
vn -0.5273 0.8473 0.0640
vn -0.0761 0.9939 0.0796
vn 0.6677 0.7415 0.0655
vn 0.2455 -0.1363 -0.9598
vn -0.9504 -0.3092 -0.0330
vn -0.6677 -0.7415 -0.0655
vn -0.0084 -0.0805 0.9967
vn 0.1116 -0.9906 -0.0791
vn -0.5536 0.0483 0.8314
vn 0.3108 -0.9476 -0.0739
vn -0.3523 -0.1871 0.9170
vn 0.2296 -0.2889 0.9294
vn 0.0624 -0.2937 0.9538
vn 0.0788 -0.1369 -0.9874
vn 0.9854 0.1686 0.0219
vn 0.2061 0.9752 0.0805
vn 0.2060 0.9752 0.0805
vn 0.1080 0.9826 -0.1510
vn 0.1041 0.9455 0.3086
vn 0.2910 0.9061 0.3070
vn 0.4243 0.8892 0.1712
vn -0.0253 0.9996 -0.0153
vn 0.4259 0.9045 -0.0192
vn 0.2949 0.9433 -0.1526
vn -0.0269 0.9842 0.1751
vn -0.3909 -0.0383 0.9196
vn 0.3573 -0.1959 0.9132
vn -0.9090 0.1782 -0.3768
vn 0.3728 -0.0472 -0.9267
vn 0.8973 -0.2022 -0.3923
vn 0.8909 -0.2637 0.3698
vn -0.3754 0.1103 -0.9203
vn -0.9154 0.1166 0.3853
vn -0.2060 -0.9752 -0.0805
vn -0.2061 -0.9752 -0.0805
vn -0.8163 0.1259 0.5638
vn -0.9519 -0.0100 0.3061
vn -0.9785 0.2060 0.0084
vn 0.1431 0.6493 0.7470
vn 0.1955 0.9137 0.3563
vn 0.1826 0.8848 -0.4286
vn -0.9579 0.0619 -0.2804
vn -0.1103 -0.5573 0.8229
vn -0.1826 -0.8848 0.4286
vn 0.9785 -0.2060 -0.0084
vn -0.1930 -0.9006 -0.3894
vn 0.8069 -0.2159 0.5499
vn -0.1742 -0.8043 -0.5681
vn 0.8720 -0.3940 0.2904
vn 0.8968 -0.3287 -0.2963
vn 0.9133 -0.3834 -0.1373
vn -0.9925 0.0179 -0.1209
vn 0.0839 0.4349 -0.8965
vn 0.5397 -0.1819 0.8220
vn 0.2620 -0.3164 0.9117
vn 0.8251 0.5625 0.0524
vn 0.4717 0.8785 0.0749
vn -0.3108 0.9476 0.0739
vn -0.3113 -0.1750 0.9341
vn 0.7444 -0.6661 -0.0475
vn -0.5028 -0.8612 -0.0738
vn 0.5536 -0.0483 -0.8314
vn 0.2776 -0.1664 -0.9462
vn -0.2954 -0.0224 -0.9551
vn -0.1435 -0.0901 -0.9855
vn -0.1599 -0.2469 0.9558
vn -0.8333 0.5516 0.0375
vn 0.8163 -0.1259 -0.5638
vn 0.8773 -0.3435 -0.3353
vn 0.1547 0.7605 -0.6306
vn 0.2002 0.9588 -0.2018
vn 0.1742 0.8043 0.5681
vn 0.8921 -0.3732 0.2547
vn -0.0958 -0.4179 -0.9034
vn -0.1983 -0.9512 0.2365
vn -0.8069 0.2159 -0.5499
vn -0.9467 0.0406 -0.3196
vn -0.9625 0.0174 0.2706
vn -0.9944 -0.0004 0.1056
vn 0.9114 -0.4017 0.0892
vn 0.0683 0.2853 0.9560
vt 0.718750 0.075000
vt 0.718750 0.094346
vt 0.718750 0.155654
vt 0.718750 0.175000
vt 0.218750 0.439557
vt 0.218750 0.385967
vt 0.218750 0.359172
vt 0.218750 0.382377
vt 0.218750 0.475000
vt 0.218750 0.414230
vt 0.218750 0.367820
vt 0.218750 0.421410
vt 0.218750 0.275000
vt 0.218750 0.288397
vt 0.218750 0.458254
s 0
usemtl 
f 1/1/1 2/2/1 4/1/1
f 1/1/2 3/1/2 2/2/2
f 4/1/3 6/2/3 5/1/3
f 6/2/1 4/1/1 2/2/1
f 7/2/3 5/1/3 6/2/3
f 6/2/4 8/3/4 7/2/4
f 6/2/5 2/2/5 8/3/5
f 8/3/6 9/4/6 11/3/6
f 8/3/7 10/3/7 9/4/7
f 10/3/5 8/3/5 2/2/5
f 11/3/4 7/2/4 8/3/4
f 12/3/8 14/2/8 11/3/8
f 11/3/9 13/4/9 12/3/9
f 13/4/6 11/3/6 9/4/6
f 7/2/8 11/3/8 14/2/8
f 14/2/10 15/1/10 7/2/10
f 14/2/11 16/2/11 15/1/11
f 16/2/12 14/2/12 17/3/12
f 12/3/12 17/3/12 14/2/12
f 18/4/13 17/3/13 21/4/13
f 18/4/14 19/4/14 17/3/14
f 20/3/14 17/3/14 19/4/14
f 17/3/15 20/3/15 16/2/15
f 12/3/13 21/4/13 17/3/13
f 21/4/9 12/3/9 13/4/9
f 20/3/16 19/4/16 22/3/16
f 22/3/17 24/2/17 20/3/17
f 23/2/15 16/2/15 20/3/15
f 23/2/17 20/3/17 24/2/17
f 24/2/18 25/1/18 23/2/18
f 25/1/19 24/2/19 3/1/19
f 26/2/19 3/1/19 24/2/19
f 24/2/20 22/3/20 26/2/20
f 26/2/2 2/2/2 3/1/2
f 2/2/21 26/2/21 10/3/21
f 27/3/20 26/2/20 22/3/20
f 27/3/21 10/3/21 26/2/21
f 22/3/22 28/4/22 27/3/22
f 29/4/22 27/3/22 28/4/22
f 29/4/23 30/4/23 27/3/23
f 10/3/23 27/3/23 30/4/23
f 30/4/7 9/4/7 10/3/7
f 28/4/16 22/3/16 19/4/16
f 31/1/18 23/2/18 25/1/18
f 31/1/24 32/1/24 23/2/24
f 32/1/11 15/1/11 16/2/11
f 16/2/24 23/2/24 32/1/24
f 5/1/10 7/2/10 15/1/10
f 33/1/25 34/2/25 36/1/25
f 33/1/26 35/1/26 34/2/26
f 36/1/27 38/2/27 37/1/27
f 38/2/25 36/1/25 34/2/25
f 39/2/27 37/1/27 38/2/27
f 38/2/28 40/3/28 39/2/28
f 38/2/29 34/2/29 40/3/29
f 40/3/30 41/4/30 43/3/30
f 40/3/31 42/3/31 41/4/31
f 42/3/29 40/3/29 34/2/29
f 43/3/28 39/2/28 40/3/28
f 44/3/32 46/2/32 43/3/32
f 43/3/33 45/4/33 44/3/33
f 45/4/30 43/3/30 41/4/30
f 39/2/32 43/3/32 46/2/32
f 46/2/34 47/1/34 39/2/34
f 46/2/35 48/2/35 47/1/35
f 48/2/36 46/2/36 49/3/36
f 44/3/36 49/3/36 46/2/36
f 50/4/37 49/3/37 53/4/37
f 50/4/38 51/4/38 49/3/38
f 52/3/38 49/3/38 51/4/38
f 49/3/39 52/3/39 48/2/39
f 44/3/37 53/4/37 49/3/37
f 53/4/33 44/3/33 45/4/33
f 52/3/40 51/4/40 54/3/40
f 54/3/41 56/2/41 52/3/41
f 55/2/39 48/2/39 52/3/39
f 55/2/41 52/3/41 56/2/41
f 56/2/42 57/1/42 55/2/42
f 57/1/43 56/2/43 35/1/43
f 58/2/43 35/1/43 56/2/43
f 56/2/44 54/3/44 58/2/44
f 58/2/26 34/2/26 35/1/26
f 34/2/45 58/2/45 42/3/45
f 59/3/44 58/2/44 54/3/44
f 59/3/45 42/3/45 58/2/45
f 54/3/46 60/4/46 59/3/46
f 61/4/46 59/3/46 60/4/46
f 61/4/47 62/4/47 59/3/47
f 42/3/47 59/3/47 62/4/47
f 62/4/31 41/4/31 42/3/31
f 60/4/40 54/3/40 51/4/40
f 63/1/42 55/2/42 57/1/42
f 63/1/48 64/1/48 55/2/48
f 64/1/35 47/1/35 48/2/35
f 48/2/48 55/2/48 64/1/48
f 37/1/34 39/2/34 47/1/34
f 65/1/49 66/2/49 68/1/49
f 65/1/50 67/1/50 66/2/50
f 68/1/51 70/2/51 69/1/51
f 70/2/49 68/1/49 66/2/49
f 71/2/51 69/1/51 70/2/51
f 70/2/52 72/3/52 71/2/52
f 70/2/53 66/2/53 72/3/53
f 72/3/54 73/4/54 75/3/54
f 72/3/55 74/3/55 73/4/55
f 74/3/53 72/3/53 66/2/53
f 75/3/52 71/2/52 72/3/52
f 76/3/56 78/2/56 75/3/56
f 75/3/57 77/4/57 76/3/57
f 77/4/54 75/3/54 73/4/54
f 71/2/56 75/3/56 78/2/56
f 78/2/58 79/1/58 71/2/58
f 78/2/59 80/2/59 79/1/59
f 80/2/60 78/2/60 81/3/60
f 76/3/60 81/3/60 78/2/60
f 82/4/61 81/3/61 85/4/61
f 82/4/62 83/4/62 81/3/62
f 84/3/62 81/3/62 83/4/62
f 81/3/63 84/3/63 80/2/63
f 76/3/61 85/4/61 81/3/61
f 85/4/57 76/3/57 77/4/57
f 84/3/64 83/4/64 86/3/64
f 86/3/65 88/2/65 84/3/65
f 87/2/63 80/2/63 84/3/63
f 87/2/65 84/3/65 88/2/65
f 88/2/66 89/1/66 87/2/66
f 89/1/67 88/2/67 67/1/67
f 90/2/67 67/1/67 88/2/67
f 88/2/68 86/3/68 90/2/68
f 90/2/50 66/2/50 67/1/50
f 66/2/69 90/2/69 74/3/69
f 91/3/68 90/2/68 86/3/68
f 91/3/69 74/3/69 90/2/69
f 86/3/70 92/4/70 91/3/70
f 93/4/70 91/3/70 92/4/70
f 93/4/71 94/4/71 91/3/71
f 74/3/71 91/3/71 94/4/71
f 94/4/55 73/4/55 74/3/55
f 92/4/72 86/3/72 83/4/72
f 95/1/66 87/2/66 89/1/66
f 95/1/73 96/1/73 87/2/73
f 96/1/59 79/1/59 80/2/59
f 80/2/73 87/2/73 96/1/73
f 69/1/58 71/2/58 79/1/58
usemtl 
f 97/5/74 99/6/74 98/7/74
f 100/8/75 97/5/75 98/7/75
f 97/5/76 102/9/76 99/6/76
f 97/5/77 100/8/77 101/5/77
f 97/5/78 101/5/78 102/9/78
f 102/9/79 104/9/79 103/10/79
f 103/10/76 106/11/76 102/9/76
f 104/9/78 102/9/78 101/5/78
f 105/12/76 99/6/76 102/9/76
f 106/11/76 105/12/76 102/9/76
f 103/10/80 107/13/80 106/11/80
f 106/11/81 107/13/81 108/11/81
f 108/11/82 109/12/82 106/11/82
f 105/12/82 106/11/82 109/12/82
f 110/6/83 109/12/83 101/5/83
f 110/6/84 99/6/84 109/12/84
f 104/9/83 101/5/83 109/12/83
f 108/11/83 104/9/83 109/12/83
f 105/12/84 109/12/84 99/6/84
f 110/6/85 101/5/85 111/7/85
f 111/7/86 98/7/86 110/6/86
f 99/6/86 110/6/86 98/7/86
f 111/7/87 101/5/87 112/8/87
f 111/7/81 112/8/81 98/7/81
f 112/8/77 101/5/77 100/8/77
f 100/8/81 98/7/81 112/8/81
f 108/11/88 114/13/88 113/10/88
f 113/10/83 104/9/83 108/11/83
f 114/13/81 108/11/81 107/13/81
f 114/13/89 115/14/89 113/10/89
f 115/14/86 114/13/86 116/14/86
f 107/13/86 116/14/86 114/13/86
f 103/10/90 116/14/90 107/13/90
f 116/14/91 103/10/91 115/14/91
f 113/10/91 115/14/91 103/10/91
f 113/10/79 103/10/79 104/9/79
f 117/9/92 119/9/92 118/9/92
f 120/9/92 118/9/92 119/9/92
f 121/9/93 118/9/93 120/9/93
f 122/9/92 121/9/92 120/9/92
f 123/9/93 121/9/93 122/9/93
f 124/9/92 123/9/92 122/9/92
f 125/15/94 118/9/94 126/15/94
f 121/9/94 126/15/94 118/9/94
f 127/15/95 128/15/95 119/9/95
f 120/9/95 119/9/95 128/15/95
f 128/15/96 129/15/96 120/9/96
f 122/9/96 120/9/96 129/15/96
f 122/9/97 129/15/97 124/9/97
f 130/15/97 124/9/97 129/15/97
f 131/15/98 117/9/98 125/15/98
f 118/9/98 125/15/98 117/9/98
f 123/9/99 124/9/99 132/15/99
f 130/15/99 132/15/99 124/9/99
f 126/15/100 121/9/100 132/15/100
f 123/9/100 132/15/100 121/9/100
f 131/15/101 127/15/101 117/9/101
f 119/9/101 117/9/101 127/15/101
f 133/13/102 128/15/102 134/13/102
f 127/15/102 134/13/102 128/15/102
f 135/13/103 129/15/103 133/13/103
f 128/15/103 133/13/103 129/15/103
f 131/15/104 125/15/104 136/13/104
f 137/13/104 136/13/104 125/15/104
f 138/13/105 126/15/105 139/13/105
f 132/15/105 139/13/105 126/15/105
f 140/13/106 139/13/106 130/15/106
f 132/15/106 130/15/106 139/13/106
f 129/15/107 135/13/107 130/15/107
f 140/13/107 130/15/107 135/13/107
f 137/13/108 125/15/108 138/13/108
f 126/15/108 138/13/108 125/15/108
f 127/15/109 131/15/109 134/13/109
f 136/13/109 134/13/109 131/15/109
f 136/13/110 137/13/110 134/13/110
f 133/13/110 134/13/110 137/13/110
f 138/13/110 133/13/110 137/13/110
f 139/13/110 133/13/110 138/13/110
f 135/13/110 133/13/110 139/13/110
f 140/13/111 135/13/111 139/13/111
f 141/5/112 143/6/112 142/7/112
f 144/8/113 141/5/113 142/7/113
f 141/5/114 146/9/114 143/6/114
f 141/5/115 144/8/115 145/5/115
f 141/5/116 145/5/116 146/9/116
f 146/9/117 148/9/117 147/10/117
f 147/10/114 150/11/114 146/9/114
f 148/9/116 146/9/116 145/5/116
f 149/12/114 143/6/114 146/9/114
f 150/11/114 149/12/114 146/9/114
f 147/10/118 151/13/118 150/11/118
f 150/11/119 151/13/119 152/11/119
f 152/11/120 153/12/120 150/11/120
f 149/12/120 150/11/120 153/12/120
f 154/6/121 153/12/121 145/5/121
f 154/6/122 143/6/122 153/12/122
f 148/9/121 145/5/121 153/12/121
f 152/11/121 148/9/121 153/12/121
f 149/12/122 153/12/122 143/6/122
f 154/6/123 145/5/123 155/7/123
f 155/7/124 142/7/124 154/6/124
f 143/6/124 154/6/124 142/7/124
f 155/7/125 145/5/125 156/8/125
f 155/7/119 156/8/119 142/7/119
f 156/8/115 145/5/115 144/8/115
f 144/8/119 142/7/119 156/8/119
f 152/11/126 158/13/126 157/10/126
f 157/10/121 148/9/121 152/11/121
f 158/13/119 152/11/119 151/13/119
f 158/13/127 159/14/127 157/10/127
f 159/14/124 158/13/124 160/14/124
f 151/13/124 160/14/124 158/13/124
f 147/10/128 160/14/128 151/13/128
f 160/14/129 147/10/129 159/14/129
f 157/10/129 159/14/129 147/10/129
f 157/10/117 147/10/117 148/9/117
f 161/5/130 163/6/130 162/7/130
f 164/8/131 161/5/131 162/7/131
f 161/5/83 166/9/83 163/6/83
f 161/5/132 164/8/132 165/5/132
f 161/5/133 165/5/133 166/9/133
f 166/9/134 168/9/134 167/10/134
f 167/10/83 170/11/83 166/9/83
f 168/9/133 166/9/133 165/5/133
f 169/12/83 163/6/83 166/9/83
f 170/11/83 169/12/83 166/9/83
f 167/10/135 171/13/135 170/11/135
f 170/11/136 171/13/136 172/11/136
f 172/11/86 173/12/86 170/11/86
f 169/12/86 170/11/86 173/12/86
f 174/6/76 173/12/76 165/5/76
f 174/6/137 163/6/137 173/12/137
f 168/9/76 165/5/76 173/12/76
f 172/11/76 168/9/76 173/12/76
f 169/12/137 173/12/137 163/6/137
f 174/6/138 165/5/138 175/7/138
f 175/7/82 162/7/82 174/6/82
f 163/6/82 174/6/82 162/7/82
f 175/7/139 165/5/139 176/8/139
f 175/7/136 176/8/136 162/7/136
f 176/8/132 165/5/132 164/8/132
f 164/8/136 162/7/136 176/8/136
f 172/11/140 178/13/140 177/10/140
f 177/10/76 168/9/76 172/11/76
f 178/13/136 172/11/136 171/13/136
f 178/13/141 179/14/141 177/10/141
f 179/14/82 178/13/82 180/14/82
f 171/13/82 180/14/82 178/13/82
f 167/10/142 180/14/142 171/13/142
f 180/14/143 167/10/143 179/14/143
f 177/10/143 179/14/143 167/10/143
f 177/10/134 167/10/134 168/9/134
f 181/5/144 183/6/144 182/7/144
f 184/8/145 181/5/145 182/7/145
f 181/5/121 186/9/121 183/6/121
f 181/5/146 184/8/146 185/5/146
f 181/5/147 185/5/147 186/9/147
f 186/9/148 188/9/148 187/10/148
f 187/10/121 190/11/121 186/9/121
f 188/9/147 186/9/147 185/5/147
f 189/12/121 183/6/121 186/9/121
f 190/11/121 189/12/121 186/9/121
f 187/10/149 191/13/149 190/11/149
f 190/11/150 191/13/150 192/11/150
f 192/11/124 193/12/124 190/11/124
f 189/12/124 190/11/124 193/12/124
f 194/6/114 193/12/114 185/5/114
f 194/6/151 183/6/151 193/12/151
f 188/9/114 185/5/114 193/12/114
f 192/11/114 188/9/114 193/12/114
f 189/12/151 193/12/151 183/6/151
f 194/6/152 185/5/152 195/7/152
f 195/7/120 182/7/120 194/6/120
f 183/6/120 194/6/120 182/7/120
f 195/7/153 185/5/153 196/8/153
f 195/7/150 196/8/150 182/7/150
f 196/8/146 185/5/146 184/8/146
f 184/8/150 182/7/150 196/8/150
f 192/11/154 198/13/154 197/10/154
f 197/10/114 188/9/114 192/11/114
f 198/13/150 192/11/150 191/13/150
f 198/13/155 199/14/155 197/10/155
f 199/14/120 198/13/120 200/14/120
f 191/13/120 200/14/120 198/13/120
f 187/10/156 200/14/156 191/13/156
f 200/14/157 187/10/157 199/14/157
f 197/10/157 199/14/157 187/10/157
f 197/10/148 187/10/148 188/9/148
o BézierCurve
v -0.414038 0.199690 -0.380196
v -0.382078 0.448586 -0.363803
v -0.350623 0.163606 -0.212078
v -0.346575 0.185342 -0.549991
v -0.187754 0.128969 -0.621998
v -0.297751 0.430652 -0.576046
v -0.099224 0.360184 -0.666056
v -0.019471 1.151185 -0.526365
v 0.107333 1.360622 -0.468954
v -0.103799 1.169119 -0.314121
v 0.179055 1.080718 -0.616374
v 0.375486 0.998996 -0.531424
v 0.266155 1.304249 -0.540962
v 0.097207 0.278463 -0.581105
v -0.030610 0.063591 -0.554038
v 0.176475 0.233358 -0.370957
v 0.454755 0.953892 -0.321276
v 0.486714 1.202788 -0.304883
v 0.419252 1.217135 -0.135088
v 0.370427 0.971826 -0.109032
v 0.423299 1.238871 -0.473001
v 0.171901 1.042293 -0.019023
v 0.092148 0.251292 -0.158714
v -0.106379 0.321760 -0.068704
v -0.193478 0.098229 -0.144117
v -0.302810 0.403481 -0.153655
v -0.024530 1.124015 -0.103973
v 0.260431 1.273509 -0.063080
v 0.103286 1.338886 -0.131041
v 0.039871 1.374970 -0.299159
v -0.034657 0.041855 -0.216125
v 0.032805 0.027508 -0.385920
v 0.029389 1.234605 -0.311261
v 0.041284 1.485126 -0.292904
v 0.094855 1.202418 -0.143138
v 0.098420 1.226997 -0.480862
v 0.261509 1.184050 -0.552589
v 0.127572 1.475616 -0.504904
v 0.331433 1.421933 -0.594563
v 0.347161 2.215684 -0.448726
v 0.456598 2.434140 -0.389228
v 0.260873 2.225194 -0.236726
v 0.551023 2.162001 -0.538385
v 0.753039 2.095592 -0.453182
v 0.619687 2.391194 -0.460955
v 0.533449 1.355524 -0.509360
v 0.423122 1.130923 -0.484426
v 0.615281 1.315291 -0.299205
v 0.834870 2.055359 -0.243027
v 0.846765 2.305880 -0.224669
v 0.777735 2.313488 -0.055069
v 0.748583 2.064869 -0.031027
v 0.781299 2.338067 -0.392793
v 0.544721 2.118552 0.058632
v 0.528993 1.324801 -0.087205
v 0.325132 1.378484 0.002454
v 0.256468 1.149291 -0.074975
v 0.123116 1.444893 -0.082749
v 0.342705 2.184961 -0.026571
v 0.614646 2.356435 0.016658
v 0.453033 2.409562 -0.051505
v 0.387567 2.441748 -0.219628
v 0.419557 1.106345 -0.146703
v 0.488587 1.098737 -0.316303
v 0.299080 2.320931 -0.223742
v 0.290830 2.571460 -0.203576
v 0.366284 2.292849 -0.055568
v 0.369128 2.320111 -0.393093
v 0.535396 2.290870 -0.464418
v 0.378391 2.570435 -0.415265
v 0.586225 2.533883 -0.504422
v 0.537872 3.325259 -0.352953
v 0.629263 3.551323 -0.291455
v 0.450312 3.326284 -0.141264
v 0.745706 3.288707 -0.442110
v 0.952068 3.238040 -0.356508
v 0.795530 3.522082 -0.362780
v 0.792587 2.483216 -0.418820
v 0.700485 2.250336 -0.395937
v 0.876592 2.448113 -0.208603
v 1.036074 3.202937 -0.146291
v 1.027824 3.453466 -0.126125
v 0.957776 3.454286 0.043226
v 0.948513 3.203962 0.065398
v 0.960619 3.481548 -0.294299
v 0.740679 3.240514 0.154555
v 0.789032 2.449138 0.003086
v 0.581198 2.485690 0.092243
v 0.531374 2.252315 0.012913
v 0.374836 2.536357 0.006641
v 0.534317 3.291181 0.068953
v 0.791508 3.483527 0.114551
v 0.626419 3.524061 0.046070
v 0.559214 3.552143 -0.122103
v 0.697641 2.223073 -0.058412
v 0.767690 2.222254 -0.227764
v 1.057511 3.448711 -0.439141
v 0.747112 3.092885 -0.314078
v 1.002441 3.188066 -0.460657
v 0.705578 3.219515 -0.304200
v 1.052274 3.398506 0.182434
v 1.687050 3.496200 -0.430001
v 2.138258 3.092473 -0.458809
v 1.681813 3.445994 0.191574
v 1.561906 3.250311 -0.450916
v 1.959805 2.894283 -0.476320
v 2.124634 2.375212 -0.360439
v 1.954568 2.844077 0.145255
v 1.556669 3.200106 0.170659
v 0.997204 3.137861 0.160918
v 0.744494 3.067782 -0.003290
v 0.702959 3.194412 0.006588
v 2.133021 3.042267 0.162767
v 2.122015 2.350109 -0.049651
v 2.249025 2.391424 -0.045244
v 2.251643 2.416527 -0.356032
v 0.538805 3.537081 -0.123536
v 0.613784 3.536204 -0.304809
v 0.610740 3.507022 0.056475
v 0.787450 3.463635 0.129777
v 0.791755 3.504904 -0.381155
v 0.965421 3.432335 0.053431
v 0.968466 3.461517 -0.307853
v 1.040401 3.431458 -0.127841
v 0.477361 3.530715 -0.438074
v 0.784208 3.476750 -0.569705
v 0.472113 3.480403 0.184829
v 0.776786 3.405597 0.311212
v 1.083633 3.351632 0.179581
v 1.212907 3.350119 -0.132958
v 0.348087 3.532228 -0.125535
v 1.088882 3.401945 -0.443322
v 0.677339 2.935855 0.249378
v 0.388509 3.006770 0.129567
v 0.968231 2.884696 0.124591
v 0.270933 3.055901 -0.164659
v 0.393485 3.054467 -0.460945
v 0.684376 3.003308 -0.585732
v 0.973206 2.932392 -0.465921
v 1.090783 2.883261 -0.171695
v 0.485809 3.565831 -0.394665
v 0.553815 3.124106 -0.197549
v 0.430739 3.305186 -0.416182
v 0.577099 3.231589 -0.121635
v 1.096026 3.437335 -0.399903
v 0.527321 3.787014 -0.984592
v 0.469282 3.533710 -1.532208
v 1.137538 3.658517 -0.989830
v 0.471650 3.520604 -0.934730
v 0.420468 3.297226 -1.417647
v 0.479883 2.835169 -1.722613
v 1.030685 3.168730 -1.422884
v 1.081867 3.392107 -0.939967
v 1.040956 3.176690 -0.421419
v 0.858923 3.059858 -0.200168
v 0.882208 3.167341 -0.124254
v 1.079499 3.405213 -1.537445
v 0.784991 2.770921 -1.725232
v 0.799731 2.845399 -1.835203
v 0.494622 2.909647 -1.832584
v 0.519754 3.510641 0.187005
v 0.664943 3.084534 -0.002608
v 0.464684 3.249996 0.165488
v 0.754169 3.183629 0.006148
v 0.524991 3.560847 -0.434570
v -0.036943 3.807921 0.206326
v -0.613046 3.620519 0.186335
v -0.031705 3.858126 -0.415249
v -0.021938 3.532520 0.184208
v -0.529977 3.367259 0.166579
v -0.885572 2.983431 -0.023838
v -0.524739 3.417464 -0.454996
v -0.016700 3.582726 -0.437367
v 0.469921 3.300202 -0.456087
v 0.667561 3.109636 -0.313395
v 0.756788 3.208731 -0.304639
v -0.607808 3.670724 -0.435240
v -0.882954 3.008533 -0.334626
v -0.982429 3.097540 -0.328275
v -0.985047 3.072438 -0.017487
v 1.091456 3.393522 0.142529
v 0.858240 3.053313 -0.119136
v 1.036386 3.132877 0.121013
v 0.882647 3.171554 -0.176417
v 0.481238 3.522018 0.147767
v 1.122787 3.517107 0.760918
v 1.055931 3.179282 1.259734
v 0.512570 3.645604 0.766155
v 1.068319 3.262228 0.668022
v 1.009361 2.964315 1.107906
v 0.759179 2.523473 1.338336
v 0.399144 3.092812 1.113143
v 0.458101 3.390724 0.673259
v 0.426169 3.261373 0.126250
v 0.553132 3.117561 -0.116518
v 0.577539 3.235802 -0.173798
v 0.445713 3.307778 1.264971
v 0.454070 2.587721 1.340955
v 0.466865 2.643565 1.461684
v 0.771974 2.579317 1.459065
vn -0.9157 0.1423 -0.3758
vn -0.9246 0.0944 0.3690
vn -0.4169 -0.0136 -0.9089
vn -0.3460 0.1969 -0.9173
vn -0.8575 0.3567 -0.3708
vn -0.2581 0.3976 -0.8805
vn -0.7569 0.5535 -0.3475
vn 0.3681 -0.0783 -0.9265
vn 0.4384 0.1292 -0.8894
vn 0.2796 -0.2819 -0.9178
vn 0.7658 -0.5056 -0.3974
vn 0.8666 -0.3076 -0.3929
vn 0.9246 -0.0944 -0.3690
vn 0.9157 -0.1423 0.3758
vn 0.8575 -0.3567 0.3708
vn 0.4169 0.0136 0.9089
vn 0.3460 -0.1969 0.9173
vn 0.2581 -0.3976 0.8805
vn -0.4384 -0.1292 0.8894
vn -0.3681 0.0783 0.9265
vn -0.8666 0.3076 0.3929
vn -0.2796 0.2819 0.9178
vn -0.7658 0.5056 0.3974
vn 0.7569 -0.5535 0.3475
vn -0.9227 0.0716 -0.3788
vn -0.9306 0.0174 0.3657
vn -0.4110 -0.0399 -0.9107
vn -0.3572 0.1756 -0.9174
vn -0.8818 0.2899 -0.3719
vn -0.2857 0.3825 -0.8787
vn -0.7974 0.4939 -0.3467
vn 0.3767 -0.0415 -0.9254
vn 0.4300 0.1707 -0.8865
vn 0.3047 -0.2517 -0.9186
vn 0.8053 -0.4397 -0.3977
vn 0.8899 -0.2343 -0.3914
vn 0.9306 -0.0174 -0.3657
vn 0.9227 -0.0716 0.3788
vn 0.8818 -0.2899 0.3719
vn 0.4110 0.0399 0.9107
vn 0.3572 -0.1756 0.9174
vn 0.2857 -0.3825 0.8787
vn -0.4300 -0.1707 0.8865
vn -0.3767 0.0415 0.9254
vn -0.8899 0.2343 0.3914
vn -0.3047 0.2517 0.9186
vn -0.8053 0.4397 0.3977
vn 0.7974 -0.4939 0.3467
vn -0.9241 0.0003 -0.3822
vn -0.9303 -0.0598 0.3618
vn -0.4031 -0.0659 -0.9128
vn -0.3667 0.1532 -0.9176
vn -0.9008 0.2212 -0.3737
vn -0.3121 0.3648 -0.8772
vn -0.8331 0.4311 -0.3467
vn 0.3822 -0.0045 -0.9241
vn 0.4183 0.2110 -0.8835
vn 0.3273 -0.2197 -0.9190
vn 0.8393 -0.3710 -0.3974
vn 0.9072 -0.1596 -0.3892
vn 0.9303 0.0598 -0.3618
vn 0.9241 -0.0003 0.3822
vn 0.9008 -0.2212 0.3737
vn 0.4031 0.0659 0.9128
vn 0.3667 -0.1532 0.9176
vn 0.3121 -0.3648 0.8772
vn -0.4183 -0.2110 0.8835
vn -0.3822 0.0045 0.9241
vn -0.9072 0.1596 0.3892
vn -0.3273 0.2197 0.9190
vn -0.8393 0.3710 0.3974
vn 0.4032 0.0659 0.9128
vn 0.8331 -0.4311 0.3467
vn -0.5397 0.1819 -0.8220
vn -0.3367 -0.0370 -0.9409
vn 0.0084 0.0805 -0.9967
vn -0.5273 0.8473 0.0640
vn -0.0761 0.9939 0.0796
vn 0.6677 0.7415 0.0655
vn 0.2455 -0.1363 -0.9598
vn -0.9504 -0.3092 -0.0330
vn -0.6677 -0.7415 -0.0655
vn -0.0084 -0.0805 0.9967
vn 0.1116 -0.9906 -0.0791
vn -0.5536 0.0483 0.8314
vn 0.3108 -0.9476 -0.0739
vn -0.3523 -0.1871 0.9170
vn 0.2296 -0.2889 0.9294
vn 0.0624 -0.2937 0.9538
vn 0.0788 -0.1369 -0.9874
vn 0.9854 0.1686 0.0219
vn 0.2061 0.9752 0.0805
vn 0.2060 0.9752 0.0805
vn 0.1080 0.9826 -0.1510
vn 0.1041 0.9455 0.3086
vn 0.2910 0.9061 0.3070
vn 0.4243 0.8892 0.1712
vn -0.0253 0.9996 -0.0153
vn 0.4259 0.9045 -0.0192
vn 0.2949 0.9433 -0.1526
vn -0.0269 0.9842 0.1751
vn -0.3909 -0.0383 0.9196
vn 0.3573 -0.1959 0.9132
vn -0.9090 0.1782 -0.3768
vn 0.3728 -0.0472 -0.9267
vn 0.8973 -0.2022 -0.3923
vn 0.8909 -0.2637 0.3698
vn -0.3754 0.1103 -0.9203
vn -0.9154 0.1166 0.3853
vn -0.2060 -0.9752 -0.0805
vn -0.2061 -0.9752 -0.0805
vn -0.8163 0.1259 0.5638
vn -0.9519 -0.0100 0.3061
vn -0.9785 0.2060 0.0084
vn 0.1431 0.6493 0.7470
vn 0.1955 0.9137 0.3563
vn 0.1826 0.8848 -0.4286
vn -0.9579 0.0619 -0.2804
vn -0.1103 -0.5573 0.8229
vn -0.1826 -0.8848 0.4286
vn 0.9785 -0.2060 -0.0084
vn -0.1930 -0.9006 -0.3894
vn 0.8069 -0.2159 0.5499
vn -0.1742 -0.8043 -0.5681
vn 0.8720 -0.3940 0.2904
vn 0.8968 -0.3287 -0.2963
vn 0.9133 -0.3834 -0.1373
vn -0.9925 0.0179 -0.1209
vn 0.0839 0.4349 -0.8965
vn 0.5397 -0.1819 0.8220
vn 0.2620 -0.3164 0.9117
vn 0.8251 0.5625 0.0524
vn 0.4717 0.8785 0.0749
vn -0.3108 0.9476 0.0739
vn -0.3113 -0.1750 0.9341
vn 0.7444 -0.6661 -0.0475
vn -0.5028 -0.8612 -0.0738
vn 0.5536 -0.0483 -0.8314
vn 0.2776 -0.1664 -0.9462
vn -0.2954 -0.0224 -0.9551
vn -0.1435 -0.0901 -0.9855
vn -0.1599 -0.2469 0.9558
vn -0.8333 0.5516 0.0375
vn 0.8163 -0.1259 -0.5638
vn 0.8773 -0.3435 -0.3353
vn 0.1547 0.7605 -0.6306
vn 0.2002 0.9588 -0.2018
vn 0.1742 0.8043 0.5681
vn 0.8921 -0.3732 0.2547
vn -0.0958 -0.4179 -0.9034
vn -0.1983 -0.9512 0.2365
vn -0.8069 0.2159 -0.5499
vn -0.9467 0.0406 -0.3196
vn -0.9625 0.0174 0.2706
vn -0.9944 -0.0004 0.1056
vn 0.9114 -0.4017 0.0892
vn 0.0683 0.2853 0.9560
vt 0.718750 0.075000
vt 0.718750 0.094346
vt 0.718750 0.155654
vt 0.718750 0.175000
vt 0.218750 0.439557
vt 0.218750 0.385967
vt 0.218750 0.359172
vt 0.218750 0.382377
vt 0.218750 0.475000
vt 0.218750 0.414230
vt 0.218750 0.367820
vt 0.218750 0.421410
vt 0.218750 0.275000
vt 0.218750 0.288397
vt 0.218750 0.458254
s 0
usemtl colormap
f 201/16/158 202/17/158 204/16/158
f 201/16/159 203/16/159 202/17/159
f 204/16/160 206/17/160 205/16/160
f 206/17/158 204/16/158 202/17/158
f 207/17/160 205/16/160 206/17/160
f 206/17/161 208/18/161 207/17/161
f 206/17/162 202/17/162 208/18/162
f 208/18/163 209/19/163 211/18/163
f 208/18/164 210/18/164 209/19/164
f 210/18/162 208/18/162 202/17/162
f 211/18/161 207/17/161 208/18/161
f 212/18/165 214/17/165 211/18/165
f 211/18/166 213/19/166 212/18/166
f 213/19/163 211/18/163 209/19/163
f 207/17/165 211/18/165 214/17/165
f 214/17/167 215/16/167 207/17/167
f 214/17/168 216/17/168 215/16/168
f 216/17/169 214/17/169 217/18/169
f 212/18/169 217/18/169 214/17/169
f 218/19/170 217/18/170 221/19/170
f 218/19/171 219/19/171 217/18/171
f 220/18/171 217/18/171 219/19/171
f 217/18/172 220/18/172 216/17/172
f 212/18/170 221/19/170 217/18/170
f 221/19/166 212/18/166 213/19/166
f 220/18/173 219/19/173 222/18/173
f 222/18/174 224/17/174 220/18/174
f 223/17/172 216/17/172 220/18/172
f 223/17/174 220/18/174 224/17/174
f 224/17/175 225/16/175 223/17/175
f 225/16/176 224/17/176 203/16/176
f 226/17/176 203/16/176 224/17/176
f 224/17/177 222/18/177 226/17/177
f 226/17/159 202/17/159 203/16/159
f 202/17/178 226/17/178 210/18/178
f 227/18/177 226/17/177 222/18/177
f 227/18/178 210/18/178 226/17/178
f 222/18/179 228/19/179 227/18/179
f 229/19/179 227/18/179 228/19/179
f 229/19/180 230/19/180 227/18/180
f 210/18/180 227/18/180 230/19/180
f 230/19/164 209/19/164 210/18/164
f 228/19/173 222/18/173 219/19/173
f 231/16/175 223/17/175 225/16/175
f 231/16/181 232/16/181 223/17/181
f 232/16/168 215/16/168 216/17/168
f 216/17/181 223/17/181 232/16/181
f 205/16/167 207/17/167 215/16/167
f 233/16/182 234/17/182 236/16/182
f 233/16/183 235/16/183 234/17/183
f 236/16/184 238/17/184 237/16/184
f 238/17/182 236/16/182 234/17/182
f 239/17/184 237/16/184 238/17/184
f 238/17/185 240/18/185 239/17/185
f 238/17/186 234/17/186 240/18/186
f 240/18/187 241/19/187 243/18/187
f 240/18/188 242/18/188 241/19/188
f 242/18/186 240/18/186 234/17/186
f 243/18/185 239/17/185 240/18/185
f 244/18/189 246/17/189 243/18/189
f 243/18/190 245/19/190 244/18/190
f 245/19/187 243/18/187 241/19/187
f 239/17/189 243/18/189 246/17/189
f 246/17/191 247/16/191 239/17/191
f 246/17/192 248/17/192 247/16/192
f 248/17/193 246/17/193 249/18/193
f 244/18/193 249/18/193 246/17/193
f 250/19/194 249/18/194 253/19/194
f 250/19/195 251/19/195 249/18/195
f 252/18/195 249/18/195 251/19/195
f 249/18/196 252/18/196 248/17/196
f 244/18/194 253/19/194 249/18/194
f 253/19/190 244/18/190 245/19/190
f 252/18/197 251/19/197 254/18/197
f 254/18/198 256/17/198 252/18/198
f 255/17/196 248/17/196 252/18/196
f 255/17/198 252/18/198 256/17/198
f 256/17/199 257/16/199 255/17/199
f 257/16/200 256/17/200 235/16/200
f 258/17/200 235/16/200 256/17/200
f 256/17/201 254/18/201 258/17/201
f 258/17/183 234/17/183 235/16/183
f 234/17/202 258/17/202 242/18/202
f 259/18/201 258/17/201 254/18/201
f 259/18/202 242/18/202 258/17/202
f 254/18/203 260/19/203 259/18/203
f 261/19/203 259/18/203 260/19/203
f 261/19/204 262/19/204 259/18/204
f 242/18/204 259/18/204 262/19/204
f 262/19/188 241/19/188 242/18/188
f 260/19/197 254/18/197 251/19/197
f 263/16/199 255/17/199 257/16/199
f 263/16/205 264/16/205 255/17/205
f 264/16/192 247/16/192 248/17/192
f 248/17/205 255/17/205 264/16/205
f 237/16/191 239/17/191 247/16/191
f 265/16/206 266/17/206 268/16/206
f 265/16/207 267/16/207 266/17/207
f 268/16/208 270/17/208 269/16/208
f 270/17/206 268/16/206 266/17/206
f 271/17/208 269/16/208 270/17/208
f 270/17/209 272/18/209 271/17/209
f 270/17/210 266/17/210 272/18/210
f 272/18/211 273/19/211 275/18/211
f 272/18/212 274/18/212 273/19/212
f 274/18/210 272/18/210 266/17/210
f 275/18/209 271/17/209 272/18/209
f 276/18/213 278/17/213 275/18/213
f 275/18/214 277/19/214 276/18/214
f 277/19/211 275/18/211 273/19/211
f 271/17/213 275/18/213 278/17/213
f 278/17/215 279/16/215 271/17/215
f 278/17/216 280/17/216 279/16/216
f 280/17/217 278/17/217 281/18/217
f 276/18/217 281/18/217 278/17/217
f 282/19/218 281/18/218 285/19/218
f 282/19/219 283/19/219 281/18/219
f 284/18/219 281/18/219 283/19/219
f 281/18/220 284/18/220 280/17/220
f 276/18/218 285/19/218 281/18/218
f 285/19/214 276/18/214 277/19/214
f 284/18/221 283/19/221 286/18/221
f 286/18/222 288/17/222 284/18/222
f 287/17/220 280/17/220 284/18/220
f 287/17/222 284/18/222 288/17/222
f 288/17/223 289/16/223 287/17/223
f 289/16/224 288/17/224 267/16/224
f 290/17/224 267/16/224 288/17/224
f 288/17/225 286/18/225 290/17/225
f 290/17/207 266/17/207 267/16/207
f 266/17/226 290/17/226 274/18/226
f 291/18/225 290/17/225 286/18/225
f 291/18/226 274/18/226 290/17/226
f 286/18/227 292/19/227 291/18/227
f 293/19/227 291/18/227 292/19/227
f 293/19/228 294/19/228 291/18/228
f 274/18/228 291/18/228 294/19/228
f 294/19/212 273/19/212 274/18/212
f 292/19/229 286/18/229 283/19/229
f 295/16/223 287/17/223 289/16/223
f 295/16/230 296/16/230 287/17/230
f 296/16/216 279/16/216 280/17/216
f 280/17/230 287/17/230 296/16/230
f 269/16/215 271/17/215 279/16/215
usemtl colormap.007
f 297/20/231 299/21/231 298/22/231
f 300/23/232 297/20/232 298/22/232
f 297/20/233 302/24/233 299/21/233
f 297/20/234 300/23/234 301/20/234
f 297/20/235 301/20/235 302/24/235
f 302/24/236 304/24/236 303/25/236
f 303/25/233 306/26/233 302/24/233
f 304/24/235 302/24/235 301/20/235
f 305/27/233 299/21/233 302/24/233
f 306/26/233 305/27/233 302/24/233
f 303/25/237 307/28/237 306/26/237
f 306/26/238 307/28/238 308/26/238
f 308/26/239 309/27/239 306/26/239
f 305/27/239 306/26/239 309/27/239
f 310/21/240 309/27/240 301/20/240
f 310/21/241 299/21/241 309/27/241
f 304/24/240 301/20/240 309/27/240
f 308/26/240 304/24/240 309/27/240
f 305/27/241 309/27/241 299/21/241
f 310/21/242 301/20/242 311/22/242
f 311/22/243 298/22/243 310/21/243
f 299/21/243 310/21/243 298/22/243
f 311/22/244 301/20/244 312/23/244
f 311/22/238 312/23/238 298/22/238
f 312/23/234 301/20/234 300/23/234
f 300/23/238 298/22/238 312/23/238
f 308/26/245 314/28/245 313/25/245
f 313/25/240 304/24/240 308/26/240
f 314/28/238 308/26/238 307/28/238
f 314/28/246 315/29/246 313/25/246
f 315/29/243 314/28/243 316/29/243
f 307/28/243 316/29/243 314/28/243
f 303/25/247 316/29/247 307/28/247
f 316/29/248 303/25/248 315/29/248
f 313/25/248 315/29/248 303/25/248
f 313/25/236 303/25/236 304/24/236
f 317/24/249 319/24/249 318/24/249
f 320/24/249 318/24/249 319/24/249
f 321/24/250 318/24/250 320/24/250
f 322/24/249 321/24/249 320/24/249
f 323/24/250 321/24/250 322/24/250
f 324/24/249 323/24/249 322/24/249
f 325/30/251 318/24/251 326/30/251
f 321/24/251 326/30/251 318/24/251
f 327/30/252 328/30/252 319/24/252
f 320/24/252 319/24/252 328/30/252
f 328/30/253 329/30/253 320/24/253
f 322/24/253 320/24/253 329/30/253
f 322/24/254 329/30/254 324/24/254
f 330/30/254 324/24/254 329/30/254
f 331/30/255 317/24/255 325/30/255
f 318/24/255 325/30/255 317/24/255
f 323/24/256 324/24/256 332/30/256
f 330/30/256 332/30/256 324/24/256
f 326/30/257 321/24/257 332/30/257
f 323/24/257 332/30/257 321/24/257
f 331/30/258 327/30/258 317/24/258
f 319/24/258 317/24/258 327/30/258
f 333/28/259 328/30/259 334/28/259
f 327/30/259 334/28/259 328/30/259
f 335/28/260 329/30/260 333/28/260
f 328/30/260 333/28/260 329/30/260
f 331/30/261 325/30/261 336/28/261
f 337/28/261 336/28/261 325/30/261
f 338/28/262 326/30/262 339/28/262
f 332/30/262 339/28/262 326/30/262
f 340/28/263 339/28/263 330/30/263
f 332/30/263 330/30/263 339/28/263
f 329/30/264 335/28/264 330/30/264
f 340/28/264 330/30/264 335/28/264
f 337/28/265 325/30/265 338/28/265
f 326/30/265 338/28/265 325/30/265
f 327/30/266 331/30/266 334/28/266
f 336/28/266 334/28/266 331/30/266
f 336/28/267 337/28/267 334/28/267
f 333/28/267 334/28/267 337/28/267
f 338/28/267 333/28/267 337/28/267
f 339/28/267 333/28/267 338/28/267
f 335/28/267 333/28/267 339/28/267
f 340/28/268 335/28/268 339/28/268
f 341/20/269 343/21/269 342/22/269
f 344/23/270 341/20/270 342/22/270
f 341/20/271 346/24/271 343/21/271
f 341/20/272 344/23/272 345/20/272
f 341/20/273 345/20/273 346/24/273
f 346/24/274 348/24/274 347/25/274
f 347/25/271 350/26/271 346/24/271
f 348/24/273 346/24/273 345/20/273
f 349/27/271 343/21/271 346/24/271
f 350/26/271 349/27/271 346/24/271
f 347/25/275 351/28/275 350/26/275
f 350/26/276 351/28/276 352/26/276
f 352/26/277 353/27/277 350/26/277
f 349/27/277 350/26/277 353/27/277
f 354/21/278 353/27/278 345/20/278
f 354/21/279 343/21/279 353/27/279
f 348/24/278 345/20/278 353/27/278
f 352/26/278 348/24/278 353/27/278
f 349/27/279 353/27/279 343/21/279
f 354/21/280 345/20/280 355/22/280
f 355/22/281 342/22/281 354/21/281
f 343/21/281 354/21/281 342/22/281
f 355/22/282 345/20/282 356/23/282
f 355/22/276 356/23/276 342/22/276
f 356/23/272 345/20/272 344/23/272
f 344/23/276 342/22/276 356/23/276
f 352/26/283 358/28/283 357/25/283
f 357/25/278 348/24/278 352/26/278
f 358/28/276 352/26/276 351/28/276
f 358/28/284 359/29/284 357/25/284
f 359/29/281 358/28/281 360/29/281
f 351/28/281 360/29/281 358/28/281
f 347/25/285 360/29/285 351/28/285
f 360/29/286 347/25/286 359/29/286
f 357/25/286 359/29/286 347/25/286
f 357/25/274 347/25/274 348/24/274
f 361/20/287 363/21/287 362/22/287
f 364/23/288 361/20/288 362/22/288
f 361/20/240 366/24/240 363/21/240
f 361/20/289 364/23/289 365/20/289
f 361/20/290 365/20/290 366/24/290
f 366/24/291 368/24/291 367/25/291
f 367/25/240 370/26/240 366/24/240
f 368/24/290 366/24/290 365/20/290
f 369/27/240 363/21/240 366/24/240
f 370/26/240 369/27/240 366/24/240
f 367/25/292 371/28/292 370/26/292
f 370/26/293 371/28/293 372/26/293
f 372/26/243 373/27/243 370/26/243
f 369/27/243 370/26/243 373/27/243
f 374/21/233 373/27/233 365/20/233
f 374/21/294 363/21/294 373/27/294
f 368/24/233 365/20/233 373/27/233
f 372/26/233 368/24/233 373/27/233
f 369/27/294 373/27/294 363/21/294
f 374/21/295 365/20/295 375/22/295
f 375/22/239 362/22/239 374/21/239
f 363/21/239 374/21/239 362/22/239
f 375/22/296 365/20/296 376/23/296
f 375/22/293 376/23/293 362/22/293
f 376/23/289 365/20/289 364/23/289
f 364/23/293 362/22/293 376/23/293
f 372/26/297 378/28/297 377/25/297
f 377/25/233 368/24/233 372/26/233
f 378/28/293 372/26/293 371/28/293
f 378/28/298 379/29/298 377/25/298
f 379/29/239 378/28/239 380/29/239
f 371/28/239 380/29/239 378/28/239
f 367/25/299 380/29/299 371/28/299
f 380/29/300 367/25/300 379/29/300
f 377/25/300 379/29/300 367/25/300
f 377/25/291 367/25/291 368/24/291
f 381/20/301 383/21/301 382/22/301
f 384/23/302 381/20/302 382/22/302
f 381/20/278 386/24/278 383/21/278
f 381/20/303 384/23/303 385/20/303
f 381/20/304 385/20/304 386/24/304
f 386/24/305 388/24/305 387/25/305
f 387/25/278 390/26/278 386/24/278
f 388/24/304 386/24/304 385/20/304
f 389/27/278 383/21/278 386/24/278
f 390/26/278 389/27/278 386/24/278
f 387/25/306 391/28/306 390/26/306
f 390/26/307 391/28/307 392/26/307
f 392/26/281 393/27/281 390/26/281
f 389/27/281 390/26/281 393/27/281
f 394/21/271 393/27/271 385/20/271
f 394/21/308 383/21/308 393/27/308
f 388/24/271 385/20/271 393/27/271
f 392/26/271 388/24/271 393/27/271
f 389/27/308 393/27/308 383/21/308
f 394/21/309 385/20/309 395/22/309
f 395/22/277 382/22/277 394/21/277
f 383/21/277 394/21/277 382/22/277
f 395/22/310 385/20/310 396/23/310
f 395/22/307 396/23/307 382/22/307
f 396/23/303 385/20/303 384/23/303
f 384/23/307 382/22/307 396/23/307
f 392/26/311 398/28/311 397/25/311
f 397/25/271 388/24/271 392/26/271
f 398/28/307 392/26/307 391/28/307
f 398/28/312 399/29/312 397/25/312
f 399/29/277 398/28/277 400/29/277
f 391/28/277 400/29/277 398/28/277
f 387/25/313 400/29/313 391/28/313
f 400/29/314 387/25/314 399/29/314
f 397/25/314 399/29/314 387/25/314
f 397/25/305 387/25/305 388/24/305
