# Blender 4.5.9 LTS
# www.blender.org
mtllib palm-detailed-straight.mtl
o BézierCurve
v -0.233206 -0.009068 0.000044
v -0.294234 0.234889 0.000044
v -0.163073 -0.008733 0.169362
v -0.163073 -0.008733 -0.169274
v 0.006242 -0.007925 -0.239408
v -0.206568 0.235308 -0.211603
v 0.005077 0.236318 -0.299270
v -0.210263 1.009299 -0.211603
v -0.169100 1.253743 -0.169274
v -0.297929 1.008880 0.000044
v 0.001382 1.010309 -0.299270
v 0.213027 1.011319 -0.211603
v 0.000216 1.254552 -0.239408
v 0.216721 0.237328 -0.211603
v 0.175558 -0.007117 -0.169274
v 0.304388 0.237746 0.000044
v 0.300693 1.011738 0.000044
v 0.239665 1.255695 0.000044
v 0.169532 1.255360 0.169362
v 0.213027 1.011319 0.211691
v 0.169532 1.255360 -0.169274
v 0.001382 1.010309 0.299358
v 0.216721 0.237328 0.211691
v 0.005077 0.236318 0.299358
v 0.006242 -0.007925 0.239495
v -0.206568 0.235307 0.211691
v -0.210263 1.009299 0.211691
v 0.000216 1.254552 0.239496
v -0.169100 1.253743 0.169362
v -0.239233 1.253409 0.000044
v 0.175558 -0.007117 0.169362
v 0.245691 -0.006782 0.000044
v -0.238723 1.146648 0.000044
v -0.299751 1.390605 0.000044
v -0.168590 1.146983 0.169362
v -0.168590 1.146983 -0.169274
v 0.000726 1.147791 -0.239407
v -0.212085 1.391023 -0.211603
v -0.000440 1.392033 -0.299270
v -0.215779 2.165015 -0.211603
v -0.174616 2.409459 -0.169274
v -0.303445 2.164596 0.000044
v -0.004134 2.166025 -0.299270
v 0.207510 2.167035 -0.211603
v -0.005300 2.410268 -0.239407
v 0.211205 1.393044 -0.211603
v 0.170042 1.148599 -0.169274
v 0.298871 1.393462 0.000044
v 0.295177 2.167454 0.000044
v 0.234149 2.411410 0.000044
v 0.164016 2.411076 0.169362
v 0.207510 2.167035 0.211691
v 0.164016 2.411076 -0.169274
v -0.004134 2.166025 0.299359
v 0.211205 1.393044 0.211691
v -0.000440 1.392033 0.299358
v 0.000726 1.147791 0.239496
v -0.212085 1.391023 0.211691
v -0.215779 2.165015 0.211691
v -0.005300 2.410267 0.239496
v -0.174616 2.409459 0.169362
v -0.244749 2.409124 0.000044
v 0.170042 1.148599 0.169362
v 0.240175 1.148934 0.000044
v -0.244240 2.302363 0.000044
v -0.305267 2.546320 0.000044
v -0.174107 2.302698 0.169362
v -0.174107 2.302698 -0.169274
v -0.004791 2.303506 -0.239407
v -0.217601 2.546739 -0.211603
v -0.005957 2.547749 -0.299270
v -0.221296 3.320730 -0.211603
v -0.180133 3.565175 -0.169273
v -0.308962 3.320312 0.000044
v -0.009651 3.321740 -0.299270
v 0.201994 3.322751 -0.211603
v -0.010817 3.565983 -0.239407
v 0.205688 2.548759 -0.211603
v 0.164525 2.304315 -0.169274
v 0.293354 2.549178 0.000044
v 0.289660 3.323169 0.000044
v 0.228632 3.567126 0.000044
v 0.158499 3.566791 0.169362
v 0.201994 3.322751 0.211692
v 0.158499 3.566791 -0.169273
v -0.009651 3.321740 0.299359
v 0.205688 2.548759 0.211692
v -0.005957 2.547749 0.299359
v -0.004791 2.303506 0.239496
v -0.217601 2.546739 0.211692
v -0.221296 3.320730 0.211692
v -0.010817 3.565983 0.239496
v -0.180133 3.565175 0.169362
v -0.250266 3.564840 0.000044
v 0.164525 2.304315 0.169362
v 0.234658 2.304649 0.000044
v -0.249756 3.458079 0.000044
v -0.310784 3.702036 0.000044
v -0.179623 3.458414 0.169362
v -0.179623 3.458414 -0.169273
v -0.010307 3.459222 -0.239407
v -0.223118 3.702455 -0.211603
v -0.011473 3.703465 -0.299270
v -0.226812 4.476446 -0.211603
v -0.185649 4.720891 -0.169273
v -0.314478 4.476027 0.000045
v -0.015168 4.477456 -0.299270
v 0.196477 4.478467 -0.211603
v -0.016333 4.721699 -0.239407
v 0.200172 3.704475 -0.211603
v 0.159009 3.460031 -0.169273
v 0.287838 3.704894 0.000044
v 0.284143 4.478885 0.000044
v 0.223115 4.722842 0.000045
v 0.152982 4.722507 0.169362
v 0.196477 4.478467 0.211692
v 0.152982 4.722507 -0.169273
v -0.015168 4.477456 0.299359
v 0.200172 3.704475 0.211692
v -0.011473 3.703465 0.299359
v -0.010307 3.459222 0.239496
v -0.223118 3.702455 0.211692
v -0.226812 4.476446 0.211692
v -0.016333 4.721699 0.239496
v -0.185649 4.720891 0.169362
v -0.255782 4.720556 0.000045
v 0.159009 3.460031 0.169362
v 0.229142 3.460365 0.000044
v -0.255273 4.613795 0.000045
v -0.316301 4.857752 0.000045
v -0.185140 4.614130 0.169362
v -0.185140 4.614130 -0.169273
v -0.015824 4.614938 -0.239407
v -0.228634 4.858171 -0.211603
v -0.016990 4.859180 -0.299270
v -0.232329 5.632162 -0.211603
v -0.191166 5.876606 -0.169273
v -0.319995 5.631743 0.000045
v -0.020684 5.633172 -0.299270
v 0.190961 5.634182 -0.211603
v -0.021850 5.877415 -0.239407
v 0.194655 4.860191 -0.211603
v 0.153492 4.615746 -0.169273
v 0.282321 4.860609 0.000045
v 0.278627 5.634601 0.000045
v 0.217599 5.878557 0.000045
v 0.147466 5.878222 0.169362
v 0.190961 5.634182 0.211692
v 0.147466 5.878222 -0.169273
v -0.020684 5.633172 0.299359
v 0.194655 4.860191 0.211692
v -0.016990 4.859180 0.299359
v -0.015824 4.614938 0.239496
v -0.228634 4.858170 0.211692
v -0.232329 5.632162 0.211692
v -0.021850 5.877415 0.239496
v -0.191166 5.876606 0.169362
v -0.261299 5.876271 0.000045
v 0.153492 4.615746 0.169362
v 0.223625 4.616081 0.000045
v -0.260789 5.769511 0.000045
v -0.321817 6.013468 0.000045
v -0.190656 5.769845 0.169363
v -0.190656 5.769845 -0.169273
v -0.021340 5.770654 -0.239407
v -0.234151 6.013886 -0.211602
v -0.022506 6.014896 -0.299270
v -0.237845 6.787878 -0.211602
v -0.196682 7.032322 -0.169273
v -0.325512 6.787459 0.000045
v -0.026201 6.788888 -0.299270
v 0.185444 6.789898 -0.211602
v -0.027366 7.033131 -0.239407
v 0.189139 6.015907 -0.211602
v 0.147976 5.771462 -0.169273
v 0.276805 6.016325 0.000045
v 0.273110 6.790317 0.000045
v 0.212082 7.034273 0.000045
v 0.141949 7.033938 0.169363
v 0.185444 6.789898 0.211692
v 0.141949 7.033938 -0.169273
v -0.026201 6.788888 0.299359
v 0.189139 6.015907 0.211692
v -0.022506 6.014896 0.299359
v -0.021340 5.770654 0.239496
v -0.234151 6.013886 0.211692
v -0.237845 6.787878 0.211692
v -0.027366 7.033131 0.239496
v -0.196682 7.032322 0.169363
v -0.266815 7.031987 0.000045
v 0.147976 5.771462 0.169363
v 0.218108 5.771797 0.000045
v -0.266306 6.925226 0.000045
v -0.327334 7.169183 0.000045
v -0.196173 6.925561 0.169363
v -0.196173 6.925561 -0.169273
v -0.026857 6.926369 -0.239407
v -0.239668 7.169602 -0.211602
v -0.028023 7.170612 -0.299269
v -0.243362 7.943593 -0.211602
v -0.202199 8.188038 -0.169273
v -0.331028 7.943174 0.000045
v -0.031717 7.944603 -0.299269
v 0.179928 7.945613 -0.211602
v -0.032883 8.188846 -0.239407
v 0.183622 7.171622 -0.211602
v 0.142459 6.927177 -0.169273
v 0.271288 7.172040 0.000045
v 0.267594 7.946032 0.000045
v 0.206566 8.189989 0.000045
v 0.136433 8.189653 0.169363
v 0.179928 7.945613 0.211692
v 0.136433 8.189654 -0.169273
v -0.031717 7.944603 0.299359
v 0.183622 7.171622 0.211692
v -0.028023 7.170612 0.299359
v -0.026857 6.926369 0.239496
v -0.239668 7.169601 0.211692
v -0.243362 7.943593 0.211692
v -0.032883 8.188846 0.239496
v -0.202199 8.188038 0.169363
v -0.272332 8.187703 0.000045
v 0.142459 6.927177 0.169363
v 0.212592 6.927512 0.000045
v -0.430530 8.499012 0.000001
v -0.314498 8.499566 -0.280128
v -0.314498 8.499566 0.280130
v -0.034373 8.500903 0.396163
v -0.034373 8.500903 -0.396162
v 0.245753 8.502240 0.280130
v 0.245753 8.502240 -0.280128
v 0.361785 8.502794 0.000001
v -0.517022 8.430295 -0.482980
v -0.034047 8.432600 -0.683038
v -0.517022 8.430295 0.482982
v -0.034047 8.432600 0.683039
v 0.448929 8.434905 0.482982
v 0.648984 8.435861 0.000001
v -0.717077 8.429339 0.000001
v 0.448929 8.434906 -0.482980
v -0.030479 7.685171 0.647521
v -0.488340 7.682986 0.457867
v 0.427382 7.687357 0.457867
v -0.677992 7.682081 0.000001
v -0.488340 7.682986 -0.457865
v -0.030479 7.685172 -0.647520
v 0.427382 7.687357 -0.457865
v 0.617034 7.688262 0.000001
v -0.516284 8.491323 -0.420586
v -0.272353 7.872828 -0.062829
v -0.514312 8.078225 -0.420586
v -0.273207 8.051704 0.040446
v 0.447609 8.495924 -0.420586
v -0.517588 8.764535 -1.357479
v -0.515352 8.296094 -2.168853
v 0.446304 8.769136 -1.357479
v -0.515616 8.351439 -1.246789
v -0.513645 7.938341 -1.962302
v -0.269256 7.223987 -2.375403
v 0.450248 7.942942 -1.962302
v 0.448276 8.356039 -1.246789
v 0.449580 8.082827 -0.420586
v 0.209593 7.875128 -0.062829
v 0.208739 8.054005 0.040446
v 0.448540 8.300694 -2.168853
v 0.212690 7.226287 -2.375403
v 0.212197 7.329561 -2.554282
v -0.269749 7.327261 -2.554282
v -0.454919 8.491616 0.481953
v -0.094209 7.873678 0.240977
v -0.452948 8.078518 0.481953
v 0.008211 8.053047 0.240977
v -0.454919 8.491616 -0.481951
v -1.393106 8.760356 0.481953
v -2.202235 8.288041 0.481952
v -1.393106 8.760356 -0.481951
v -1.280445 8.347788 0.481953
v -1.993979 7.931275 0.481952
v -2.403661 7.213799 0.240976
v -1.993978 7.931275 -0.481951
v -1.280445 8.347788 -0.481951
v -0.452947 8.078518 -0.481951
v -0.094209 7.873678 -0.240975
v 0.008211 8.053047 -0.240975
v -2.202235 8.288042 -0.481951
v -2.403661 7.213799 -0.240976
v -2.583030 7.316219 -0.240976
v -2.583030 7.316219 0.240976
v 0.447609 8.495924 0.420587
v 0.209593 7.875128 0.062830
v 0.449580 8.082827 0.420587
v 0.208739 8.054005 -0.040445
v -0.516284 8.491323 0.420587
v 0.446304 8.769135 1.357481
v 0.448540 8.300694 2.168854
v -0.517588 8.764535 1.357481
v 0.448276 8.356039 1.246790
v 0.450248 7.942942 1.962303
v 0.212690 7.226287 2.375404
v -0.513645 7.938341 1.962303
v -0.515616 8.351439 1.246790
v -0.514312 8.078225 0.420587
v -0.272353 7.872828 0.062830
v -0.273207 8.051704 -0.040445
v -0.515352 8.296093 2.168854
v -0.269256 7.223987 2.375404
v -0.269749 7.327260 2.554283
v 0.212197 7.329561 2.554283
v 0.386244 8.495631 -0.481951
v 0.031449 7.874278 -0.240975
v 0.388215 8.082534 -0.481951
v -0.072679 8.052661 -0.240975
v 0.386244 8.495631 0.481953
v 1.321822 8.773315 -0.481951
v 2.135423 8.308746 -0.481951
v 1.321823 8.773315 0.481952
v 1.213105 8.359690 -0.481951
v 1.930582 7.950008 -0.481951
v 2.347094 7.236475 -0.240976
v 1.930582 7.950008 0.481952
v 1.213105 8.359690 0.481952
v 0.388216 8.082534 0.481953
v 0.031449 7.874278 0.240977
v -0.072679 8.052661 0.240977
v 2.135423 8.308746 0.481952
v 2.347094 7.236475 0.240976
v 2.525478 7.340603 0.240976
v 2.525478 7.340603 -0.240976
v 0.003795 8.140964 0.536081
v 0.075643 7.620792 0.180452
v 0.005452 7.793962 0.536081
v 0.136267 7.771341 0.119109
v -0.568728 8.138230 -0.036449
v -0.553780 8.367805 1.092567
v -1.033828 7.972014 1.574499
v -1.126303 8.365072 0.520038
v -0.486378 8.021117 1.026821
v -0.909710 7.672088 1.451814
v -1.295339 7.069209 1.554051
v -1.482233 7.669355 0.879284
v -1.058901 8.018385 0.454291
v -0.567072 7.791229 -0.036449
v -0.210619 7.619426 -0.105813
v -0.149994 7.769974 -0.167155
v -1.606351 7.969281 1.001969
v -1.581600 7.067842 1.267786
v -1.688261 7.154086 1.374035
v -1.402000 7.155452 1.660299
v -0.568728 8.138230 0.036450
v -0.210619 7.619426 0.105814
v -0.567072 7.791229 0.036450
v -0.149994 7.769974 0.167157
v 0.003795 8.140964 -0.536080
v -1.126303 8.365073 -0.520036
v -1.606351 7.969281 -1.001968
v -0.553780 8.367805 -1.092566
v -1.058901 8.018385 -0.454290
v -1.482233 7.669355 -0.879283
v -1.581600 7.067843 -1.267785
v -0.909710 7.672088 -1.451813
v -0.486378 8.021118 -1.026819
v 0.005452 7.793962 -0.536080
v 0.075643 7.620792 -0.180451
v 0.136268 7.771341 -0.119108
v -1.033828 7.972014 -1.574497
v -1.295339 7.069209 -1.554050
v -1.402000 7.155452 -1.660298
v -1.688262 7.154086 -1.374034
v -0.069103 8.140615 -0.536080
v -0.135981 7.619782 -0.180451
v -0.067446 7.793614 -0.536080
v -0.198040 7.769745 -0.119108
v 0.503421 8.143349 0.036450
v 0.486282 8.372770 -1.092566
v 0.970086 7.981579 -1.574497
v 1.058805 8.375503 -0.520036
v 0.422192 8.025455 -1.026819
v 0.848837 7.680482 -1.451813
v 1.240204 7.081312 -1.554050
v 1.421360 7.683215 -0.879283
v 0.994716 8.028188 -0.454290
v 0.505077 7.796347 0.036450
v 0.150280 7.621148 0.105814
v 0.088221 7.771111 0.167156
v 1.542609 7.984312 -1.001968
v 1.526465 7.082678 -1.267785
v 1.632298 7.169936 -1.374034
v 1.346037 7.168570 -1.660298
v 0.503421 8.143349 -0.036449
v 0.150280 7.621148 -0.105813
v 0.505077 7.796347 -0.036449
v 0.088221 7.771111 -0.167155
v -0.069102 8.140615 0.536081
v 1.058805 8.375503 0.520038
v 1.542609 7.984312 1.001969
v 0.486282 8.372770 1.092567
v 0.994716 8.028188 0.454291
v 1.421360 7.683215 0.879284
v 1.526465 7.082678 1.267786
v 0.848837 7.680482 1.451814
v 0.422192 8.025455 1.026821
v -0.067446 7.793614 0.536081
v -0.135981 7.619782 0.180452
v -0.198040 7.769745 0.119109
v 0.970086 7.981579 1.574499
v 1.240204 7.081312 1.554051
v 1.346037 7.168569 1.660299
v 1.632298 7.169936 1.374035
vn -0.9000 -0.2251 -0.3732
vn -0.9000 -0.2251 0.3732
vn -0.3722 -0.2226 -0.9011
vn -0.3827 -0.0018 -0.9239
vn -0.9239 -0.0044 -0.3827
vn -0.3743 0.2191 -0.9011
vn -0.9021 0.2165 -0.3732
vn 0.3827 0.0018 -0.9239
vn 0.3722 0.2226 -0.9011
vn 0.3743 -0.2191 -0.9011
vn 0.9021 -0.2165 -0.3732
vn 0.9239 0.0044 -0.3827
vn 0.9000 0.2251 -0.3732
vn 0.9000 0.2251 0.3732
vn 0.9239 0.0044 0.3827
vn 0.3722 0.2226 0.9011
vn 0.3827 0.0018 0.9239
vn 0.3743 -0.2191 0.9011
vn -0.3722 -0.2226 0.9011
vn -0.3827 -0.0018 0.9239
vn -0.9239 -0.0044 0.3827
vn -0.3743 0.2191 0.9011
vn -0.9021 0.2165 0.3732
vn 0.9021 -0.2165 0.3732
vn -0.0048 1.0000 -0.0000
vn -0.1001 0.9679 -0.2306
vn -0.1001 0.9679 0.2306
vn 0.0909 0.9688 0.2306
vn 0.2259 0.9694 0.0955
vn -0.2352 0.9672 -0.0955
vn 0.2259 0.9695 -0.0955
vn 0.2259 0.9694 -0.0955
vn 0.0909 0.9688 -0.2306
vn -0.2352 0.9672 0.0955
vn -0.3821 -0.0457 0.9230
vn 0.3825 -0.0420 0.9230
vn -0.9228 -0.0483 -0.3823
vn 0.3825 -0.0420 -0.9230
vn 0.9232 -0.0395 -0.3823
vn 0.9232 -0.0395 0.3823
vn -0.3821 -0.0457 -0.9230
vn -0.9228 -0.0483 0.3823
vn 0.0048 -1.0000 -0.0000
vn -0.9311 -0.1857 0.3139
vn -0.8294 -0.0040 0.5587
vn -1.0000 -0.0048 -0.0000
vn -0.0034 0.7228 0.6910
vn -0.0046 0.9600 0.2800
vn -0.0041 0.8660 -0.5000
vn -0.9469 -0.1641 -0.2764
vn 0.0024 -0.5000 0.8660
vn 0.0041 -0.8660 0.5000
vn 0.0045 -0.9494 -0.3140
vn 1.0000 0.0048 -0.0000
vn 0.0041 -0.8660 -0.5000
vn 0.8294 0.0040 0.5587
vn 0.9329 -0.1768 0.3139
vn 0.9484 -0.1551 -0.2764
vn 0.9748 -0.1921 -0.1136
vn -0.0018 0.3693 -0.9293
vn -0.9729 -0.2014 -0.1136
vn 0.3147 -0.1797 0.9320
vn 0.5587 0.0027 0.8294
vn -0.0000 -0.0000 1.0000
vn 0.6876 0.7261 -0.0000
vn 0.2754 0.9613 -0.0000
vn -0.5041 0.8636 -0.0000
vn -0.2756 -0.1609 0.9477
vn 0.8684 -0.4959 -0.0000
vn 0.5041 -0.8636 -0.0000
vn -0.3094 -0.9509 -0.0000
vn -0.0000 -0.0000 -1.0000
vn -0.4959 -0.8684 -0.0000
vn 0.5587 0.0027 -0.8294
vn 0.3147 -0.1797 -0.9320
vn -0.2756 -0.1609 -0.9477
vn -0.1127 -0.1973 -0.9738
vn -0.9311 0.3648 -0.0000
vn -0.1127 -0.1973 0.9738
vn 0.9329 -0.1768 -0.3139
vn 0.8294 0.0040 -0.5587
vn -0.0034 0.7228 -0.6910
vn -0.0046 0.9600 -0.2800
vn -0.0041 0.8660 0.5000
vn 0.9484 -0.1551 0.2764
vn 0.0024 -0.5000 -0.8660
vn 0.0045 -0.9494 0.3140
vn -0.8294 -0.0040 -0.5587
vn -0.9311 -0.1857 -0.3139
vn -0.9469 -0.1641 0.2764
vn -0.9729 -0.2014 0.1136
vn -0.0018 0.3693 0.9293
vn 0.9748 -0.1921 0.1136
vn -0.3130 -0.1827 -0.9320
vn -0.5587 -0.0027 -0.8294
vn -0.6945 0.7195 -0.0000
vn -0.2845 0.9587 -0.0000
vn 0.4959 0.8684 -0.0000
vn 0.2772 -0.1583 -0.9477
vn -0.8636 -0.5041 -0.0000
vn 0.3185 -0.9479 -0.0000
vn -0.5587 -0.0027 0.8294
vn -0.3130 -0.1827 0.9320
vn 0.2772 -0.1583 0.9477
vn 0.1146 -0.1962 0.9738
vn 0.9275 0.3737 -0.0000
vn 0.1146 -0.1962 -0.9738
vn 0.8818 -0.1770 0.4371
vn 0.9815 0.0047 0.1914
vn 0.7071 0.0034 0.7071
vn 0.4852 0.7251 -0.4886
vn 0.1934 0.9609 -0.1980
vn -0.3577 0.8643 0.3536
vn 0.4754 -0.1573 0.8656
vn 0.6148 -0.4971 -0.6124
vn 0.3577 -0.8643 -0.3536
vn -0.2175 -0.9505 0.2220
vn -0.7071 -0.0034 -0.7071
vn -0.3494 -0.8677 0.3536
vn -0.1914 -0.0009 -0.9815
vn -0.4362 -0.1833 -0.8810
vn -0.8648 -0.1637 -0.4747
vn -0.7680 -0.2005 -0.6083
vn -0.6589 0.3661 0.6571
vn 0.6092 -0.1939 0.7689
vn -0.4362 -0.1833 0.8810
vn -0.1914 -0.0009 0.9815
vn -0.7071 -0.0034 0.7071
vn 0.4852 0.7251 0.4886
vn 0.1934 0.9609 0.1980
vn -0.3577 0.8643 -0.3536
vn -0.8648 -0.1637 0.4747
vn 0.6148 -0.4971 0.6124
vn 0.3577 -0.8643 0.3536
vn -0.2175 -0.9505 -0.2220
vn 0.7071 0.0034 -0.7071
vn -0.3494 -0.8677 -0.3536
vn 0.9815 0.0047 -0.1914
vn 0.8818 -0.1770 -0.4371
vn 0.4754 -0.1573 -0.8656
vn 0.6092 -0.1939 -0.7689
vn -0.6589 0.3661 -0.6571
vn -0.7680 -0.2005 0.6083
vn -0.8801 -0.1854 -0.4371
vn -0.9815 -0.0047 -0.1914
vn -0.4921 0.7205 0.4886
vn -0.2025 0.9591 0.1980
vn 0.3494 0.8677 -0.3536
vn -0.4739 -0.1619 -0.8656
vn -0.6100 -0.5029 0.6124
vn 0.2265 -0.9484 -0.2220
vn 0.1914 0.0009 0.9815
vn 0.4379 -0.1791 0.8810
vn 0.8663 -0.1555 0.4747
vn 0.7699 -0.1931 0.6083
vn 0.6554 0.3724 -0.6571
vn -0.6073 -0.1997 -0.7689
vn 0.4379 -0.1791 -0.8810
vn 0.1914 0.0009 -0.9815
vn -0.4921 0.7205 -0.4886
vn -0.2025 0.9591 -0.1980
vn 0.3494 0.8677 0.3536
vn 0.8663 -0.1555 -0.4747
vn -0.6100 -0.5029 -0.6124
vn 0.2265 -0.9484 0.2220
vn -0.9815 -0.0047 0.1914
vn -0.8801 -0.1854 0.4371
vn -0.4739 -0.1619 0.8656
vn -0.6073 -0.1997 0.7689
vn 0.6554 0.3724 0.6571
vn 0.7699 -0.1931 -0.6083
vt 0.718750 0.075000
vt 0.718750 0.094346
vt 0.718750 0.155654
vt 0.718750 0.175000
vt 0.218750 0.475000
vt 0.218750 0.458254
vt 0.218750 0.275000
vt 0.218750 0.382377
vt 0.218750 0.439557
vt 0.218750 0.359172
vt 0.218750 0.385967
vt 0.218750 0.414230
vt 0.218750 0.367820
vt 0.218750 0.421410
vt 0.218750 0.288397
vt 0.218750 0.312049
vt 0.218750 0.289177
vt 0.218750 0.321331
vt 0.218750 0.310613
vt 0.218750 0.299308
vt 0.218750 0.317872
vt 0.218750 0.296436
vt 0.218750 0.355000
vt 0.218750 0.349641
s 0
usemtl colormap
f 1/1/1 2/2/1 4/1/1
f 1/1/2 3/1/2 2/2/2
f 4/1/3 6/2/3 5/1/3
f 6/2/1 4/1/1 2/2/1
f 7/2/3 5/1/3 6/2/3
f 6/2/4 8/3/4 7/2/4
f 6/2/5 2/2/5 8/3/5
f 8/3/6 9/4/6 11/3/6
f 8/3/7 10/3/7 9/4/7
f 10/3/5 8/3/5 2/2/5
f 11/3/4 7/2/4 8/3/4
f 12/3/8 14/2/8 11/3/8
f 11/3/9 13/4/9 12/3/9
f 13/4/6 11/3/6 9/4/6
f 7/2/8 11/3/8 14/2/8
f 14/2/10 15/1/10 7/2/10
f 14/2/11 16/2/11 15/1/11
f 16/2/12 14/2/12 17/3/12
f 12/3/12 17/3/12 14/2/12
f 18/4/13 17/3/13 21/4/13
f 18/4/14 19/4/14 17/3/14
f 20/3/14 17/3/14 19/4/14
f 17/3/15 20/3/15 16/2/15
f 12/3/13 21/4/13 17/3/13
f 21/4/9 12/3/9 13/4/9
f 20/3/16 19/4/16 22/3/16
f 22/3/17 24/2/17 20/3/17
f 23/2/15 16/2/15 20/3/15
f 23/2/17 20/3/17 24/2/17
f 24/2/18 25/1/18 23/2/18
f 25/1/19 24/2/19 3/1/19
f 26/2/19 3/1/19 24/2/19
f 24/2/20 22/3/20 26/2/20
f 26/2/2 2/2/2 3/1/2
f 2/2/21 26/2/21 10/3/21
f 27/3/20 26/2/20 22/3/20
f 27/3/21 10/3/21 26/2/21
f 22/3/22 28/4/22 27/3/22
f 29/4/22 27/3/22 28/4/22
f 29/4/23 30/4/23 27/3/23
f 10/3/23 27/3/23 30/4/23
f 30/4/7 9/4/7 10/3/7
f 28/4/16 22/3/16 19/4/16
f 31/1/18 23/2/18 25/1/18
f 31/1/24 32/1/24 23/2/24
f 32/1/11 15/1/11 16/2/11
f 16/2/24 23/2/24 32/1/24
f 5/1/10 7/2/10 15/1/10
f 33/1/1 34/2/1 36/1/1
f 33/1/2 35/1/2 34/2/2
f 36/1/3 38/2/3 37/1/3
f 38/2/1 36/1/1 34/2/1
f 39/2/3 37/1/3 38/2/3
f 38/2/4 40/3/4 39/2/4
f 38/2/5 34/2/5 40/3/5
f 40/3/6 41/4/6 43/3/6
f 40/3/7 42/3/7 41/4/7
f 42/3/5 40/3/5 34/2/5
f 43/3/4 39/2/4 40/3/4
f 44/3/8 46/2/8 43/3/8
f 43/3/9 45/4/9 44/3/9
f 45/4/6 43/3/6 41/4/6
f 39/2/8 43/3/8 46/2/8
f 46/2/10 47/1/10 39/2/10
f 46/2/11 48/2/11 47/1/11
f 48/2/12 46/2/12 49/3/12
f 44/3/12 49/3/12 46/2/12
f 50/4/13 49/3/13 53/4/13
f 50/4/14 51/4/14 49/3/14
f 52/3/14 49/3/14 51/4/14
f 49/3/15 52/3/15 48/2/15
f 44/3/13 53/4/13 49/3/13
f 53/4/9 44/3/9 45/4/9
f 52/3/16 51/4/16 54/3/16
f 54/3/17 56/2/17 52/3/17
f 55/2/15 48/2/15 52/3/15
f 55/2/17 52/3/17 56/2/17
f 56/2/18 57/1/18 55/2/18
f 57/1/19 56/2/19 35/1/19
f 58/2/19 35/1/19 56/2/19
f 56/2/20 54/3/20 58/2/20
f 58/2/2 34/2/2 35/1/2
f 34/2/21 58/2/21 42/3/21
f 59/3/20 58/2/20 54/3/20
f 59/3/21 42/3/21 58/2/21
f 54/3/22 60/4/22 59/3/22
f 61/4/22 59/3/22 60/4/22
f 61/4/23 62/4/23 59/3/23
f 42/3/23 59/3/23 62/4/23
f 62/4/7 41/4/7 42/3/7
f 60/4/16 54/3/16 51/4/16
f 63/1/18 55/2/18 57/1/18
f 63/1/24 64/1/24 55/2/24
f 64/1/11 47/1/11 48/2/11
f 48/2/24 55/2/24 64/1/24
f 37/1/10 39/2/10 47/1/10
f 65/1/1 66/2/1 68/1/1
f 65/1/2 67/1/2 66/2/2
f 68/1/3 70/2/3 69/1/3
f 70/2/1 68/1/1 66/2/1
f 71/2/3 69/1/3 70/2/3
f 70/2/4 72/3/4 71/2/4
f 70/2/5 66/2/5 72/3/5
f 72/3/6 73/4/6 75/3/6
f 72/3/7 74/3/7 73/4/7
f 74/3/5 72/3/5 66/2/5
f 75/3/4 71/2/4 72/3/4
f 76/3/8 78/2/8 75/3/8
f 75/3/9 77/4/9 76/3/9
f 77/4/6 75/3/6 73/4/6
f 71/2/8 75/3/8 78/2/8
f 78/2/10 79/1/10 71/2/10
f 78/2/11 80/2/11 79/1/11
f 80/2/12 78/2/12 81/3/12
f 76/3/12 81/3/12 78/2/12
f 82/4/13 81/3/13 85/4/13
f 82/4/14 83/4/14 81/3/14
f 84/3/14 81/3/14 83/4/14
f 81/3/15 84/3/15 80/2/15
f 76/3/13 85/4/13 81/3/13
f 85/4/9 76/3/9 77/4/9
f 84/3/16 83/4/16 86/3/16
f 86/3/17 88/2/17 84/3/17
f 87/2/15 80/2/15 84/3/15
f 87/2/17 84/3/17 88/2/17
f 88/2/18 89/1/18 87/2/18
f 89/1/19 88/2/19 67/1/19
f 90/2/19 67/1/19 88/2/19
f 88/2/20 86/3/20 90/2/20
f 90/2/2 66/2/2 67/1/2
f 66/2/21 90/2/21 74/3/21
f 91/3/20 90/2/20 86/3/20
f 91/3/21 74/3/21 90/2/21
f 86/3/22 92/4/22 91/3/22
f 93/4/22 91/3/22 92/4/22
f 93/4/23 94/4/23 91/3/23
f 74/3/23 91/3/23 94/4/23
f 94/4/7 73/4/7 74/3/7
f 92/4/16 86/3/16 83/4/16
f 95/1/18 87/2/18 89/1/18
f 95/1/24 96/1/24 87/2/24
f 96/1/11 79/1/11 80/2/11
f 80/2/24 87/2/24 96/1/24
f 69/1/10 71/2/10 79/1/10
f 97/1/1 98/2/1 100/1/1
f 97/1/2 99/1/2 98/2/2
f 100/1/3 102/2/3 101/1/3
f 102/2/1 100/1/1 98/2/1
f 103/2/3 101/1/3 102/2/3
f 102/2/4 104/3/4 103/2/4
f 102/2/5 98/2/5 104/3/5
f 104/3/6 105/4/6 107/3/6
f 104/3/7 106/3/7 105/4/7
f 106/3/5 104/3/5 98/2/5
f 107/3/4 103/2/4 104/3/4
f 108/3/8 110/2/8 107/3/8
f 107/3/9 109/4/9 108/3/9
f 109/4/6 107/3/6 105/4/6
f 103/2/8 107/3/8 110/2/8
f 110/2/10 111/1/10 103/2/10
f 110/2/11 112/2/11 111/1/11
f 112/2/12 110/2/12 113/3/12
f 108/3/12 113/3/12 110/2/12
f 114/4/13 113/3/13 117/4/13
f 114/4/14 115/4/14 113/3/14
f 116/3/14 113/3/14 115/4/14
f 113/3/15 116/3/15 112/2/15
f 108/3/13 117/4/13 113/3/13
f 117/4/9 108/3/9 109/4/9
f 116/3/16 115/4/16 118/3/16
f 118/3/17 120/2/17 116/3/17
f 119/2/15 112/2/15 116/3/15
f 119/2/17 116/3/17 120/2/17
f 120/2/18 121/1/18 119/2/18
f 121/1/19 120/2/19 99/1/19
f 122/2/19 99/1/19 120/2/19
f 120/2/20 118/3/20 122/2/20
f 122/2/2 98/2/2 99/1/2
f 98/2/21 122/2/21 106/3/21
f 123/3/20 122/2/20 118/3/20
f 123/3/21 106/3/21 122/2/21
f 118/3/22 124/4/22 123/3/22
f 125/4/22 123/3/22 124/4/22
f 125/4/23 126/4/23 123/3/23
f 106/3/23 123/3/23 126/4/23
f 126/4/7 105/4/7 106/3/7
f 124/4/16 118/3/16 115/4/16
f 127/1/18 119/2/18 121/1/18
f 127/1/24 128/1/24 119/2/24
f 128/1/11 111/1/11 112/2/11
f 112/2/24 119/2/24 128/1/24
f 101/1/10 103/2/10 111/1/10
f 129/1/1 130/2/1 132/1/1
f 129/1/2 131/1/2 130/2/2
f 132/1/3 134/2/3 133/1/3
f 134/2/1 132/1/1 130/2/1
f 135/2/3 133/1/3 134/2/3
f 134/2/4 136/3/4 135/2/4
f 134/2/5 130/2/5 136/3/5
f 136/3/6 137/4/6 139/3/6
f 136/3/7 138/3/7 137/4/7
f 138/3/5 136/3/5 130/2/5
f 139/3/4 135/2/4 136/3/4
f 140/3/8 142/2/8 139/3/8
f 139/3/9 141/4/9 140/3/9
f 141/4/6 139/3/6 137/4/6
f 135/2/8 139/3/8 142/2/8
f 142/2/10 143/1/10 135/2/10
f 142/2/11 144/2/11 143/1/11
f 144/2/12 142/2/12 145/3/12
f 140/3/12 145/3/12 142/2/12
f 146/4/13 145/3/13 149/4/13
f 146/4/14 147/4/14 145/3/14
f 148/3/14 145/3/14 147/4/14
f 145/3/15 148/3/15 144/2/15
f 140/3/13 149/4/13 145/3/13
f 149/4/9 140/3/9 141/4/9
f 148/3/16 147/4/16 150/3/16
f 150/3/17 152/2/17 148/3/17
f 151/2/15 144/2/15 148/3/15
f 151/2/17 148/3/17 152/2/17
f 152/2/18 153/1/18 151/2/18
f 153/1/19 152/2/19 131/1/19
f 154/2/19 131/1/19 152/2/19
f 152/2/20 150/3/20 154/2/20
f 154/2/2 130/2/2 131/1/2
f 130/2/21 154/2/21 138/3/21
f 155/3/20 154/2/20 150/3/20
f 155/3/21 138/3/21 154/2/21
f 150/3/22 156/4/22 155/3/22
f 157/4/22 155/3/22 156/4/22
f 157/4/23 158/4/23 155/3/23
f 138/3/23 155/3/23 158/4/23
f 158/4/7 137/4/7 138/3/7
f 156/4/16 150/3/16 147/4/16
f 159/1/18 151/2/18 153/1/18
f 159/1/24 160/1/24 151/2/24
f 160/1/11 143/1/11 144/2/11
f 144/2/24 151/2/24 160/1/24
f 133/1/10 135/2/10 143/1/10
f 161/1/1 162/2/1 164/1/1
f 161/1/2 163/1/2 162/2/2
f 164/1/3 166/2/3 165/1/3
f 166/2/1 164/1/1 162/2/1
f 167/2/3 165/1/3 166/2/3
f 166/2/4 168/3/4 167/2/4
f 166/2/5 162/2/5 168/3/5
f 168/3/6 169/4/6 171/3/6
f 168/3/7 170/3/7 169/4/7
f 170/3/5 168/3/5 162/2/5
f 171/3/4 167/2/4 168/3/4
f 172/3/8 174/2/8 171/3/8
f 171/3/9 173/4/9 172/3/9
f 173/4/6 171/3/6 169/4/6
f 167/2/8 171/3/8 174/2/8
f 174/2/10 175/1/10 167/2/10
f 174/2/11 176/2/11 175/1/11
f 176/2/12 174/2/12 177/3/12
f 172/3/12 177/3/12 174/2/12
f 178/4/13 177/3/13 181/4/13
f 178/4/14 179/4/14 177/3/14
f 180/3/14 177/3/14 179/4/14
f 177/3/15 180/3/15 176/2/15
f 172/3/13 181/4/13 177/3/13
f 181/4/9 172/3/9 173/4/9
f 180/3/16 179/4/16 182/3/16
f 182/3/17 184/2/17 180/3/17
f 183/2/15 176/2/15 180/3/15
f 183/2/17 180/3/17 184/2/17
f 184/2/18 185/1/18 183/2/18
f 185/1/19 184/2/19 163/1/19
f 186/2/19 163/1/19 184/2/19
f 184/2/20 182/3/20 186/2/20
f 186/2/2 162/2/2 163/1/2
f 162/2/21 186/2/21 170/3/21
f 187/3/20 186/2/20 182/3/20
f 187/3/21 170/3/21 186/2/21
f 182/3/22 188/4/22 187/3/22
f 189/4/22 187/3/22 188/4/22
f 189/4/23 190/4/23 187/3/23
f 170/3/23 187/3/23 190/4/23
f 190/4/7 169/4/7 170/3/7
f 188/4/16 182/3/16 179/4/16
f 191/1/18 183/2/18 185/1/18
f 191/1/24 192/1/24 183/2/24
f 192/1/11 175/1/11 176/2/11
f 176/2/24 183/2/24 192/1/24
f 165/1/10 167/2/10 175/1/10
f 193/1/1 194/2/1 196/1/1
f 193/1/2 195/1/2 194/2/2
f 196/1/3 198/2/3 197/1/3
f 198/2/1 196/1/1 194/2/1
f 199/2/3 197/1/3 198/2/3
f 198/2/4 200/3/4 199/2/4
f 198/2/5 194/2/5 200/3/5
f 200/3/6 201/4/6 203/3/6
f 200/3/7 202/3/7 201/4/7
f 202/3/5 200/3/5 194/2/5
f 203/3/4 199/2/4 200/3/4
f 204/3/8 206/2/8 203/3/8
f 203/3/9 205/4/9 204/3/9
f 205/4/6 203/3/6 201/4/6
f 199/2/8 203/3/8 206/2/8
f 206/2/10 207/1/10 199/2/10
f 206/2/11 208/2/11 207/1/11
f 208/2/12 206/2/12 209/3/12
f 204/3/12 209/3/12 206/2/12
f 210/4/13 209/3/13 213/4/13
f 210/4/14 211/4/14 209/3/14
f 212/3/14 209/3/14 211/4/14
f 209/3/15 212/3/15 208/2/15
f 204/3/13 213/4/13 209/3/13
f 213/4/9 204/3/9 205/4/9
f 212/3/16 211/4/16 214/3/16
f 214/3/17 216/2/17 212/3/17
f 215/2/15 208/2/15 212/3/15
f 215/2/17 212/3/17 216/2/17
f 216/2/18 217/1/18 215/2/18
f 217/1/19 216/2/19 195/1/19
f 218/2/19 195/1/19 216/2/19
f 216/2/20 214/3/20 218/2/20
f 218/2/2 194/2/2 195/1/2
f 194/2/21 218/2/21 202/3/21
f 219/3/20 218/2/20 214/3/20
f 219/3/21 202/3/21 218/2/21
f 214/3/22 220/4/22 219/3/22
f 221/4/22 219/3/22 220/4/22
f 221/4/23 222/4/23 219/3/23
f 202/3/23 219/3/23 222/4/23
f 222/4/7 201/4/7 202/3/7
f 220/4/16 214/3/16 211/4/16
f 223/1/18 215/2/18 217/1/18
f 223/1/24 224/1/24 215/2/24
f 224/1/11 207/1/11 208/2/11
f 208/2/24 215/2/24 224/1/24
f 197/1/10 199/2/10 207/1/10
usemtl colormap.006
f 225/5/25 227/5/25 226/5/25
f 228/5/25 226/5/25 227/5/25
f 229/5/25 226/5/25 228/5/25
f 230/5/25 229/5/25 228/5/25
f 231/5/25 229/5/25 230/5/25
f 232/5/25 231/5/25 230/5/25
f 233/6/26 226/5/26 234/6/26
f 229/5/26 234/6/26 226/5/26
f 235/6/27 236/6/27 227/5/27
f 228/5/27 227/5/27 236/6/27
f 236/6/28 237/6/28 228/5/28
f 230/5/28 228/5/28 237/6/28
f 230/5/29 237/6/29 232/5/29
f 238/6/29 232/5/29 237/6/29
f 239/6/30 225/5/30 233/6/30
f 226/5/30 233/6/30 225/5/30
f 231/5/31 232/5/31 240/6/31
f 238/6/32 240/6/32 232/5/32
f 234/6/33 229/5/33 240/6/33
f 231/5/33 240/6/33 229/5/33
f 239/6/34 235/6/34 225/5/34
f 227/5/34 225/5/34 235/6/34
f 241/7/35 236/6/35 242/7/35
f 235/6/35 242/7/35 236/6/35
f 243/7/36 237/6/36 241/7/36
f 236/6/36 241/7/36 237/6/36
f 239/6/37 233/6/37 244/7/37
f 245/7/37 244/7/37 233/6/37
f 246/7/38 234/6/38 247/7/38
f 240/6/38 247/7/38 234/6/38
f 248/7/39 247/7/39 238/6/39
f 240/6/39 238/6/39 247/7/39
f 237/6/40 243/7/40 238/6/40
f 248/7/40 238/6/40 243/7/40
f 245/7/41 233/6/41 246/7/41
f 234/6/41 246/7/41 233/6/41
f 235/6/42 239/6/42 242/7/42
f 244/7/42 242/7/42 239/6/42
f 244/7/43 245/7/43 242/7/43
f 241/7/43 242/7/43 245/7/43
f 246/7/43 241/7/43 245/7/43
f 247/7/43 241/7/43 246/7/43
f 243/7/43 241/7/43 247/7/43
f 248/7/43 243/7/43 247/7/43
f 252/8/44 249/9/44 250/10/44
f 249/9/45 251/11/45 250/10/45
f 249/9/46 254/5/46 251/11/46
f 249/9/47 252/8/47 253/9/47
f 249/9/48 253/9/48 254/5/48
f 255/12/46 258/13/46 254/5/46
f 254/5/49 256/5/49 255/12/49
f 256/5/48 254/5/48 253/9/48
f 257/14/46 251/11/46 254/5/46
f 258/13/46 257/14/46 254/5/46
f 255/12/50 259/7/50 258/13/50
f 258/13/51 259/7/51 260/13/51
f 260/13/52 261/14/52 258/13/52
f 257/14/52 258/13/52 261/14/52
f 262/11/53 251/11/53 261/14/53
f 262/11/54 261/14/54 253/9/54
f 256/5/54 253/9/54 261/14/54
f 260/13/54 256/5/54 261/14/54
f 257/14/53 261/14/53 251/11/53
f 263/10/55 250/10/55 262/11/55
f 262/11/56 253/9/56 263/10/56
f 251/11/55 262/11/55 250/10/55
f 263/10/57 253/9/57 264/8/57
f 263/10/51 264/8/51 250/10/51
f 264/8/47 253/9/47 252/8/47
f 252/8/51 250/10/51 264/8/51
f 265/12/54 256/5/54 260/13/54
f 260/13/58 266/7/58 265/12/58
f 266/7/51 260/13/51 259/7/51
f 266/7/59 267/15/59 265/12/59
f 267/15/55 266/7/55 268/15/55
f 259/7/55 268/15/55 266/7/55
f 268/15/60 255/12/60 267/15/60
f 255/12/61 268/15/61 259/7/61
f 265/12/60 267/15/60 255/12/60
f 265/12/49 255/12/49 256/5/49
f 272/8/62 269/9/62 270/10/62
f 269/9/63 271/11/63 270/10/63
f 269/9/64 274/5/64 271/11/64
f 269/9/65 272/8/65 273/9/65
f 269/9/66 273/9/66 274/5/66
f 275/12/64 278/13/64 274/5/64
f 274/5/67 276/5/67 275/12/67
f 276/5/66 274/5/66 273/9/66
f 277/14/64 271/11/64 274/5/64
f 278/13/64 277/14/64 274/5/64
f 275/12/68 279/7/68 278/13/68
f 278/13/69 279/7/69 280/13/69
f 280/13/70 281/14/70 278/13/70
f 277/14/70 278/13/70 281/14/70
f 282/11/71 271/11/71 281/14/71
f 282/11/72 281/14/72 273/9/72
f 276/5/72 273/9/72 281/14/72
f 280/13/72 276/5/72 281/14/72
f 277/14/71 281/14/71 271/11/71
f 283/10/73 270/10/73 282/11/73
f 282/11/74 273/9/74 283/10/74
f 271/11/73 282/11/73 270/10/73
f 283/10/75 273/9/75 284/8/75
f 283/10/69 284/8/69 270/10/69
f 284/8/65 273/9/65 272/8/65
f 272/8/69 270/10/69 284/8/69
f 285/12/72 276/5/72 280/13/72
f 280/13/76 286/7/76 285/12/76
f 286/7/69 280/13/69 279/7/69
f 286/7/77 287/15/77 285/12/77
f 287/15/73 286/7/73 288/15/73
f 279/7/73 288/15/73 286/7/73
f 288/15/78 275/12/78 287/15/78
f 275/12/79 288/15/79 279/7/79
f 285/12/78 287/15/78 275/12/78
f 285/12/67 275/12/67 276/5/67
f 292/8/80 289/9/80 290/10/80
f 289/9/81 291/11/81 290/10/81
f 289/9/54 294/5/54 291/11/54
f 289/9/82 292/8/82 293/9/82
f 289/9/83 293/9/83 294/5/83
f 295/12/54 298/13/54 294/5/54
f 294/5/84 296/5/84 295/12/84
f 296/5/83 294/5/83 293/9/83
f 297/14/54 291/11/54 294/5/54
f 298/13/54 297/14/54 294/5/54
f 295/12/85 299/7/85 298/13/85
f 298/13/86 299/7/86 300/13/86
f 300/13/55 301/14/55 298/13/55
f 297/14/55 298/13/55 301/14/55
f 302/11/87 291/11/87 301/14/87
f 302/11/46 301/14/46 293/9/46
f 296/5/46 293/9/46 301/14/46
f 300/13/46 296/5/46 301/14/46
f 297/14/87 301/14/87 291/11/87
f 303/10/52 290/10/52 302/11/52
f 302/11/88 293/9/88 303/10/88
f 291/11/52 302/11/52 290/10/52
f 303/10/89 293/9/89 304/8/89
f 303/10/86 304/8/86 290/10/86
f 304/8/82 293/9/82 292/8/82
f 292/8/86 290/10/86 304/8/86
f 305/12/46 296/5/46 300/13/46
f 300/13/90 306/7/90 305/12/90
f 306/7/86 300/13/86 299/7/86
f 306/7/91 307/15/91 305/12/91
f 307/15/52 306/7/52 308/15/52
f 299/7/52 308/15/52 306/7/52
f 308/15/92 295/12/92 307/15/92
f 295/12/93 308/15/93 299/7/93
f 305/12/92 307/15/92 295/12/92
f 305/12/84 295/12/84 296/5/84
f 312/8/94 309/9/94 310/10/94
f 309/9/95 311/11/95 310/10/95
f 309/9/72 314/5/72 311/11/72
f 309/9/96 312/8/96 313/9/96
f 309/9/97 313/9/97 314/5/97
f 315/12/72 318/13/72 314/5/72
f 314/5/98 316/5/98 315/12/98
f 316/5/97 314/5/97 313/9/97
f 317/14/72 311/11/72 314/5/72
f 318/13/72 317/14/72 314/5/72
f 315/12/99 319/7/99 318/13/99
f 318/13/100 319/7/100 320/13/100
f 320/13/73 321/14/73 318/13/73
f 317/14/73 318/13/73 321/14/73
f 322/11/101 311/11/101 321/14/101
f 322/11/64 321/14/64 313/9/64
f 316/5/64 313/9/64 321/14/64
f 320/13/64 316/5/64 321/14/64
f 317/14/101 321/14/101 311/11/101
f 323/10/70 310/10/70 322/11/70
f 322/11/102 313/9/102 323/10/102
f 311/11/70 322/11/70 310/10/70
f 323/10/103 313/9/103 324/8/103
f 323/10/100 324/8/100 310/10/100
f 324/8/96 313/9/96 312/8/96
f 312/8/100 310/10/100 324/8/100
f 325/12/64 316/5/64 320/13/64
f 320/13/104 326/7/104 325/12/104
f 326/7/100 320/13/100 319/7/100
f 326/7/105 327/15/105 325/12/105
f 327/15/70 326/7/70 328/15/70
f 319/7/70 328/15/70 326/7/70
f 328/15/106 315/12/106 327/15/106
f 315/12/107 328/15/107 319/7/107
f 325/12/106 327/15/106 315/12/106
f 325/12/98 315/12/98 316/5/98
f 332/16/108 329/17/108 330/18/108
f 329/17/109 331/19/109 330/18/109
f 329/17/110 334/7/110 331/19/110
f 329/17/111 332/16/111 333/17/111
f 329/17/112 333/17/112 334/7/112
f 335/20/110 338/21/110 334/7/110
f 334/7/113 336/7/113 335/20/113
f 336/7/112 334/7/112 333/17/112
f 337/22/110 331/19/110 334/7/110
f 338/21/110 337/22/110 334/7/110
f 335/20/114 339/23/114 338/21/114
f 338/21/115 339/23/115 340/21/115
f 340/21/116 341/22/116 338/21/116
f 337/22/116 338/21/116 341/22/116
f 342/19/117 331/19/117 341/22/117
f 342/19/118 341/22/118 333/17/118
f 336/7/118 333/17/118 341/22/118
f 340/21/118 336/7/118 341/22/118
f 337/22/117 341/22/117 331/19/117
f 343/18/119 330/18/119 342/19/119
f 342/19/120 333/17/120 343/18/120
f 331/19/119 342/19/119 330/18/119
f 343/18/121 333/17/121 344/16/121
f 343/18/115 344/16/115 330/18/115
f 344/16/111 333/17/111 332/16/111
f 332/16/115 330/18/115 344/16/115
f 345/20/118 336/7/118 340/21/118
f 340/21/122 346/23/122 345/20/122
f 346/23/115 340/21/115 339/23/115
f 346/23/123 347/24/123 345/20/123
f 347/24/119 346/23/119 348/24/119
f 339/23/119 348/24/119 346/23/119
f 348/24/124 335/20/124 347/24/124
f 335/20/125 348/24/125 339/23/125
f 345/20/124 347/24/124 335/20/124
f 345/20/113 335/20/113 336/7/113
f 352/16/126 349/17/126 350/18/126
f 349/17/127 351/19/127 350/18/127
f 349/17/128 354/7/128 351/19/128
f 349/17/129 352/16/129 353/17/129
f 349/17/130 353/17/130 354/7/130
f 355/20/128 358/21/128 354/7/128
f 354/7/131 356/7/131 355/20/131
f 356/7/130 354/7/130 353/17/130
f 357/22/128 351/19/128 354/7/128
f 358/21/128 357/22/128 354/7/128
f 355/20/132 359/23/132 358/21/132
f 358/21/133 359/23/133 360/21/133
f 360/21/134 361/22/134 358/21/134
f 357/22/134 358/21/134 361/22/134
f 362/19/135 351/19/135 361/22/135
f 362/19/136 361/22/136 353/17/136
f 356/7/136 353/17/136 361/22/136
f 360/21/136 356/7/136 361/22/136
f 357/22/135 361/22/135 351/19/135
f 363/18/137 350/18/137 362/19/137
f 362/19/138 353/17/138 363/18/138
f 351/19/137 362/19/137 350/18/137
f 363/18/139 353/17/139 364/16/139
f 363/18/133 364/16/133 350/18/133
f 364/16/129 353/17/129 352/16/129
f 352/16/133 350/18/133 364/16/133
f 365/20/136 356/7/136 360/21/136
f 360/21/140 366/23/140 365/20/140
f 366/23/133 360/21/133 359/23/133
f 366/23/141 367/24/141 365/20/141
f 367/24/137 366/23/137 368/24/137
f 359/23/137 368/24/137 366/23/137
f 368/24/142 355/20/142 367/24/142
f 355/20/143 368/24/143 359/23/143
f 365/20/142 367/24/142 355/20/142
f 365/20/131 355/20/131 356/7/131
f 372/16/144 369/17/144 370/18/144
f 369/17/145 371/19/145 370/18/145
f 369/17/118 374/7/118 371/19/118
f 369/17/146 372/16/146 373/17/146
f 369/17/147 373/17/147 374/7/147
f 375/20/118 378/21/118 374/7/118
f 374/7/148 376/7/148 375/20/148
f 376/7/147 374/7/147 373/17/147
f 377/22/118 371/19/118 374/7/118
f 378/21/118 377/22/118 374/7/118
f 375/20/149 379/23/149 378/21/149
f 378/21/150 379/23/150 380/21/150
f 380/21/119 381/22/119 378/21/119
f 377/22/119 378/21/119 381/22/119
f 382/19/151 371/19/151 381/22/151
f 382/19/110 381/22/110 373/17/110
f 376/7/110 373/17/110 381/22/110
f 380/21/110 376/7/110 381/22/110
f 377/22/151 381/22/151 371/19/151
f 383/18/116 370/18/116 382/19/116
f 382/19/152 373/17/152 383/18/152
f 371/19/116 382/19/116 370/18/116
f 383/18/153 373/17/153 384/16/153
f 383/18/150 384/16/150 370/18/150
f 384/16/146 373/17/146 372/16/146
f 372/16/150 370/18/150 384/16/150
f 385/20/110 376/7/110 380/21/110
f 380/21/154 386/23/154 385/20/154
f 386/23/150 380/21/150 379/23/150
f 386/23/155 387/24/155 385/20/155
f 387/24/116 386/23/116 388/24/116
f 379/23/116 388/24/116 386/23/116
f 388/24/156 375/20/156 387/24/156
f 375/20/157 388/24/157 379/23/157
f 385/20/156 387/24/156 375/20/156
f 385/20/148 375/20/148 376/7/148
f 392/16/158 389/17/158 390/18/158
f 389/17/159 391/19/159 390/18/159
f 389/17/136 394/7/136 391/19/136
f 389/17/160 392/16/160 393/17/160
f 389/17/161 393/17/161 394/7/161
f 395/20/136 398/21/136 394/7/136
f 394/7/162 396/7/162 395/20/162
f 396/7/161 394/7/161 393/17/161
f 397/22/136 391/19/136 394/7/136
f 398/21/136 397/22/136 394/7/136
f 395/20/163 399/23/163 398/21/163
f 398/21/164 399/23/164 400/21/164
f 400/21/137 401/22/137 398/21/137
f 397/22/137 398/21/137 401/22/137
f 402/19/165 391/19/165 401/22/165
f 402/19/128 401/22/128 393/17/128
f 396/7/128 393/17/128 401/22/128
f 400/21/128 396/7/128 401/22/128
f 397/22/165 401/22/165 391/19/165
f 403/18/134 390/18/134 402/19/134
f 402/19/166 393/17/166 403/18/166
f 391/19/134 402/19/134 390/18/134
f 403/18/167 393/17/167 404/16/167
f 403/18/164 404/16/164 390/18/164
f 404/16/160 393/17/160 392/16/160
f 392/16/164 390/18/164 404/16/164
f 405/20/128 396/7/128 400/21/128
f 400/21/168 406/23/168 405/20/168
f 406/23/164 400/21/164 399/23/164
f 406/23/169 407/24/169 405/20/169
f 407/24/134 406/23/134 408/24/134
f 399/23/134 408/24/134 406/23/134
f 408/24/170 395/20/170 407/24/170
f 395/20/171 408/24/171 399/23/171
f 405/20/170 407/24/170 395/20/170
f 405/20/162 395/20/162 396/7/162
