# Blender v3.6.5 OBJ File: ''
# www.blender.org
mtllib Hammer.mtl
o Cube_Cube.001
v -1.000000 -1.000000 1.000000
v -1.000000 1.000000 1.000000
v -1.000000 -1.000000 -1.000000
v -1.000000 1.000000 -1.000000
v 1.000000 -1.000000 1.000000
v 1.000000 1.000000 1.000000
v 1.000000 -1.000000 -1.000000
v 1.000000 1.000000 -1.000000
v -1.000000 7.281609 1.000000
v -1.000000 7.281609 -1.000000
v 1.000000 7.281609 -1.000000
v 1.000000 7.281609 1.000000
v -1.982738 5.917696 1.982738
v -1.982738 9.883172 1.982738
v -1.982738 5.917696 -1.982738
v -1.982738 9.883172 -1.982738
v 1.982738 5.917696 1.982738
v 1.982738 9.883172 1.982738
v 1.982738 5.917696 -1.982738
v 1.982738 9.883172 -1.982738
v 1.379169 7.181666 2.510450
v 1.379169 7.972331 2.510450
v 1.379169 7.181666 0.510450
v 1.379169 7.972331 0.510450
v 2.341900 7.181666 2.510450
v 2.341900 7.972331 2.510450
v 2.341900 7.181666 0.510450
v 2.341900 7.972331 0.510450
v -1.000000 8.192847 1.000000
v -1.000000 10.192847 1.000000
v -1.000000 8.192847 -1.000000
v -1.000000 10.192847 -1.000000
v 1.000000 8.192847 1.000000
v 1.000000 10.192847 1.000000
v 1.000000 8.192847 -1.000000
v 1.000000 10.192847 -1.000000
v -2.363137 6.425016 -0.322066
v -2.363137 8.425015 -0.322066
v -2.363137 6.425016 -2.322066
v -2.363137 8.425015 -2.322066
v -0.363138 6.425016 -0.322066
v -0.363138 8.425015 -0.322066
v -0.363138 6.425016 -2.322066
v -0.363138 8.425015 -2.322066
v 1.279667 7.239438 -0.024227
v 1.279667 8.880774 -0.024227
v 1.279667 7.239438 -2.024227
v 1.279667 8.880774 -2.024227
v 2.144455 7.239438 -0.024227
v 2.144455 8.880774 -0.024227
v 2.144455 7.239438 -2.024227
v 2.144455 8.880774 -2.024227
v -2.340929 6.719961 2.152545
v -2.340929 8.719960 2.152545
v -2.340929 6.719961 1.486325
v -2.340929 8.719960 1.486325
v -0.340929 6.719961 2.152545
v -0.340929 8.719960 2.152545
v -0.340929 6.719961 1.486325
v -0.340929 8.719960 1.486325
vt 0.375000 0.000000
vt 0.625000 0.000000
vt 0.625000 0.250000
vt 0.375000 0.250000
vt 0.625000 0.500000
vt 0.375000 0.500000
vt 0.625000 0.750000
vt 0.375000 0.750000
vt 0.625000 1.000000
vt 0.375000 1.000000
vt 0.125000 0.500000
vt 0.125000 0.750000
vt 0.625000 0.500000
vt 0.625000 0.750000
vt 0.875000 0.500000
vt 0.875000 0.750000
vt 0.625000 0.000000
vt 0.625000 0.250000
vt 0.625000 1.000000
vt 0.375000 0.000000
vt 0.625000 0.000000
vt 0.625000 0.250000
vt 0.375000 0.250000
vt 0.625000 0.500000
vt 0.375000 0.500000
vt 0.625000 0.750000
vt 0.375000 0.750000
vt 0.625000 1.000000
vt 0.375000 1.000000
vt 0.125000 0.500000
vt 0.125000 0.750000
vt 0.875000 0.500000
vt 0.875000 0.750000
vt 0.375000 0.000000
vt 0.625000 0.000000
vt 0.625000 0.250000
vt 0.375000 0.250000
vt 0.625000 0.500000
vt 0.375000 0.500000
vt 0.625000 0.750000
vt 0.375000 0.750000
vt 0.625000 1.000000
vt 0.375000 1.000000
vt 0.125000 0.500000
vt 0.125000 0.750000
vt 0.875000 0.500000
vt 0.875000 0.750000
vt 0.375000 0.000000
vt 0.625000 0.000000
vt 0.625000 0.250000
vt 0.375000 0.250000
vt 0.625000 0.500000
vt 0.375000 0.500000
vt 0.625000 0.750000
vt 0.375000 0.750000
vt 0.625000 1.000000
vt 0.375000 1.000000
vt 0.125000 0.500000
vt 0.125000 0.750000
vt 0.875000 0.500000
vt 0.875000 0.750000
vt 0.375000 0.000000
vt 0.625000 0.000000
vt 0.625000 0.250000
vt 0.375000 0.250000
vt 0.625000 0.500000
vt 0.375000 0.500000
vt 0.625000 0.750000
vt 0.375000 0.750000
vt 0.625000 1.000000
vt 0.375000 1.000000
vt 0.125000 0.500000
vt 0.125000 0.750000
vt 0.875000 0.500000
vt 0.875000 0.750000
vt 0.375000 0.000000
vt 0.625000 0.000000
vt 0.625000 0.250000
vt 0.375000 0.250000
vt 0.625000 0.500000
vt 0.375000 0.500000
vt 0.625000 0.750000
vt 0.375000 0.750000
vt 0.625000 1.000000
vt 0.375000 1.000000
vt 0.125000 0.500000
vt 0.125000 0.750000
vt 0.875000 0.500000
vt 0.875000 0.750000
vt 0.375000 0.000000
vt 0.625000 0.000000
vt 0.625000 0.250000
vt 0.375000 0.250000
vt 0.625000 0.500000
vt 0.375000 0.500000
vt 0.625000 0.750000
vt 0.375000 0.750000
vt 0.625000 1.000000
vt 0.375000 1.000000
vt 0.125000 0.500000
vt 0.125000 0.750000
vt 0.875000 0.500000
vt 0.875000 0.750000
vn -1.0000 0.0000 0.0000
vn 0.0000 0.0000 -1.0000
vn 1.0000 0.0000 0.0000
vn 0.0000 0.0000 1.0000
vn 0.0000 -1.0000 0.0000
vn 0.0000 1.0000 0.0000
usemtl None
s off
f 1/1/1 2/2/1 4/3/1 3/4/1
f 3/4/2 4/3/2 8/5/2 7/6/2
f 7/6/3 8/5/3 6/7/3 5/8/3
f 5/8/4 6/7/4 2/9/4 1/10/4
f 3/11/5 7/6/5 5/8/5 1/12/5
f 6/7/3 8/5/3 11/13/3 12/14/3
f 11/13/6 10/15/6 9/16/6 12/14/6
f 4/3/1 2/2/1 9/17/1 10/18/1
f 2/9/4 6/7/4 12/14/4 9/19/4
f 8/5/2 4/3/2 10/18/2 11/13/2
f 13/20/1 14/21/1 16/22/1 15/23/1
f 15/23/2 16/22/2 20/24/2 19/25/2
f 19/25/3 20/24/3 18/26/3 17/27/3
f 17/27/4 18/26/4 14/28/4 13/29/4
f 15/30/5 19/25/5 17/27/5 13/31/5
f 20/24/6 16/32/6 14/33/6 18/26/6
f 21/34/1 22/35/1 24/36/1 23/37/1
f 23/37/2 24/36/2 28/38/2 27/39/2
f 27/39/3 28/38/3 26/40/3 25/41/3
f 25/41/4 26/40/4 22/42/4 21/43/4
f 23/44/5 27/39/5 25/41/5 21/45/5
f 28/38/6 24/46/6 22/47/6 26/40/6
f 29/48/1 30/49/1 32/50/1 31/51/1
f 31/51/2 32/50/2 36/52/2 35/53/2
f 35/53/3 36/52/3 34/54/3 33/55/3
f 33/55/4 34/54/4 30/56/4 29/57/4
f 31/58/5 35/53/5 33/55/5 29/59/5
f 36/52/6 32/60/6 30/61/6 34/54/6
f 37/62/1 38/63/1 40/64/1 39/65/1
f 39/65/2 40/64/2 44/66/2 43/67/2
f 43/67/3 44/66/3 42/68/3 41/69/3
f 41/69/4 42/68/4 38/70/4 37/71/4
f 39/72/5 43/67/5 41/69/5 37/73/5
f 44/66/6 40/74/6 38/75/6 42/68/6
f 45/76/1 46/77/1 48/78/1 47/79/1
f 47/79/2 48/78/2 52/80/2 51/81/2
f 51/81/3 52/80/3 50/82/3 49/83/3
f 49/83/4 50/82/4 46/84/4 45/85/4
f 47/86/5 51/81/5 49/83/5 45/87/5
f 52/80/6 48/88/6 46/89/6 50/82/6
f 53/90/1 54/91/1 56/92/1 55/93/1
f 55/93/2 56/92/2 60/94/2 59/95/2
f 59/95/3 60/94/3 58/96/3 57/97/3
f 57/97/4 58/96/4 54/98/4 53/99/4
f 55/100/5 59/95/5 57/97/5 53/101/5
f 60/94/6 56/102/6 54/103/6 58/96/6
